{"glyphs":{"0":{"ha":707,"x_min":89,"x_max":646,"o":"m 439 939 q 240 837 319 939 q 125 584 161 735 q 89 286 89 433 q 142 61 89 138 q 296 -15 194 -15 q 494 87 415 -15 q 610 340 574 189 q 646 638 646 490 q 594 863 646 786 q 439 939 542 939 m 436 874 q 535 819 503 874 q 568 649 568 764 q 538 375 568 514 q 446 143 507 236 q 299 50 385 50 q 167 275 167 50 q 197 549 167 410 q 289 781 228 688 q 436 874 350 874 z "},"1":{"ha":522,"x_min":101,"x_max":443,"o":"m 443 924 l 314 0 l 235 0 l 351 831 l 132 692 l 101 751 l 376 924 l 443 924 z "},"2":{"ha":599,"x_min":-4,"x_max":557,"o":"m 344 939 q 501 881 444 939 q 557 726 557 822 q 522 571 557 646 q 391 383 488 496 q 96 68 294 269 l 488 69 l 465 0 l -4 0 l 6 68 q 317 403 219 289 q 445 583 414 517 q 476 724 476 650 q 440 833 476 794 q 340 872 404 872 q 237 846 283 872 q 143 767 190 819 l 94 811 q 215 908 154 878 q 344 939 275 939 z "},"3":{"ha":615,"x_min":-18,"x_max":564,"o":"m 360 939 q 510 883 456 939 q 564 739 564 828 q 510 576 564 644 q 356 490 456 508 q 472 436 429 483 q 515 301 515 389 q 482 153 515 226 q 378 33 449 81 q 206 -15 308 -15 q -18 107 60 -15 l 36 146 q 112 73 71 94 q 208 51 153 51 q 336 88 285 51 q 412 184 388 125 q 436 308 436 243 q 281 456 436 456 l 222 456 l 243 519 l 281 519 q 391 550 344 519 q 461 631 438 581 q 485 738 485 681 q 450 839 485 803 q 354 875 415 875 q 255 854 301 875 q 157 786 208 833 l 118 835 q 236 913 178 888 q 360 939 294 939 z "},"4":{"ha":649,"x_min":38,"x_max":597,"o":"m 597 308 l 588 243 l 478 243 l 443 0 l 365 0 l 401 243 l 38 243 l 47 303 l 385 939 l 450 911 l 132 308 l 411 308 l 457 581 l 525 581 l 486 308 l 597 308 z "},"5":{"ha":611,"x_min":3,"x_max":603,"o":"m 582 858 l 247 858 l 203 542 q 347 585 276 585 q 492 523 439 585 q 544 353 544 461 q 510 183 544 268 q 405 42 476 99 q 225 -15 333 -15 q 97 14 150 -15 q 3 97 43 43 l 57 140 q 131 73 90 94 q 228 51 171 51 q 362 98 308 51 q 440 214 415 144 q 465 351 465 283 q 428 478 465 435 q 326 521 390 521 q 253 510 286 521 q 181 476 221 500 l 119 476 l 182 924 l 603 924 l 582 858 z "},"6":{"ha":668,"x_min":85,"x_max":631,"o":"m 411 601 q 549 544 496 601 q 601 379 601 486 q 569 199 601 290 q 468 46 536 107 q 303 -15 400 -15 q 138 61 190 -15 q 85 271 85 138 q 133 584 85 429 q 270 839 181 739 q 479 939 360 939 q 631 883 567 939 l 590 832 q 476 875 538 875 q 295 762 375 875 q 181 465 215 649 q 411 601 282 601 m 304 50 q 428 103 379 50 q 500 233 478 157 q 522 379 522 310 q 489 497 522 458 q 397 536 456 536 q 276 493 335 536 q 168 374 218 450 q 163 267 163 319 q 197 104 163 158 q 304 50 231 50 z "},"7":{"ha":546,"x_min":58,"x_max":582,"o":"m 582 924 l 574 863 l 128 -11 l 58 13 l 490 856 l 107 857 l 117 924 l 582 924 z "},"8":{"ha":681,"x_min":49,"x_max":638,"o":"m 449 488 q 560 401 524 450 q 597 281 597 351 q 557 126 597 193 q 447 22 517 58 q 289 -15 376 -15 q 113 47 178 -15 q 49 207 49 108 q 274 497 49 407 q 160 682 160 561 q 197 817 160 758 q 294 907 233 875 q 425 939 354 939 q 577 887 517 939 q 638 743 638 835 q 594 597 638 656 q 449 488 550 539 m 422 876 q 288 822 339 876 q 236 683 236 767 q 264 592 236 628 q 357 528 292 556 l 394 511 q 524 614 486 560 q 561 742 561 668 q 524 841 561 806 q 422 876 488 876 m 292 50 q 453 113 389 50 q 517 283 517 175 q 483 381 517 343 q 369 454 450 419 l 331 471 q 172 356 214 422 q 129 207 129 289 q 172 92 129 133 q 292 50 215 50 z "},"9":{"ha":653,"x_min":72,"x_max":611,"o":"m 394 939 q 557 869 503 939 q 611 675 611 799 q 501 245 611 432 q 88 -28 390 58 l 72 32 q 367 195 258 93 q 515 475 475 297 q 292 346 417 346 q 151 410 204 346 q 99 581 99 474 q 132 749 99 667 q 232 885 165 832 q 394 939 299 939 m 306 411 q 525 554 417 411 q 533 675 533 625 q 499 825 533 775 q 392 875 464 875 q 268 828 317 875 q 198 714 219 782 q 176 578 176 646 q 210 455 176 499 q 306 411 244 411 z "},"\r":{"ha":342,"x_min":0,"x_max":0,"o":""}," ":{"ha":342,"x_min":0,"x_max":0,"o":""},"A":{"ha":714,"x_min":-28,"x_max":639,"o":"m 556 0 l 518 261 l 165 261 l 56 0 l -28 0 l 389 951 l 490 951 l 639 0 l 556 0 m 194 329 l 508 329 l 429 885 l 194 329 z "},"Á":{"ha":714,"x_min":-28,"x_max":639,"o":"m 556 0 l 518 261 l 165 261 l 56 0 l -28 0 l 389 951 l 490 951 l 639 0 l 556 0 m 194 329 l 508 329 l 429 885 l 194 329 m 568 1228 l 599 1157 l 338 1053 l 317 1097 l 568 1228 z "},"Ă":{"ha":714,"x_min":-28,"x_max":639,"o":"m 556 0 l 518 261 l 165 261 l 56 0 l -28 0 l 389 951 l 490 951 l 639 0 l 556 0 m 194 329 l 508 329 l 429 885 l 194 329 m 453 1063 q 344 1102 385 1063 q 306 1203 304 1142 l 356 1210 q 454 1126 372 1126 q 531 1150 499 1126 q 581 1214 563 1174 l 633 1197 q 567 1100 617 1138 q 453 1063 518 1063 z "},"Ắ":{"ha":714,"x_min":-28,"x_max":639,"o":"m 639 1349 l 463 1181 l 431 1211 l 592 1397 l 639 1349 m 453 1025 q 344 1065 385 1025 q 306 1165 304 1104 l 356 1172 q 454 1089 372 1089 q 531 1113 499 1089 q 581 1176 563 1136 l 633 1160 q 567 1063 617 1100 q 453 1025 518 1025 m 389 951 l 490 951 l 639 0 l 556 0 l 518 261 l 165 261 l 56 0 l -28 0 l 389 951 m 194 329 l 508 329 l 429 885 l 194 329 z "},"Ặ":{"ha":714,"x_min":-28,"x_max":639,"o":"m 556 0 l 518 261 l 165 261 l 56 0 l -28 0 l 389 951 l 490 951 l 639 0 l 556 0 m 194 329 l 508 329 l 429 885 l 194 329 m 453 1063 q 344 1102 385 1063 q 306 1203 304 1142 l 356 1210 q 454 1126 372 1126 q 531 1150 499 1126 q 581 1214 563 1174 l 633 1197 q 567 1100 617 1138 q 453 1063 518 1063 m 286 -121 q 324 -135 310 -121 q 339 -172 339 -149 q 321 -217 339 -199 q 276 -235 303 -235 q 239 -220 253 -235 q 225 -183 225 -206 q 242 -139 225 -157 q 286 -121 260 -121 z "},"Ằ":{"ha":714,"x_min":-28,"x_max":639,"o":"m 497 1207 l 460 1181 l 329 1353 l 386 1396 l 497 1207 m 451 1025 q 343 1065 383 1025 q 304 1165 303 1104 l 354 1172 q 453 1089 371 1089 q 529 1113 497 1089 q 579 1176 561 1136 l 632 1160 q 566 1063 615 1100 q 451 1025 517 1025 m 556 0 l 518 261 l 165 261 l 56 0 l -28 0 l 389 951 l 490 951 l 639 0 l 556 0 m 194 329 l 508 329 l 429 885 l 194 329 z "},"Ẳ":{"ha":714,"x_min":-28,"x_max":639,"o":"m 556 0 l 518 261 l 165 261 l 56 0 l -28 0 l 389 951 l 490 951 l 639 0 l 556 0 m 194 329 l 508 329 l 429 885 l 194 329 m 453 1025 q 344 1065 385 1025 q 306 1165 304 1104 l 356 1172 q 454 1089 372 1089 q 531 1113 499 1089 q 581 1176 563 1136 l 633 1160 q 567 1063 617 1100 q 453 1025 518 1025 m 439 1251 q 511 1272 485 1256 q 538 1326 538 1289 q 489 1374 538 1374 q 454 1369 469 1374 q 415 1354 439 1364 l 397 1404 q 499 1432 449 1432 q 578 1403 549 1432 q 608 1328 608 1375 q 579 1250 608 1279 q 499 1214 550 1221 l 490 1150 l 428 1150 l 439 1251 z "},"Ẵ":{"ha":714,"x_min":-28,"x_max":675,"o":"m 410 1286 q 372 1273 388 1286 q 332 1229 356 1260 l 289 1258 q 411 1349 347 1349 q 453 1340 435 1349 q 493 1314 471 1331 q 526 1292 514 1299 q 553 1286 538 1286 q 590 1300 572 1286 q 631 1346 608 1314 l 675 1319 q 553 1224 621 1224 q 508 1233 528 1224 q 468 1260 489 1243 q 437 1280 450 1274 q 410 1286 424 1286 m 454 1089 q 531 1113 499 1089 q 581 1176 563 1136 l 633 1160 q 567 1063 617 1100 q 453 1025 518 1025 q 344 1065 385 1025 q 306 1165 304 1104 l 356 1172 q 454 1089 372 1089 m 389 951 l 490 951 l 639 0 l 556 0 l 518 261 l 165 261 l 56 0 l -28 0 l 389 951 m 194 329 l 508 329 l 429 885 l 194 329 z "},"Ǎ":{"ha":714,"x_min":-28,"x_max":660,"o":"m 556 0 l 518 261 l 165 261 l 56 0 l -28 0 l 389 951 l 490 951 l 639 0 l 556 0 m 194 329 l 508 329 l 429 885 l 194 329 m 626 1231 l 660 1192 l 478 1050 l 429 1050 l 288 1193 l 324 1231 l 460 1121 l 626 1231 z "},"Â":{"ha":714,"x_min":-28,"x_max":639,"o":"m 556 0 l 518 261 l 165 261 l 56 0 l -28 0 l 389 951 l 490 951 l 639 0 l 556 0 m 194 329 l 508 329 l 429 885 l 194 329 m 299 1058 l 265 1099 l 449 1240 l 496 1240 l 638 1097 l 601 1058 l 467 1169 l 299 1058 z "},"Ấ":{"ha":714,"x_min":-28,"x_max":768,"o":"m 768 1325 l 592 1157 l 560 1188 l 721 1374 l 768 1325 m 461 1122 l 293 1011 l 260 1051 l 443 1193 l 490 1193 l 632 1050 l 596 1011 l 461 1122 m 389 951 l 490 951 l 639 0 l 556 0 l 518 261 l 165 261 l 56 0 l -28 0 l 389 951 m 194 329 l 508 329 l 429 885 l 194 329 z "},"Ậ":{"ha":714,"x_min":-28,"x_max":639,"o":"m 556 0 l 518 261 l 165 261 l 56 0 l -28 0 l 389 951 l 490 951 l 639 0 l 556 0 m 194 329 l 508 329 l 429 885 l 194 329 m 299 1058 l 265 1099 l 449 1240 l 496 1240 l 638 1097 l 601 1058 l 467 1169 l 299 1058 m 286 -121 q 324 -135 310 -121 q 339 -172 339 -149 q 321 -217 339 -199 q 276 -235 303 -235 q 239 -220 253 -235 q 225 -183 225 -206 q 242 -139 225 -157 q 286 -121 260 -121 z "},"Ầ":{"ha":714,"x_min":-28,"x_max":639,"o":"m 357 1183 l 319 1157 l 189 1329 l 246 1372 l 357 1183 m 290 1011 l 257 1051 l 440 1193 l 488 1193 l 629 1050 l 593 1011 l 458 1122 l 290 1011 m 556 0 l 518 261 l 165 261 l 56 0 l -28 0 l 389 951 l 490 951 l 639 0 l 556 0 m 194 329 l 508 329 l 429 885 l 194 329 z "},"Ẩ":{"ha":714,"x_min":-28,"x_max":763,"o":"m 556 0 l 518 261 l 165 261 l 56 0 l -28 0 l 389 951 l 490 951 l 639 0 l 556 0 m 194 329 l 508 329 l 429 885 l 194 329 m 292 1011 l 258 1051 l 442 1193 l 489 1193 l 631 1050 l 594 1011 l 460 1122 l 292 1011 m 593 1229 q 665 1250 639 1233 q 692 1304 692 1267 q 643 1351 692 1351 q 608 1347 624 1351 q 569 1332 593 1342 l 551 1382 q 653 1410 603 1410 q 733 1381 703 1410 q 763 1306 763 1353 q 733 1228 763 1257 q 653 1192 704 1199 l 644 1128 l 582 1128 l 593 1229 z "},"Ẫ":{"ha":714,"x_min":-28,"x_max":671,"o":"m 406 1300 q 367 1287 383 1300 q 328 1243 351 1274 l 285 1272 q 407 1363 343 1363 q 449 1353 431 1363 q 489 1328 467 1344 q 522 1306 510 1313 q 549 1300 533 1300 q 586 1314 568 1300 q 626 1360 604 1328 l 671 1333 q 549 1238 617 1238 q 504 1247 524 1238 q 464 1274 485 1257 q 433 1294 446 1288 q 406 1300 419 1300 m 458 1122 l 290 1011 l 257 1051 l 440 1193 l 488 1193 l 629 1050 l 593 1011 l 458 1122 m 389 951 l 490 951 l 639 0 l 556 0 l 518 261 l 165 261 l 56 0 l -28 0 l 389 951 m 194 329 l 508 329 l 429 885 l 194 329 z "},"Ȁ":{"ha":714,"x_min":-28,"x_max":639,"o":"m 556 0 l 518 261 l 165 261 l 56 0 l -28 0 l 389 951 l 490 951 l 639 0 l 556 0 m 194 329 l 508 329 l 429 885 l 194 329 m 335 1300 l 406 1089 l 351 1068 l 260 1267 l 335 1300 m 497 1300 l 560 1094 l 506 1074 l 422 1265 l 497 1300 z "},"Ä":{"ha":714,"x_min":-28,"x_max":639,"o":"m 556 0 l 518 261 l 165 261 l 56 0 l -28 0 l 389 951 l 490 951 l 639 0 l 556 0 m 194 329 l 508 329 l 429 885 l 194 329 m 343 1097 q 308 1110 321 1097 q 296 1143 296 1124 q 313 1186 296 1169 q 353 1203 329 1203 q 388 1190 374 1203 q 401 1156 401 1176 q 385 1114 401 1131 q 343 1097 368 1097 m 581 1097 q 547 1110 560 1097 q 533 1143 533 1124 q 550 1186 533 1169 q 592 1203 567 1203 q 626 1189 613 1203 q 639 1156 639 1175 q 622 1114 639 1131 q 581 1097 606 1097 z "},"Ǟ":{"ha":714,"x_min":-28,"x_max":639,"o":"m 556 0 l 518 261 l 165 261 l 56 0 l -28 0 l 389 951 l 490 951 l 639 0 l 556 0 m 194 329 l 508 329 l 429 885 l 194 329 m 328 1035 q 293 1048 306 1035 q 281 1081 281 1061 q 297 1124 281 1107 q 338 1140 314 1140 q 372 1127 358 1140 q 386 1093 386 1114 q 369 1051 386 1068 q 328 1035 353 1035 m 565 1035 q 531 1048 544 1035 q 518 1081 518 1061 q 535 1124 518 1107 q 576 1140 551 1140 q 610 1126 597 1140 q 624 1093 624 1113 q 607 1051 624 1068 q 565 1035 590 1035 m 618 1218 l 315 1218 l 325 1282 l 628 1282 l 618 1218 z "},"Ȧ":{"ha":714,"x_min":-28,"x_max":639,"o":"m 556 0 l 518 261 l 165 261 l 56 0 l -28 0 l 389 951 l 490 951 l 639 0 l 556 0 m 194 329 l 508 329 l 429 885 l 194 329 m 464 1106 q 426 1119 440 1106 q 411 1157 411 1133 q 429 1201 411 1183 q 474 1219 447 1219 q 511 1205 497 1219 q 525 1168 525 1190 q 508 1124 525 1142 q 464 1106 490 1106 z "},"Ạ":{"ha":714,"x_min":-28,"x_max":639,"o":"m 556 0 l 518 261 l 165 261 l 56 0 l -28 0 l 389 951 l 490 951 l 639 0 l 556 0 m 194 329 l 508 329 l 429 885 l 194 329 m 286 -121 q 324 -135 310 -121 q 339 -172 339 -149 q 321 -217 339 -199 q 276 -235 303 -235 q 239 -220 253 -235 q 225 -183 225 -206 q 242 -139 225 -157 q 286 -121 260 -121 z "},"Ǡ":{"ha":714,"x_min":-28,"x_max":639,"o":"m 556 0 l 518 261 l 165 261 l 56 0 l -28 0 l 389 951 l 490 951 l 639 0 l 556 0 m 194 329 l 508 329 l 429 885 l 194 329 m 450 1032 q 412 1046 426 1032 q 397 1083 397 1060 q 415 1128 397 1110 q 460 1146 433 1146 q 497 1131 483 1146 q 511 1094 511 1117 q 494 1050 511 1068 q 450 1032 476 1032 m 619 1218 l 317 1218 l 326 1282 l 629 1282 l 619 1218 z "},"À":{"ha":714,"x_min":-28,"x_max":639,"o":"m 556 0 l 518 261 l 165 261 l 56 0 l -28 0 l 389 951 l 490 951 l 639 0 l 556 0 m 194 329 l 508 329 l 429 885 l 194 329 m 381 1226 l 597 1097 l 569 1053 l 340 1157 l 381 1226 z "},"Ả":{"ha":714,"x_min":-28,"x_max":639,"o":"m 556 0 l 518 261 l 165 261 l 56 0 l -28 0 l 389 951 l 490 951 l 639 0 l 556 0 m 194 329 l 508 329 l 429 885 l 194 329 m 436 1176 q 508 1197 482 1181 q 535 1251 535 1214 q 486 1299 535 1299 q 451 1294 467 1299 q 413 1279 436 1289 l 394 1329 q 496 1357 446 1357 q 576 1328 546 1357 q 606 1253 606 1300 q 576 1175 606 1204 q 496 1139 547 1146 l 488 1075 l 425 1075 l 436 1176 z "},"Ȃ":{"ha":714,"x_min":-28,"x_max":639,"o":"m 556 0 l 518 261 l 165 261 l 56 0 l -28 0 l 389 951 l 490 951 l 639 0 l 556 0 m 194 329 l 508 329 l 429 885 l 194 329 m 292 1106 q 359 1215 310 1175 q 474 1256 408 1256 q 582 1213 542 1256 q 621 1100 622 1169 l 568 1093 q 471 1190 558 1190 q 342 1089 381 1190 l 292 1106 z "},"Ɑ":{"ha":842,"x_min":89,"x_max":783,"o":"m 669 149 q 667 111 667 121 q 676 68 667 85 q 707 42 685 51 l 685 -15 q 592 106 590 6 q 363 -15 497 -15 q 164 79 239 -15 q 89 350 89 174 q 140 652 89 510 q 285 881 192 794 q 497 967 378 967 q 690 853 621 967 l 713 951 l 783 951 l 669 149 m 371 54 q 492 88 436 54 q 596 192 547 121 l 678 774 q 600 867 642 838 q 499 897 558 897 q 326 819 400 897 q 212 614 251 740 q 172 349 172 488 q 226 126 172 199 q 371 54 281 54 z "},"Ā":{"ha":714,"x_min":-28,"x_max":639,"o":"m 556 0 l 518 261 l 165 261 l 56 0 l -28 0 l 389 951 l 490 951 l 639 0 l 556 0 m 194 329 l 508 329 l 429 885 l 194 329 m 613 1114 l 310 1114 l 319 1178 l 622 1178 l 613 1114 z "},"Ą":{"ha":714,"x_min":-28,"x_max":639,"o":"m 617 0 q 479 -85 519 -44 q 439 -176 439 -126 q 456 -221 439 -206 q 507 -236 474 -236 q 581 -228 538 -236 l 565 -293 q 496 -301 528 -301 q 402 -270 436 -301 q 368 -186 368 -239 q 411 -74 368 -122 q 553 17 454 -25 l 518 261 l 165 261 l 56 0 l -28 0 l 389 951 l 490 951 l 639 0 l 617 0 m 194 329 l 508 329 l 429 885 l 194 329 z "},"Å":{"ha":714,"x_min":-28,"x_max":639,"o":"m 556 0 l 518 261 l 165 261 l 56 0 l -28 0 l 389 951 l 490 951 l 639 0 l 556 0 m 194 329 l 508 329 l 429 885 l 194 329 m 486 1314 q 567 1282 536 1314 q 599 1200 599 1250 q 558 1095 599 1136 q 458 1054 518 1054 q 377 1086 408 1054 q 346 1168 346 1118 q 386 1273 346 1232 q 486 1314 426 1314 m 483 1265 q 424 1238 446 1265 q 403 1169 403 1211 q 418 1120 403 1138 q 461 1103 433 1103 q 520 1131 499 1103 q 542 1200 542 1158 q 526 1249 542 1232 q 483 1265 511 1265 z "},"Ǻ":{"ha":714,"x_min":-28,"x_max":639,"o":"m 556 0 l 518 261 l 165 261 l 56 0 l -28 0 l 389 951 l 490 951 l 639 0 l 556 0 m 194 329 l 508 329 l 429 885 l 194 329 m 471 1271 q 552 1239 521 1271 q 583 1157 583 1207 q 543 1052 583 1093 q 443 1011 503 1011 q 362 1043 393 1011 q 331 1125 331 1075 q 371 1230 331 1189 q 471 1271 411 1271 m 468 1222 q 409 1195 431 1222 q 388 1126 388 1168 q 403 1077 388 1094 q 446 1060 418 1060 q 505 1088 483 1060 q 526 1157 526 1115 q 511 1206 526 1189 q 468 1222 496 1222 m 590 1454 l 621 1383 l 360 1279 l 339 1324 l 590 1454 z "},"Ⱥ":{"ha":714,"x_min":-28,"x_max":639,"o":"m 560 0 l 522 261 l 326 261 l 190 -97 l 147 -85 l 279 261 l 164 261 l 53 0 l -28 0 l 389 951 l 490 951 l 506 857 l 572 1033 l 615 1021 l 519 768 l 639 0 l 560 0 m 192 328 l 304 328 l 454 724 l 431 888 l 192 328 m 351 328 l 513 328 l 468 632 l 351 328 z "},"Ã":{"ha":714,"x_min":-28,"x_max":663,"o":"m 556 0 l 518 261 l 165 261 l 56 0 l -28 0 l 389 951 l 490 951 l 639 0 l 556 0 m 194 329 l 508 329 l 429 885 l 194 329 m 540 1101 q 496 1111 515 1101 q 456 1138 476 1121 q 424 1158 438 1151 q 397 1164 411 1164 q 359 1151 375 1164 q 319 1107 343 1138 l 276 1136 q 399 1226 335 1226 q 440 1217 422 1226 q 481 1192 458 1208 q 513 1170 501 1176 q 540 1164 525 1164 q 578 1178 560 1164 q 618 1224 596 1192 l 663 1197 q 540 1101 608 1101 z "},"Æ":{"ha":983,"x_min":-47,"x_max":950,"o":"m 931 883 l 531 883 l 561 526 l 882 526 l 872 458 l 568 458 l 601 68 l 886 68 l 875 0 l 531 0 l 510 256 l 158 256 l 36 0 l -47 0 l 419 951 l 950 951 l 931 883 m 190 324 l 504 324 l 458 886 l 190 324 z "},"Ǽ":{"ha":983,"x_min":-47,"x_max":950,"o":"m 931 883 l 531 883 l 561 526 l 882 526 l 872 458 l 568 458 l 601 68 l 886 68 l 875 0 l 531 0 l 510 256 l 158 256 l 36 0 l -47 0 l 419 951 l 950 951 l 931 883 m 190 324 l 504 324 l 458 886 l 190 324 m 786 1228 l 817 1157 l 556 1053 l 535 1097 l 786 1228 z "},"Ǣ":{"ha":983,"x_min":-47,"x_max":950,"o":"m 931 883 l 531 883 l 561 526 l 882 526 l 872 458 l 568 458 l 601 68 l 886 68 l 875 0 l 531 0 l 510 256 l 158 256 l 36 0 l -47 0 l 419 951 l 950 951 l 931 883 m 190 324 l 504 324 l 458 886 l 190 324 m 831 1114 l 528 1114 l 538 1178 l 840 1178 l 831 1114 z "},"B":{"ha":756,"x_min":85,"x_max":707,"o":"m 501 503 q 676 310 676 475 q 642 160 676 229 q 528 45 608 90 q 321 0 449 0 l 85 0 l 218 951 l 444 951 q 638 899 568 951 q 707 746 707 846 q 651 585 707 649 q 501 503 594 521 m 289 883 l 240 533 l 404 533 q 567 592 510 533 q 625 743 625 650 q 578 850 625 817 q 446 883 532 883 l 289 883 m 329 68 q 533 138 472 68 q 593 310 593 208 q 408 468 593 468 l 231 468 l 175 68 l 329 68 z "},"Ḃ":{"ha":756,"x_min":85,"x_max":707,"o":"m 501 503 q 676 310 676 475 q 642 160 676 229 q 528 45 608 90 q 321 0 449 0 l 85 0 l 218 951 l 444 951 q 638 899 568 951 q 707 746 707 846 q 651 585 707 649 q 501 503 594 521 m 289 883 l 240 533 l 404 533 q 567 592 510 533 q 625 743 625 650 q 578 850 625 817 q 446 883 532 883 l 289 883 m 329 68 q 533 138 472 68 q 593 310 593 208 q 408 468 593 468 l 231 468 l 175 68 l 329 68 m 475 1106 q 437 1119 451 1106 q 422 1157 422 1133 q 440 1201 422 1183 q 485 1219 458 1219 q 522 1205 508 1219 q 536 1168 536 1190 q 519 1124 536 1142 q 475 1106 501 1106 z "},"Ḅ":{"ha":756,"x_min":85,"x_max":707,"o":"m 501 503 q 676 310 676 475 q 642 160 676 229 q 528 45 608 90 q 321 0 449 0 l 85 0 l 218 951 l 444 951 q 638 899 568 951 q 707 746 707 846 q 651 585 707 649 q 501 503 594 521 m 289 883 l 240 533 l 404 533 q 567 592 510 533 q 625 743 625 650 q 578 850 625 817 q 446 883 532 883 l 289 883 m 329 68 q 533 138 472 68 q 593 310 593 208 q 408 468 593 468 l 231 468 l 175 68 l 329 68 m 321 -121 q 359 -135 344 -121 q 374 -172 374 -149 q 356 -217 374 -199 q 311 -235 338 -235 q 274 -220 288 -235 q 260 -183 260 -206 q 277 -139 260 -157 q 321 -121 294 -121 z "},"Ꞵ":{"ha":750,"x_min":47,"x_max":694,"o":"m 500 503 q 672 313 672 475 q 633 158 672 229 q 522 43 594 86 q 350 0 449 0 q 169 35 251 0 l 126 -274 l 47 -274 l 218 951 l 432 951 q 625 899 556 951 q 694 744 694 846 q 640 584 694 647 q 500 503 586 521 m 350 68 q 479 101 425 68 q 561 190 533 135 q 589 311 589 246 q 406 468 589 468 l 325 468 l 343 533 l 403 533 q 556 591 500 533 q 613 743 613 649 q 566 850 613 817 q 433 883 519 883 l 289 883 l 179 99 q 350 68 264 68 z "},"Ɓ":{"ha":835,"x_min":79,"x_max":788,"o":"m 582 503 q 757 310 757 475 q 723 160 757 229 q 609 45 689 90 q 401 0 529 0 l 165 0 l 289 885 l 256 885 q 178 856 204 885 q 153 776 153 826 q 171 690 153 736 l 110 664 q 79 779 79 719 q 127 903 79 856 q 263 951 175 951 l 525 951 q 718 899 649 951 q 788 746 788 846 q 731 585 788 649 q 582 503 675 521 m 369 883 l 321 533 l 485 533 q 648 592 590 533 q 706 743 706 650 q 659 850 706 817 q 526 883 613 883 l 369 883 m 410 68 q 613 138 553 68 q 674 310 674 208 q 489 468 674 468 l 311 468 l 256 68 l 410 68 z "},"Ƀ":{"ha":765,"x_min":17,"x_max":717,"o":"m 511 503 q 686 310 686 475 q 652 160 686 229 q 538 45 618 90 q 331 0 458 0 l 94 0 l 129 243 l 17 243 l 26 307 l 138 307 l 228 951 l 454 951 q 647 899 578 951 q 717 746 717 846 q 660 585 717 649 q 511 503 604 521 m 299 883 l 250 533 l 414 533 q 577 592 519 533 q 635 743 635 650 q 588 850 635 817 q 456 883 542 883 l 299 883 m 339 68 q 542 138 482 68 q 603 310 603 208 q 418 468 603 468 l 240 468 l 218 307 l 432 307 l 424 243 l 210 243 l 185 68 l 339 68 z "},"Ƃ":{"ha":713,"x_min":85,"x_max":654,"o":"m 376 579 q 581 518 508 579 q 653 339 653 457 q 619 175 653 251 q 506 49 585 99 q 301 0 426 0 l 85 0 l 218 951 l 654 951 l 633 882 l 290 882 l 247 579 l 376 579 m 315 68 q 509 149 450 68 q 568 338 568 231 q 375 513 568 513 l 238 513 l 175 68 l 315 68 z "},"C":{"ha":692,"x_min":88,"x_max":732,"o":"m 519 967 q 638 944 589 967 q 732 878 688 922 l 683 831 q 607 881 644 865 q 521 897 569 897 q 322 811 401 897 q 207 597 243 725 q 171 340 171 468 q 227 127 171 199 q 378 56 283 56 q 483 76 438 56 q 578 135 528 96 l 617 81 q 372 -15 503 -15 q 165 78 242 -15 q 88 343 88 172 q 133 633 88 489 q 276 872 179 776 q 519 967 374 967 z "},"Ć":{"ha":692,"x_min":88,"x_max":732,"o":"m 519 967 q 638 944 589 967 q 732 878 688 922 l 683 831 q 607 881 644 865 q 521 897 569 897 q 322 811 401 897 q 207 597 243 725 q 171 340 171 468 q 227 127 171 199 q 378 56 283 56 q 483 76 438 56 q 578 135 528 96 l 617 81 q 372 -15 503 -15 q 165 78 242 -15 q 88 343 88 172 q 133 633 88 489 q 276 872 179 776 q 519 967 374 967 m 647 1228 l 678 1157 l 417 1053 l 396 1097 l 647 1228 z "},"Č":{"ha":692,"x_min":88,"x_max":739,"o":"m 519 967 q 638 944 589 967 q 732 878 688 922 l 683 831 q 607 881 644 865 q 521 897 569 897 q 322 811 401 897 q 207 597 243 725 q 171 340 171 468 q 227 127 171 199 q 378 56 283 56 q 483 76 438 56 q 578 135 528 96 l 617 81 q 372 -15 503 -15 q 165 78 242 -15 q 88 343 88 172 q 133 633 88 489 q 276 872 179 776 q 519 967 374 967 m 706 1231 l 739 1192 l 557 1050 l 508 1050 l 367 1193 l 403 1231 l 539 1121 l 706 1231 z "},"Ç":{"ha":692,"x_min":88,"x_max":732,"o":"m 521 897 q 322 811 401 897 q 207 597 243 725 q 171 340 171 468 q 227 127 171 199 q 378 56 283 56 q 483 76 438 56 q 578 135 528 96 l 617 81 q 392 -15 510 -8 l 379 -90 q 458 -121 432 -96 q 483 -189 483 -146 q 443 -280 483 -244 q 338 -315 403 -315 q 236 -283 279 -315 l 264 -237 q 338 -258 297 -258 q 393 -241 371 -258 q 415 -192 415 -224 q 393 -147 415 -160 q 314 -133 371 -133 l 339 -14 q 155 90 222 -3 q 88 343 88 183 q 133 633 88 489 q 276 872 179 776 q 519 967 374 967 q 638 944 589 967 q 732 878 688 922 l 683 831 q 607 881 644 865 q 521 897 569 897 z "},"Ĉ":{"ha":692,"x_min":88,"x_max":732,"o":"m 519 967 q 638 944 589 967 q 732 878 688 922 l 683 831 q 607 881 644 865 q 521 897 569 897 q 322 811 401 897 q 207 597 243 725 q 171 340 171 468 q 227 127 171 199 q 378 56 283 56 q 483 76 438 56 q 578 135 528 96 l 617 81 q 372 -15 503 -15 q 165 78 242 -15 q 88 343 88 172 q 133 633 88 489 q 276 872 179 776 q 519 967 374 967 m 378 1058 l 344 1099 l 528 1240 l 575 1240 l 717 1097 l 681 1058 l 546 1169 l 378 1058 z "},"Ċ":{"ha":692,"x_min":88,"x_max":732,"o":"m 519 967 q 638 944 589 967 q 732 878 688 922 l 683 831 q 607 881 644 865 q 521 897 569 897 q 322 811 401 897 q 207 597 243 725 q 171 340 171 468 q 227 127 171 199 q 378 56 283 56 q 483 76 438 56 q 578 135 528 96 l 617 81 q 372 -15 503 -15 q 165 78 242 -15 q 88 343 88 172 q 133 633 88 489 q 276 872 179 776 q 519 967 374 967 m 543 1106 q 505 1119 519 1106 q 490 1157 490 1133 q 508 1201 490 1183 q 553 1219 526 1219 q 590 1205 576 1219 q 604 1168 604 1190 q 587 1124 604 1142 q 543 1106 569 1106 z "},"Ꭓ":{"ha":633,"x_min":-61,"x_max":671,"o":"m 671 951 l 369 438 l 547 -158 l 463 -158 l 318 381 l 28 -158 l -61 -158 l 276 436 l 119 951 l 204 951 l 329 490 l 581 951 l 671 951 z "},"Ƈ":{"ha":685,"x_min":88,"x_max":971,"o":"m 843 1144 q 971 1096 913 1144 l 933 1047 q 892 1072 911 1064 q 846 1079 874 1079 q 778 1052 806 1079 q 744 969 751 1025 l 732 878 l 689 835 q 608 882 647 867 q 521 897 569 897 q 322 811 401 897 q 207 597 243 725 q 171 340 171 468 q 227 127 171 199 q 378 56 283 56 q 483 76 438 56 q 578 136 528 97 l 617 81 q 372 -15 503 -15 q 165 78 242 -15 q 88 343 88 172 q 133 633 88 489 q 276 872 179 776 q 517 967 374 967 q 661 926 600 967 l 668 976 q 725 1101 679 1057 q 843 1144 771 1144 z "},"Ȼ":{"ha":692,"x_min":88,"x_max":732,"o":"m 683 831 q 596 886 639 871 l 289 75 q 378 56 331 56 q 483 76 438 56 q 578 135 528 96 l 617 81 q 372 -15 503 -15 q 263 6 313 -15 l 224 -97 l 181 -85 l 222 26 q 123 149 158 68 q 88 343 88 229 q 133 633 88 489 q 276 872 179 776 q 519 967 374 967 q 578 963 551 967 l 604 1033 l 647 1021 l 621 951 q 732 878 679 931 l 683 831 m 551 896 q 521 897 542 897 q 322 811 401 897 q 207 597 243 725 q 171 340 171 468 q 251 101 171 174 l 551 896 z "},"D":{"ha":801,"x_min":85,"x_max":746,"o":"m 403 951 q 652 876 558 951 q 746 615 746 801 q 698 311 746 450 q 544 86 650 172 q 274 0 439 0 l 85 0 l 218 951 l 403 951 m 289 883 l 175 68 l 286 68 q 506 148 421 68 q 627 352 590 228 q 664 617 664 476 q 594 826 664 769 q 407 883 525 883 l 289 883 z "},"Ǳ":{"ha":1408,"x_min":85,"x_max":1433,"o":"m 403 951 q 652 876 558 951 q 746 615 746 801 q 698 311 746 450 q 544 86 650 172 q 274 0 439 0 l 85 0 l 218 951 l 403 951 m 289 883 l 175 68 l 286 68 q 506 148 421 68 q 627 352 590 228 q 664 617 664 476 q 594 826 664 769 q 407 883 525 883 l 289 883 m 757 0 l 767 67 l 1335 881 l 926 881 l 938 951 l 1433 951 l 1424 885 l 858 71 l 1303 72 l 1282 0 l 757 0 z "},"Ǆ":{"ha":1408,"x_min":85,"x_max":1433,"o":"m 403 951 q 652 876 558 951 q 746 615 746 801 q 698 311 746 450 q 544 86 650 172 q 274 0 439 0 l 85 0 l 218 951 l 403 951 m 289 883 l 175 68 l 286 68 q 506 148 421 68 q 627 352 590 228 q 664 617 664 476 q 594 826 664 769 q 407 883 525 883 l 289 883 m 757 0 l 767 67 l 1335 881 l 926 881 l 938 951 l 1433 951 l 1424 885 l 858 71 l 1303 72 l 1282 0 l 757 0 m 1364 1231 l 1397 1192 l 1215 1050 l 1167 1050 l 1025 1193 l 1061 1231 l 1197 1121 l 1364 1231 z "},"Ɖ":{"ha":808,"x_min":47,"x_max":753,"o":"m 410 951 q 659 876 565 951 q 753 615 753 801 q 705 311 753 450 q 551 86 657 172 q 281 0 446 0 l 92 0 l 156 458 l 47 458 l 56 522 l 165 522 l 225 951 l 410 951 m 293 68 q 513 148 428 68 q 634 352 597 228 q 671 617 671 476 q 601 826 671 769 q 414 883 532 883 l 296 883 l 246 522 l 464 522 l 454 458 l 236 458 l 182 68 l 293 68 z "},"Ð":{"ha":808,"x_min":47,"x_max":753,"o":"m 410 951 q 659 876 565 951 q 753 615 753 801 q 705 311 753 450 q 551 86 657 172 q 281 0 446 0 l 92 0 l 156 458 l 47 458 l 56 522 l 165 522 l 225 951 l 410 951 m 293 68 q 513 148 428 68 q 634 352 597 228 q 671 617 671 476 q 601 826 671 769 q 414 883 532 883 l 296 883 l 246 522 l 464 522 l 454 458 l 236 458 l 182 68 l 293 68 z "},"Ď":{"ha":801,"x_min":85,"x_max":746,"o":"m 403 951 q 652 876 558 951 q 746 615 746 801 q 698 311 746 450 q 544 86 650 172 q 274 0 439 0 l 85 0 l 218 951 l 403 951 m 289 883 l 175 68 l 286 68 q 506 148 421 68 q 627 352 590 228 q 664 617 664 476 q 594 826 664 769 q 407 883 525 883 l 289 883 m 661 1231 l 694 1192 l 513 1050 l 464 1050 l 322 1193 l 358 1231 l 494 1121 l 661 1231 z "},"Ḓ":{"ha":801,"x_min":85,"x_max":746,"o":"m 403 951 q 652 876 558 951 q 746 615 746 801 q 698 311 746 450 q 544 86 650 172 q 274 0 439 0 l 85 0 l 218 951 l 403 951 m 289 883 l 175 68 l 286 68 q 506 148 421 68 q 627 352 590 228 q 664 617 664 476 q 594 826 664 769 q 407 883 525 883 l 289 883 m 133 -283 l 100 -243 l 283 -97 l 331 -97 l 472 -244 l 435 -283 l 299 -167 l 133 -283 z "},"Đ":{"ha":808,"x_min":47,"x_max":753,"o":"m 410 951 q 659 876 565 951 q 753 615 753 801 q 705 311 753 450 q 551 86 657 172 q 281 0 446 0 l 92 0 l 156 458 l 47 458 l 56 522 l 165 522 l 225 951 l 410 951 m 293 68 q 513 148 428 68 q 634 352 597 228 q 671 617 671 476 q 601 826 671 769 q 414 883 532 883 l 296 883 l 246 522 l 464 522 l 454 458 l 236 458 l 182 68 l 293 68 z "},"Ḋ":{"ha":801,"x_min":85,"x_max":746,"o":"m 403 951 q 652 876 558 951 q 746 615 746 801 q 698 311 746 450 q 544 86 650 172 q 274 0 439 0 l 85 0 l 218 951 l 403 951 m 289 883 l 175 68 l 286 68 q 506 148 421 68 q 627 352 590 228 q 664 617 664 476 q 594 826 664 769 q 407 883 525 883 l 289 883 m 499 1106 q 460 1119 475 1106 q 446 1157 446 1133 q 464 1201 446 1183 q 508 1219 482 1219 q 546 1205 532 1219 q 560 1168 560 1190 q 542 1124 560 1142 q 499 1106 525 1106 z "},"Ḍ":{"ha":801,"x_min":85,"x_max":746,"o":"m 403 951 q 652 876 558 951 q 746 615 746 801 q 698 311 746 450 q 544 86 650 172 q 274 0 439 0 l 85 0 l 218 951 l 403 951 m 289 883 l 175 68 l 286 68 q 506 148 421 68 q 627 352 590 228 q 664 617 664 476 q 594 826 664 769 q 407 883 525 883 l 289 883 m 299 -121 q 337 -135 322 -121 q 351 -172 351 -149 q 333 -217 351 -199 q 289 -235 315 -235 q 251 -220 265 -235 q 238 -183 238 -206 q 255 -139 238 -157 q 299 -121 272 -121 z "},"Ɗ":{"ha":882,"x_min":79,"x_max":826,"o":"m 483 951 q 733 876 639 951 q 826 615 826 801 q 778 311 826 450 q 625 86 731 172 q 354 0 519 0 l 165 0 l 289 885 l 256 885 q 178 856 204 885 q 153 776 153 826 q 171 690 153 736 l 110 664 q 79 779 79 719 q 127 903 79 856 q 263 951 175 951 l 483 951 m 367 68 q 586 148 501 68 q 708 352 671 228 q 744 617 744 476 q 675 826 744 769 q 488 883 606 883 l 369 883 l 256 68 l 367 68 z "},"Ḏ":{"ha":801,"x_min":85,"x_max":746,"o":"m 403 951 q 652 876 558 951 q 746 615 746 801 q 698 311 746 450 q 544 86 650 172 q 274 0 439 0 l 85 0 l 218 951 l 403 951 m 289 883 l 175 68 l 286 68 q 506 148 421 68 q 627 352 590 228 q 664 617 664 476 q 594 826 664 769 q 407 883 525 883 l 289 883 m 151 -156 l 454 -156 l 444 -219 l 142 -219 l 151 -156 z "},"Ƌ":{"ha":713,"x_min":42,"x_max":660,"o":"m 526 0 l 322 0 q 116 63 190 0 q 42 256 42 125 q 136 494 42 408 q 393 579 231 579 l 526 579 l 569 882 l 218 882 l 226 951 l 660 951 l 526 0 m 456 68 l 518 513 l 386 513 q 193 445 261 513 q 125 256 125 378 q 175 113 125 158 q 329 68 225 68 l 456 68 z "},"ǲ":{"ha":1314,"x_min":85,"x_max":1324,"o":"m 403 951 q 652 876 558 951 q 746 615 746 801 q 698 311 746 450 q 544 86 650 172 q 274 0 439 0 l 85 0 l 218 951 l 403 951 m 289 883 l 175 68 l 286 68 q 506 148 421 68 q 627 352 590 228 q 664 617 664 476 q 594 826 664 769 q 407 883 525 883 l 289 883 m 1324 726 l 1315 665 l 872 68 l 1229 68 l 1211 0 l 769 0 l 778 61 l 1221 658 l 892 658 l 903 726 l 1324 726 z "},"ǅ":{"ha":1314,"x_min":85,"x_max":1338,"o":"m 403 951 q 652 876 558 951 q 746 615 746 801 q 698 311 746 450 q 544 86 650 172 q 274 0 439 0 l 85 0 l 218 951 l 403 951 m 289 883 l 175 68 l 286 68 q 506 148 421 68 q 627 352 590 228 q 664 617 664 476 q 594 826 664 769 q 407 883 525 883 l 289 883 m 1324 726 l 1315 665 l 872 68 l 1229 68 l 1211 0 l 769 0 l 778 61 l 1221 658 l 892 658 l 903 726 l 1324 726 m 1306 1065 l 1338 1026 l 1156 879 l 1107 879 l 965 1026 l 1003 1065 l 1136 950 l 1306 1065 z "},"E":{"ha":636,"x_min":85,"x_max":656,"o":"m 656 951 l 636 883 l 289 883 l 240 526 l 540 526 l 531 460 l 231 460 l 175 68 l 540 68 l 529 0 l 85 0 l 218 951 l 656 951 z "},"É":{"ha":636,"x_min":85,"x_max":656,"o":"m 656 951 l 636 883 l 289 883 l 240 526 l 540 526 l 531 460 l 231 460 l 175 68 l 540 68 l 529 0 l 85 0 l 218 951 l 656 951 m 571 1228 l 601 1157 l 340 1053 l 319 1097 l 571 1228 z "},"Ĕ":{"ha":636,"x_min":85,"x_max":656,"o":"m 656 951 l 636 883 l 289 883 l 240 526 l 540 526 l 531 460 l 231 460 l 175 68 l 540 68 l 529 0 l 85 0 l 218 951 l 656 951 m 456 1063 q 347 1102 388 1063 q 308 1203 307 1142 l 358 1210 q 457 1126 375 1126 q 533 1150 501 1126 q 583 1214 565 1174 l 636 1197 q 570 1100 619 1138 q 456 1063 521 1063 z "},"Ě":{"ha":636,"x_min":85,"x_max":663,"o":"m 656 951 l 636 883 l 289 883 l 240 526 l 540 526 l 531 460 l 231 460 l 175 68 l 540 68 l 529 0 l 85 0 l 218 951 l 656 951 m 629 1231 l 663 1192 l 481 1050 l 432 1050 l 290 1193 l 326 1231 l 463 1121 l 629 1231 z "},"Ȩ":{"ha":636,"x_min":85,"x_max":656,"o":"m 289 883 l 240 526 l 540 526 l 531 460 l 231 460 l 175 68 l 540 68 l 529 0 l 331 0 l 315 -90 q 419 -189 419 -100 q 379 -279 419 -243 q 272 -315 339 -315 q 172 -283 215 -315 l 200 -239 q 274 -258 236 -258 q 330 -241 308 -258 q 351 -192 351 -224 q 329 -147 351 -160 q 250 -133 307 -133 l 279 0 l 85 0 l 218 951 l 656 951 l 636 883 l 289 883 z "},"Ê":{"ha":636,"x_min":85,"x_max":656,"o":"m 656 951 l 636 883 l 289 883 l 240 526 l 540 526 l 531 460 l 231 460 l 175 68 l 540 68 l 529 0 l 85 0 l 218 951 l 656 951 m 301 1058 l 268 1099 l 451 1240 l 499 1240 l 640 1097 l 604 1058 l 469 1169 l 301 1058 z "},"Ế":{"ha":636,"x_min":85,"x_max":771,"o":"m 724 1374 l 771 1325 l 594 1157 l 563 1188 l 724 1374 m 296 1011 l 263 1051 l 446 1193 l 493 1193 l 635 1050 l 599 1011 l 464 1122 l 296 1011 m 656 951 l 636 883 l 289 883 l 240 526 l 540 526 l 531 460 l 231 460 l 175 68 l 540 68 l 529 0 l 85 0 l 218 951 l 656 951 z "},"Ệ":{"ha":636,"x_min":85,"x_max":656,"o":"m 656 951 l 636 883 l 289 883 l 240 526 l 540 526 l 531 460 l 231 460 l 175 68 l 540 68 l 529 0 l 85 0 l 218 951 l 656 951 m 301 1058 l 268 1099 l 451 1240 l 499 1240 l 640 1097 l 604 1058 l 469 1169 l 301 1058 m 286 -121 q 324 -135 310 -121 q 339 -172 339 -149 q 321 -217 339 -199 q 276 -235 303 -235 q 239 -220 253 -235 q 225 -183 225 -206 q 242 -139 225 -157 q 286 -121 260 -121 z "},"Ề":{"ha":636,"x_min":85,"x_max":656,"o":"m 249 1372 l 360 1183 l 322 1157 l 192 1329 l 249 1372 m 293 1011 l 260 1051 l 443 1193 l 490 1193 l 632 1050 l 596 1011 l 461 1122 l 293 1011 m 656 951 l 636 883 l 289 883 l 240 526 l 540 526 l 531 460 l 231 460 l 175 68 l 540 68 l 529 0 l 85 0 l 218 951 l 656 951 z "},"Ể":{"ha":636,"x_min":85,"x_max":765,"o":"m 656 951 l 636 883 l 289 883 l 240 526 l 540 526 l 531 460 l 231 460 l 175 68 l 540 68 l 529 0 l 85 0 l 218 951 l 656 951 m 294 1011 l 261 1051 l 444 1193 l 492 1193 l 633 1050 l 597 1011 l 463 1122 l 294 1011 m 596 1229 q 668 1250 642 1233 q 694 1304 694 1267 q 646 1351 694 1351 q 611 1347 626 1351 q 572 1332 596 1342 l 554 1382 q 656 1410 606 1410 q 735 1381 706 1410 q 765 1306 765 1353 q 736 1228 765 1257 q 656 1192 707 1199 l 647 1128 l 585 1128 l 596 1229 z "},"Ễ":{"ha":636,"x_min":85,"x_max":674,"o":"m 551 1238 q 507 1247 526 1238 q 467 1274 488 1257 q 435 1294 449 1288 q 408 1300 422 1300 q 370 1287 386 1300 q 331 1243 354 1274 l 288 1272 q 410 1363 346 1363 q 451 1353 433 1363 q 492 1328 469 1344 q 524 1306 513 1313 q 551 1300 536 1300 q 589 1314 571 1300 q 629 1360 607 1328 l 674 1333 q 551 1238 619 1238 m 293 1011 l 260 1051 l 443 1193 l 490 1193 l 632 1050 l 596 1011 l 461 1122 l 293 1011 m 656 951 l 636 883 l 289 883 l 240 526 l 540 526 l 531 460 l 231 460 l 175 68 l 540 68 l 529 0 l 85 0 l 218 951 l 656 951 z "},"Ȅ":{"ha":636,"x_min":85,"x_max":656,"o":"m 656 951 l 636 883 l 289 883 l 240 526 l 540 526 l 531 460 l 231 460 l 175 68 l 540 68 l 529 0 l 85 0 l 218 951 l 656 951 m 338 1300 l 408 1089 l 354 1068 l 263 1267 l 338 1300 m 500 1300 l 563 1094 l 508 1074 l 425 1265 l 500 1300 z "},"Ë":{"ha":636,"x_min":85,"x_max":656,"o":"m 656 951 l 636 883 l 289 883 l 240 526 l 540 526 l 531 460 l 231 460 l 175 68 l 540 68 l 529 0 l 85 0 l 218 951 l 656 951 m 346 1097 q 311 1110 324 1097 q 299 1143 299 1124 q 315 1186 299 1169 q 356 1203 332 1203 q 390 1190 376 1203 q 404 1156 404 1176 q 388 1114 404 1131 q 346 1097 371 1097 m 583 1097 q 549 1110 563 1097 q 536 1143 536 1124 q 553 1186 536 1169 q 594 1203 569 1203 q 628 1189 615 1203 q 642 1156 642 1175 q 625 1114 642 1131 q 583 1097 608 1097 z "},"Ė":{"ha":636,"x_min":85,"x_max":656,"o":"m 656 951 l 636 883 l 289 883 l 240 526 l 540 526 l 531 460 l 231 460 l 175 68 l 540 68 l 529 0 l 85 0 l 218 951 l 656 951 m 467 1106 q 428 1119 443 1106 q 414 1157 414 1133 q 432 1201 414 1183 q 476 1219 450 1219 q 514 1205 500 1219 q 528 1168 528 1190 q 510 1124 528 1142 q 467 1106 493 1106 z "},"Ẹ":{"ha":636,"x_min":85,"x_max":656,"o":"m 656 951 l 636 883 l 289 883 l 240 526 l 540 526 l 531 460 l 231 460 l 175 68 l 540 68 l 529 0 l 85 0 l 218 951 l 656 951 m 286 -121 q 324 -135 310 -121 q 339 -172 339 -149 q 321 -217 339 -199 q 276 -235 303 -235 q 239 -220 253 -235 q 225 -183 225 -206 q 242 -139 225 -157 q 286 -121 260 -121 z "},"È":{"ha":636,"x_min":85,"x_max":656,"o":"m 656 951 l 636 883 l 289 883 l 240 526 l 540 526 l 531 460 l 231 460 l 175 68 l 540 68 l 529 0 l 85 0 l 218 951 l 656 951 m 383 1226 l 600 1097 l 572 1053 l 343 1157 l 383 1226 z "},"Ẻ":{"ha":636,"x_min":85,"x_max":656,"o":"m 656 951 l 636 883 l 289 883 l 240 526 l 540 526 l 531 460 l 231 460 l 175 68 l 540 68 l 529 0 l 85 0 l 218 951 l 656 951 m 439 1176 q 511 1197 485 1181 q 538 1251 538 1214 q 489 1299 538 1299 q 454 1294 469 1299 q 415 1279 439 1289 l 397 1329 q 499 1357 449 1357 q 578 1328 549 1357 q 608 1253 608 1300 q 579 1175 608 1204 q 499 1139 550 1146 l 490 1075 l 428 1075 l 439 1176 z "},"Ȇ":{"ha":636,"x_min":85,"x_max":656,"o":"m 656 951 l 636 883 l 289 883 l 240 526 l 540 526 l 531 460 l 231 460 l 175 68 l 540 68 l 529 0 l 85 0 l 218 951 l 656 951 m 294 1106 q 362 1215 313 1175 q 476 1256 411 1256 q 585 1213 544 1256 q 624 1100 625 1169 l 571 1093 q 474 1190 561 1190 q 344 1089 383 1190 l 294 1106 z "},"Ē":{"ha":636,"x_min":85,"x_max":656,"o":"m 656 951 l 636 883 l 289 883 l 240 526 l 540 526 l 531 460 l 231 460 l 175 68 l 540 68 l 529 0 l 85 0 l 218 951 l 656 951 m 615 1114 l 313 1114 l 322 1178 l 625 1178 l 615 1114 z "},"Ę":{"ha":636,"x_min":85,"x_max":656,"o":"m 289 883 l 240 526 l 540 526 l 531 460 l 231 460 l 175 68 l 540 68 l 529 0 l 492 0 q 354 -85 394 -44 q 314 -176 314 -126 q 331 -221 314 -206 q 382 -236 349 -236 q 456 -228 413 -236 l 440 -293 q 371 -301 403 -301 q 277 -270 311 -301 q 243 -186 243 -239 q 278 -83 243 -128 q 392 0 313 -39 l 85 0 l 218 951 l 656 951 l 636 883 l 289 883 z "},"Ɛ":{"ha":654,"x_min":53,"x_max":683,"o":"m 438 967 q 575 938 517 967 q 683 849 633 908 l 632 803 q 544 874 590 850 q 438 897 497 897 q 291 840 346 897 q 236 692 236 782 q 280 583 236 621 q 401 544 324 544 l 472 544 l 453 475 l 390 475 q 206 410 274 476 q 138 231 138 344 q 183 101 138 146 q 311 56 229 56 q 546 161 436 56 l 590 111 q 306 -15 464 -15 q 122 51 192 -15 q 53 229 53 117 q 121 426 53 349 q 296 514 189 503 q 192 576 229 531 q 154 692 154 621 q 191 833 154 771 q 292 931 228 896 q 438 967 357 967 z "},"Ǝ":{"ha":638,"x_min":4,"x_max":583,"o":"m 146 951 l 583 951 l 450 0 l 4 0 l 14 68 l 379 68 l 435 460 l 132 460 l 142 526 l 443 526 l 493 883 l 136 883 l 146 951 z "},"Ʃ":{"ha":624,"x_min":10,"x_max":646,"o":"m 646 951 l 638 882 l 228 882 l 438 489 l 433 443 l 119 69 l 522 69 l 513 0 l 10 0 l 17 58 l 363 472 l 135 893 l 142 951 l 646 951 z "},"Ɇ":{"ha":636,"x_min":85,"x_max":656,"o":"m 636 883 l 571 883 l 436 526 l 540 526 l 531 460 l 410 460 l 261 68 l 540 68 l 529 0 l 236 0 l 199 -97 l 156 -85 l 188 0 l 85 0 l 218 951 l 550 951 l 581 1033 l 624 1021 l 597 951 l 656 951 l 636 883 m 388 526 l 524 883 l 289 883 l 240 526 l 388 526 m 214 68 l 363 460 l 231 460 l 175 68 l 214 68 z "},"Ẽ":{"ha":636,"x_min":85,"x_max":665,"o":"m 656 951 l 636 883 l 289 883 l 240 526 l 540 526 l 531 460 l 231 460 l 175 68 l 540 68 l 529 0 l 85 0 l 218 951 l 656 951 m 543 1101 q 499 1111 518 1101 q 458 1138 479 1121 q 427 1158 440 1151 q 400 1164 414 1164 q 362 1151 378 1164 q 322 1107 346 1138 l 279 1136 q 401 1226 338 1226 q 443 1217 425 1226 q 483 1192 461 1208 q 516 1170 504 1176 q 543 1164 528 1164 q 581 1178 563 1164 q 621 1224 599 1192 l 665 1197 q 543 1101 611 1101 z "},"Ʒ":{"ha":615,"x_min":-18,"x_max":608,"o":"m 600 885 l 271 536 l 290 536 q 484 478 419 536 q 549 313 549 419 q 507 142 549 217 q 392 26 465 68 q 226 -15 318 -15 q 83 15 140 -15 q -18 107 25 46 l 35 149 q 117 76 74 99 q 226 54 161 54 q 400 125 335 54 q 465 311 465 196 q 418 433 465 396 q 279 471 371 471 l 171 471 l 172 472 l 181 535 l 501 883 l 119 883 l 129 951 l 608 951 l 600 885 z "},"Ǯ":{"ha":615,"x_min":-18,"x_max":608,"o":"m 600 885 l 271 536 l 290 536 q 484 478 419 536 q 549 313 549 419 q 507 142 549 217 q 392 26 465 68 q 226 -15 318 -15 q 83 15 140 -15 q -18 107 25 46 l 35 149 q 117 76 74 99 q 226 54 161 54 q 400 125 335 54 q 465 311 465 196 q 418 433 465 396 q 279 471 371 471 l 171 471 l 172 472 l 181 535 l 501 883 l 119 883 l 129 951 l 608 951 l 600 885 m 557 1231 l 590 1192 l 408 1050 l 360 1050 l 218 1193 l 254 1231 l 390 1121 l 557 1231 z "},"Ƹ":{"ha":617,"x_min":40,"x_max":650,"o":"m 640 883 l 251 883 l 481 535 l 472 471 l 369 471 q 188 405 253 471 q 122 226 122 339 q 166 99 122 144 q 290 54 210 54 q 412 77 360 54 q 518 150 464 100 l 563 103 q 438 14 503 43 q 286 -15 372 -15 q 107 51 174 -15 q 40 225 40 117 q 81 389 40 318 q 194 498 121 460 q 363 536 267 536 l 401 536 l 163 885 l 172 951 l 650 951 l 640 883 z "},"F":{"ha":597,"x_min":85,"x_max":647,"o":"m 647 951 l 628 883 l 289 883 l 238 510 l 531 510 l 521 443 l 228 443 l 165 0 l 85 0 l 218 951 l 647 951 z "},"Ḟ":{"ha":597,"x_min":85,"x_max":647,"o":"m 647 951 l 628 883 l 289 883 l 238 510 l 531 510 l 521 443 l 228 443 l 165 0 l 85 0 l 218 951 l 647 951 m 458 1106 q 420 1119 435 1106 q 406 1157 406 1133 q 424 1201 406 1183 q 468 1219 442 1219 q 506 1205 492 1219 q 519 1168 519 1190 q 502 1124 519 1142 q 458 1106 485 1106 z "},"Ƒ":{"ha":597,"x_min":-158,"x_max":647,"o":"m 289 883 l 238 510 l 531 510 l 521 443 l 228 443 l 165 0 l 149 -110 q 88 -240 136 -196 q -32 -285 39 -285 q -158 -236 -104 -285 l -121 -186 q -80 -209 -99 -201 q -35 -217 -61 -217 q 33 -190 6 -217 q 69 -106 61 -162 l 85 0 l 218 951 l 647 951 l 628 883 l 289 883 z "},"G":{"ha":775,"x_min":88,"x_max":757,"o":"m 528 967 q 655 943 600 967 q 757 871 710 919 l 706 825 q 624 881 665 864 q 526 897 582 897 q 330 815 410 897 q 210 603 250 733 q 171 331 171 474 q 226 123 171 192 q 386 54 282 54 q 574 104 481 54 l 621 443 l 458 443 l 458 513 l 711 513 l 649 65 q 379 -15 521 -15 q 165 75 242 -15 q 88 338 88 165 q 138 640 88 496 q 288 876 188 785 q 528 967 388 967 z "},"Ǵ":{"ha":775,"x_min":88,"x_max":757,"o":"m 528 967 q 655 943 600 967 q 757 871 710 919 l 706 825 q 624 881 665 864 q 526 897 582 897 q 330 815 410 897 q 210 603 250 733 q 171 331 171 474 q 226 123 171 192 q 386 54 282 54 q 574 104 481 54 l 621 443 l 458 443 l 458 513 l 711 513 l 649 65 q 379 -15 521 -15 q 165 75 242 -15 q 88 338 88 165 q 138 640 88 496 q 288 876 188 785 q 528 967 388 967 m 657 1228 l 688 1157 l 426 1053 l 406 1097 l 657 1228 z "},"Ɣ":{"ha":690,"x_min":106,"x_max":750,"o":"m 351 82 q 386 -41 376 4 q 396 -129 396 -86 q 358 -243 396 -201 q 257 -285 319 -285 q 178 -256 206 -285 q 150 -176 150 -226 q 176 -68 150 -126 q 260 86 201 -10 l 106 951 l 189 951 l 313 144 l 665 951 l 750 951 l 351 82 m 322 -131 q 317 -62 322 -97 q 297 29 311 -28 q 241 -86 260 -37 q 222 -172 222 -135 q 261 -219 222 -219 q 306 -196 290 -219 q 322 -131 322 -172 z "},"Ğ":{"ha":775,"x_min":88,"x_max":757,"o":"m 528 967 q 655 943 600 967 q 757 871 710 919 l 706 825 q 624 881 665 864 q 526 897 582 897 q 330 815 410 897 q 210 603 250 733 q 171 331 171 474 q 226 123 171 192 q 386 54 282 54 q 574 104 481 54 l 621 443 l 458 443 l 458 513 l 711 513 l 649 65 q 379 -15 521 -15 q 165 75 242 -15 q 88 338 88 165 q 138 640 88 496 q 288 876 188 785 q 528 967 388 967 m 542 1063 q 433 1102 474 1063 q 394 1203 393 1142 l 444 1210 q 543 1126 461 1126 q 619 1150 588 1126 q 669 1214 651 1174 l 722 1197 q 656 1100 706 1138 q 542 1063 607 1063 z "},"Ǧ":{"ha":775,"x_min":88,"x_max":757,"o":"m 528 967 q 655 943 600 967 q 757 871 710 919 l 706 825 q 624 881 665 864 q 526 897 582 897 q 330 815 410 897 q 210 603 250 733 q 171 331 171 474 q 226 123 171 192 q 386 54 282 54 q 574 104 481 54 l 621 443 l 458 443 l 458 513 l 711 513 l 649 65 q 379 -15 521 -15 q 165 75 242 -15 q 88 338 88 165 q 138 640 88 496 q 288 876 188 785 q 528 967 388 967 m 715 1231 l 749 1192 l 567 1050 l 518 1050 l 376 1193 l 413 1231 l 549 1121 l 715 1231 z "},"Ĝ":{"ha":775,"x_min":88,"x_max":757,"o":"m 528 967 q 655 943 600 967 q 757 871 710 919 l 706 825 q 624 881 665 864 q 526 897 582 897 q 330 815 410 897 q 210 603 250 733 q 171 331 171 474 q 226 123 171 192 q 386 54 282 54 q 574 104 481 54 l 621 443 l 458 443 l 458 513 l 711 513 l 649 65 q 379 -15 521 -15 q 165 75 242 -15 q 88 338 88 165 q 138 640 88 496 q 288 876 188 785 q 528 967 388 967 m 388 1058 l 354 1099 l 538 1240 l 585 1240 l 726 1097 l 690 1058 l 556 1169 l 388 1058 z "},"Ģ":{"ha":775,"x_min":88,"x_max":757,"o":"m 528 967 q 655 943 600 967 q 757 871 710 919 l 706 825 q 624 881 665 864 q 526 897 582 897 q 330 815 410 897 q 210 603 250 733 q 171 331 171 474 q 226 123 171 192 q 386 54 282 54 q 574 104 481 54 l 621 443 l 458 443 l 458 513 l 711 513 l 649 65 q 379 -15 521 -15 q 165 75 242 -15 q 88 338 88 165 q 138 640 88 496 q 288 876 188 785 q 528 967 388 967 m 357 -118 q 397 -133 382 -118 q 411 -171 411 -149 q 403 -208 411 -190 q 374 -264 396 -226 l 303 -386 l 256 -386 l 319 -226 q 296 -181 296 -210 q 313 -136 296 -154 q 357 -118 331 -118 z "},"Ġ":{"ha":775,"x_min":88,"x_max":757,"o":"m 528 967 q 655 943 600 967 q 757 871 710 919 l 706 825 q 624 881 665 864 q 526 897 582 897 q 330 815 410 897 q 210 603 250 733 q 171 331 171 474 q 226 123 171 192 q 386 54 282 54 q 574 104 481 54 l 621 443 l 458 443 l 458 513 l 711 513 l 649 65 q 379 -15 521 -15 q 165 75 242 -15 q 88 338 88 165 q 138 640 88 496 q 288 876 188 785 q 528 967 388 967 m 553 1106 q 515 1119 529 1106 q 500 1157 500 1133 q 518 1201 500 1183 q 563 1219 536 1219 q 600 1205 586 1219 q 614 1168 614 1190 q 597 1124 614 1142 q 553 1106 579 1106 z "},"Ɠ":{"ha":713,"x_min":88,"x_max":999,"o":"m 871 1144 q 999 1096 940 1144 l 961 1047 q 921 1071 940 1063 q 874 1079 901 1079 q 806 1051 833 1079 q 771 964 779 1024 l 758 871 l 713 831 q 625 881 668 865 q 526 897 582 897 q 330 815 410 897 q 210 603 250 733 q 171 331 171 474 q 226 123 171 192 q 388 54 282 54 q 574 104 481 54 l 621 443 l 458 443 l 460 513 l 711 513 l 649 65 q 381 -15 521 -15 q 165 75 242 -15 q 88 338 88 165 q 138 640 88 496 q 287 876 188 785 q 526 967 386 967 q 688 921 619 967 l 694 971 q 753 1100 707 1056 q 871 1144 799 1144 z "},"Ɂ":{"ha":579,"x_min":88,"x_max":589,"o":"m 206 422 l 292 447 q 451 543 399 476 q 504 722 504 610 q 464 851 504 806 q 347 897 424 897 q 238 873 290 897 q 128 800 185 849 l 88 851 q 215 938 150 908 q 354 967 281 967 q 526 901 464 967 q 589 726 589 835 q 522 508 589 589 q 326 392 454 426 l 279 378 l 226 0 l 146 0 l 206 422 z "},"Ǥ":{"ha":786,"x_min":88,"x_max":779,"o":"m 769 267 l 676 267 l 649 65 q 379 -15 521 -15 q 165 75 242 -15 q 88 338 88 165 q 138 640 88 496 q 288 876 188 785 q 528 967 388 967 q 655 943 600 967 q 757 871 710 919 l 706 825 q 624 881 665 864 q 526 897 582 897 q 330 815 410 897 q 210 603 250 733 q 171 331 171 474 q 226 123 171 192 q 386 54 282 54 q 574 106 482 54 l 596 267 l 438 267 l 447 335 l 606 335 l 621 443 l 458 443 l 458 513 l 711 513 l 686 335 l 779 335 l 769 267 z "},"Ȝ":{"ha":621,"x_min":0,"x_max":586,"o":"m 369 967 q 528 910 469 967 q 586 758 586 854 q 531 589 586 653 q 378 499 476 525 q 499 444 454 489 q 543 318 543 400 q 397 34 543 139 q 1 -124 250 -71 l 0 -57 q 336 82 215 -4 q 457 315 457 168 q 412 426 457 390 q 274 461 367 463 l 196 461 l 217 531 l 279 531 q 440 592 378 531 q 503 751 503 653 q 467 860 503 822 q 363 897 431 897 q 248 873 301 897 q 135 801 194 849 l 96 851 q 228 938 163 910 q 369 967 294 967 z "},"H":{"ha":835,"x_min":85,"x_max":782,"o":"m 165 0 l 85 0 l 218 951 l 299 951 l 240 535 l 643 535 l 701 951 l 782 951 l 647 0 l 567 0 l 633 467 l 231 467 l 165 0 z "},"Ħ":{"ha":835,"x_min":86,"x_max":836,"o":"m 836 774 l 828 714 l 750 714 l 649 0 l 568 0 l 635 467 l 232 467 l 167 0 l 86 0 l 186 714 l 106 714 l 114 774 l 194 774 l 219 951 l 300 951 l 275 774 l 678 774 l 703 951 l 783 951 l 758 774 l 836 774 m 644 535 l 669 714 l 267 714 l 242 535 l 644 535 z "},"Ȟ":{"ha":835,"x_min":85,"x_max":782,"o":"m 165 0 l 85 0 l 218 951 l 299 951 l 240 535 l 643 535 l 701 951 l 782 951 l 647 0 l 567 0 l 633 467 l 231 467 l 165 0 m 686 1231 l 719 1192 l 538 1050 l 489 1050 l 347 1193 l 383 1231 l 519 1121 l 686 1231 z "},"Ĥ":{"ha":835,"x_min":85,"x_max":782,"o":"m 165 0 l 85 0 l 218 951 l 299 951 l 240 535 l 643 535 l 701 951 l 782 951 l 647 0 l 567 0 l 633 467 l 231 467 l 165 0 m 358 1058 l 325 1099 l 508 1240 l 556 1240 l 697 1097 l 661 1058 l 526 1169 l 358 1058 z "},"Ḥ":{"ha":835,"x_min":85,"x_max":782,"o":"m 165 0 l 85 0 l 218 951 l 299 951 l 240 535 l 643 535 l 701 951 l 782 951 l 647 0 l 567 0 l 633 467 l 231 467 l 165 0 m 347 -121 q 385 -135 371 -121 q 400 -172 400 -149 q 382 -217 400 -199 q 338 -235 364 -235 q 300 -220 314 -235 q 286 -183 286 -206 q 303 -139 286 -157 q 347 -121 321 -121 z "},"Ɦ":{"ha":915,"x_min":79,"x_max":863,"o":"m 863 951 l 728 0 l 647 0 l 714 467 l 311 467 l 246 0 l 165 0 l 289 885 l 256 885 q 178 856 204 885 q 153 776 153 826 q 171 690 153 736 l 110 664 q 79 779 79 719 q 127 903 79 856 q 263 951 175 951 l 379 951 l 321 535 l 724 535 l 782 951 l 863 951 z "},"Ɥ":{"ha":746,"x_min":86,"x_max":692,"o":"m 692 951 l 558 0 l 478 0 l 535 406 q 422 334 479 358 q 300 310 365 310 q 144 368 201 310 q 86 522 86 426 q 89 569 86 553 l 143 951 l 222 951 l 169 571 q 167 531 167 543 q 206 419 167 458 q 318 381 244 381 q 442 410 383 381 q 546 489 501 440 l 611 951 l 692 951 z "},"Ƕ":{"ha":1201,"x_min":85,"x_max":1115,"o":"m 785 -15 q 644 38 693 -15 q 594 172 594 90 q 597 210 594 185 l 633 467 l 231 467 l 165 0 l 85 0 l 218 951 l 299 951 l 240 535 l 643 535 l 701 951 l 782 951 l 678 210 q 675 172 675 182 q 705 83 675 114 q 790 51 735 51 q 985 213 932 51 q 1039 599 1039 375 q 1035 726 1039 667 l 1110 726 q 1115 594 1115 640 q 1041 158 1115 332 q 785 -15 967 -15 z "},"I":{"ha":353,"x_min":85,"x_max":299,"o":"m 299 951 l 165 0 l 85 0 l 218 951 l 299 951 z "},"Ĳ":{"ha":721,"x_min":85,"x_max":674,"o":"m 299 951 l 165 0 l 85 0 l 218 951 l 299 951 m 557 124 q 519 -13 546 39 q 446 -99 492 -65 q 321 -165 400 -132 l 303 -106 q 399 -46 365 -75 q 451 24 433 -17 q 478 132 468 65 l 593 951 l 674 951 l 557 124 z "},"Í":{"ha":353,"x_min":85,"x_max":419,"o":"m 299 951 l 165 0 l 85 0 l 218 951 l 299 951 m 389 1228 l 419 1157 l 158 1053 l 138 1097 l 389 1228 z "},"Ĭ":{"ha":353,"x_min":85,"x_max":454,"o":"m 299 951 l 165 0 l 85 0 l 218 951 l 299 951 m 274 1063 q 165 1102 206 1063 q 126 1203 125 1142 l 176 1210 q 275 1126 193 1126 q 351 1150 319 1126 q 401 1214 383 1174 l 454 1197 q 388 1100 438 1138 q 274 1063 339 1063 z "},"Ǐ":{"ha":353,"x_min":85,"x_max":481,"o":"m 299 951 l 165 0 l 85 0 l 218 951 l 299 951 m 447 1231 l 481 1192 l 299 1050 l 250 1050 l 108 1193 l 144 1231 l 281 1121 l 447 1231 z "},"Î":{"ha":353,"x_min":85,"x_max":458,"o":"m 299 951 l 165 0 l 85 0 l 218 951 l 299 951 m 119 1058 l 86 1099 l 269 1240 l 317 1240 l 458 1097 l 422 1058 l 288 1169 l 119 1058 z "},"Ȉ":{"ha":353,"x_min":81,"x_max":381,"o":"m 299 951 l 165 0 l 85 0 l 218 951 l 299 951 m 156 1300 l 226 1089 l 172 1068 l 81 1267 l 156 1300 m 318 1300 l 381 1094 l 326 1074 l 243 1265 l 318 1300 z "},"Ï":{"ha":353,"x_min":85,"x_max":460,"o":"m 299 951 l 165 0 l 85 0 l 218 951 l 299 951 m 164 1097 q 129 1110 142 1097 q 117 1143 117 1124 q 133 1186 117 1169 q 174 1203 150 1203 q 208 1190 194 1203 q 222 1156 222 1176 q 206 1114 222 1131 q 164 1097 189 1097 m 401 1097 q 367 1110 381 1097 q 354 1143 354 1124 q 371 1186 354 1169 q 413 1203 388 1203 q 447 1189 433 1203 q 460 1156 460 1175 q 443 1114 460 1131 q 401 1097 426 1097 z "},"Ḯ":{"ha":353,"x_min":85,"x_max":454,"o":"m 299 951 l 165 0 l 85 0 l 218 951 l 299 951 m 407 1347 l 454 1299 l 278 1131 l 246 1161 l 407 1347 m 149 1035 q 115 1048 128 1035 q 101 1082 101 1061 q 118 1124 101 1107 q 160 1140 135 1140 q 194 1127 181 1140 q 207 1094 207 1114 q 190 1051 207 1068 q 149 1035 174 1035 m 386 1035 q 352 1048 365 1035 q 339 1082 339 1061 q 356 1124 339 1107 q 397 1140 372 1140 q 431 1127 418 1140 q 444 1094 444 1114 q 428 1051 444 1068 q 386 1035 411 1035 z "},"İ":{"ha":353,"x_min":85,"x_max":346,"o":"m 299 951 l 165 0 l 85 0 l 218 951 l 299 951 m 285 1106 q 247 1119 261 1106 q 232 1157 232 1133 q 250 1201 232 1183 q 294 1219 268 1219 q 332 1205 318 1219 q 346 1168 346 1190 q 328 1124 346 1142 q 285 1106 311 1106 z "},"Ị":{"ha":353,"x_min":44,"x_max":299,"o":"m 299 951 l 165 0 l 85 0 l 218 951 l 299 951 m 106 -121 q 144 -135 129 -121 q 158 -172 158 -149 q 140 -217 158 -199 q 96 -235 122 -235 q 58 -220 72 -235 q 44 -183 44 -206 q 62 -139 44 -157 q 106 -121 79 -121 z "},"Ì":{"ha":353,"x_min":85,"x_max":418,"o":"m 299 951 l 165 0 l 85 0 l 218 951 l 299 951 m 201 1226 l 418 1097 l 390 1053 l 161 1157 l 201 1226 z "},"Ỉ":{"ha":353,"x_min":85,"x_max":426,"o":"m 299 951 l 165 0 l 85 0 l 218 951 l 299 951 m 257 1176 q 329 1197 303 1181 q 356 1251 356 1214 q 307 1299 356 1299 q 272 1294 288 1299 q 233 1279 257 1289 l 215 1329 q 317 1357 267 1357 q 397 1328 367 1357 q 426 1253 426 1300 q 397 1175 426 1204 q 317 1139 368 1146 l 308 1075 l 246 1075 l 257 1176 z "},"Ȋ":{"ha":353,"x_min":85,"x_max":442,"o":"m 299 951 l 165 0 l 85 0 l 218 951 l 299 951 m 113 1106 q 180 1215 131 1175 q 294 1256 229 1256 q 403 1213 363 1256 q 442 1100 443 1169 l 389 1093 q 292 1190 379 1190 q 163 1089 201 1190 l 113 1106 z "},"Ī":{"ha":353,"x_min":85,"x_max":443,"o":"m 299 951 l 165 0 l 85 0 l 218 951 l 299 951 m 433 1114 l 131 1114 l 140 1178 l 443 1178 l 433 1114 z "},"Į":{"ha":353,"x_min":-94,"x_max":299,"o":"m 299 951 l 165 0 l 154 0 q 17 -85 57 -44 q -24 -176 -24 -126 q -6 -221 -24 -206 q 44 -236 11 -236 q 118 -228 75 -236 l 103 -293 q 33 -301 65 -301 q -60 -270 -26 -301 q -94 -186 -94 -239 q -53 -75 -94 -124 q 86 15 -11 -26 l 218 951 l 299 951 z "},"Ɩ":{"ha":417,"x_min":92,"x_max":365,"o":"m 365 31 q 232 -15 303 -15 q 129 21 167 -15 q 92 125 92 57 q 94 164 92 136 l 108 269 l 206 951 l 285 951 l 189 269 l 174 157 q 172 129 172 147 q 239 53 172 53 q 290 60 268 53 q 335 83 311 68 l 365 31 z "},"Ɨ":{"ha":394,"x_min":44,"x_max":386,"o":"m 386 535 l 378 467 l 256 467 l 190 0 l 110 0 l 175 467 l 44 467 l 54 535 l 185 535 l 243 951 l 324 951 l 265 535 l 386 535 z "},"Ĩ":{"ha":353,"x_min":85,"x_max":483,"o":"m 299 951 l 165 0 l 85 0 l 218 951 l 299 951 m 361 1101 q 317 1111 336 1101 q 276 1138 297 1121 q 245 1158 258 1151 q 218 1164 232 1164 q 180 1151 196 1164 q 140 1107 164 1138 l 97 1136 q 219 1226 156 1226 q 261 1217 243 1226 q 301 1192 279 1208 q 334 1170 322 1176 q 361 1164 346 1164 q 399 1178 381 1164 q 439 1224 417 1192 l 483 1197 q 361 1101 429 1101 z "},"J":{"ha":368,"x_min":-50,"x_max":321,"o":"m 204 124 q 166 -13 193 39 q 93 -99 139 -65 q -32 -165 47 -132 l -50 -106 q 47 -46 13 -75 q 98 24 81 -17 q 125 132 115 65 l 240 951 l 321 951 l 204 124 z "},"Ĵ":{"ha":368,"x_min":-50,"x_max":478,"o":"m 204 124 q 166 -13 193 39 q 93 -99 139 -65 q -32 -165 47 -132 l -50 -106 q 47 -46 13 -75 q 98 24 81 -17 q 125 132 115 65 l 240 951 l 321 951 l 204 124 m 139 1058 l 106 1099 l 289 1240 l 336 1240 l 478 1097 l 442 1058 l 307 1169 l 139 1058 z "},"Ʝ":{"ha":392,"x_min":-165,"x_max":342,"o":"m 203 -25 q 328 -76 265 -42 l 301 -124 q 194 -81 251 -97 q 123 -231 176 -178 q -22 -285 69 -285 q -128 -250 -90 -285 q -165 -158 -165 -215 q -112 -44 -165 -86 q 25 -1 -58 -1 q 126 -10 76 -1 l 261 951 l 342 951 l 203 -25 m -21 -226 q 72 -186 40 -226 q 118 -65 104 -146 q 24 -57 78 -57 q -67 -83 -36 -57 q -97 -156 -97 -110 q -78 -208 -97 -189 q -21 -226 -58 -226 z "},"Ɉ":{"ha":392,"x_min":-46,"x_max":389,"o":"m 381 442 l 253 442 l 208 124 q 170 -13 197 39 q 97 -99 143 -65 q -28 -165 51 -132 l -46 -106 q 51 -46 17 -75 q 102 24 85 -17 q 129 132 119 65 l 172 442 l 47 442 l 57 511 l 182 511 l 244 951 l 325 951 l 263 511 l 389 511 l 381 442 z "},"K":{"ha":692,"x_min":85,"x_max":749,"o":"m 85 0 l 218 951 l 299 951 l 165 0 l 85 0 m 543 0 l 242 510 l 656 951 l 749 951 l 332 507 l 635 0 l 543 0 z "},"Ǩ":{"ha":692,"x_min":85,"x_max":749,"o":"m 85 0 l 218 951 l 299 951 l 165 0 l 85 0 m 543 0 l 242 510 l 656 951 l 749 951 l 332 507 l 635 0 l 543 0 m 653 1231 l 686 1192 l 504 1050 l 456 1050 l 314 1193 l 350 1231 l 486 1121 l 653 1231 z "},"Ķ":{"ha":692,"x_min":85,"x_max":749,"o":"m 85 0 l 218 951 l 299 951 l 165 0 l 85 0 m 543 0 l 242 510 l 656 951 l 749 951 l 332 507 l 635 0 l 543 0 m 317 -118 q 356 -133 342 -118 q 371 -171 371 -149 q 363 -208 371 -190 q 333 -264 356 -226 l 263 -386 l 215 -386 l 279 -226 q 256 -181 256 -210 q 273 -136 256 -154 q 317 -118 290 -118 z "},"Ƙ":{"ha":735,"x_min":85,"x_max":807,"o":"m 242 510 l 525 861 q 608 944 572 921 q 693 967 644 967 q 756 953 731 967 q 807 913 782 939 l 763 868 q 730 892 744 885 q 694 899 715 899 q 642 883 665 899 q 578 815 619 867 l 332 510 l 635 0 l 542 0 l 242 510 m 85 0 l 218 951 l 299 951 l 165 0 l 85 0 z "},"L":{"ha":588,"x_min":85,"x_max":532,"o":"m 299 951 l 175 74 l 532 74 l 510 0 l 85 0 l 218 951 l 299 951 z "},"Ǉ":{"ha":932,"x_min":85,"x_max":885,"o":"m 299 951 l 175 74 l 532 74 l 510 0 l 85 0 l 218 951 l 299 951 m 768 124 q 730 -13 757 39 q 657 -99 703 -65 q 532 -165 611 -132 l 514 -106 q 610 -46 576 -75 q 662 24 644 -17 q 689 132 679 65 l 804 951 l 885 951 l 768 124 z "},"Ĺ":{"ha":588,"x_min":85,"x_max":532,"o":"m 299 951 l 175 74 l 532 74 l 510 0 l 85 0 l 218 951 l 299 951 m 389 1228 l 419 1157 l 158 1053 l 138 1097 l 389 1228 z "},"Ƚ":{"ha":606,"x_min":46,"x_max":550,"o":"m 193 74 l 550 74 l 528 0 l 103 0 l 168 469 l 46 469 l 56 539 l 178 539 l 236 951 l 317 951 l 258 539 l 388 539 l 379 469 l 249 469 l 193 74 z "},"Ɬ":{"ha":640,"x_min":43,"x_max":586,"o":"m 586 74 l 564 0 l 139 0 l 192 374 l 190 374 q 81 408 119 375 q 43 500 43 440 q 84 602 43 564 q 188 640 125 640 q 228 636 199 640 l 272 951 l 353 951 l 281 435 q 422 451 338 436 l 426 394 q 272 375 349 376 l 229 74 l 586 74 m 110 501 q 132 451 110 467 q 200 435 154 435 l 219 579 q 188 582 203 582 q 131 561 151 582 q 110 501 110 540 z "},"Ľ":{"ha":588,"x_min":85,"x_max":532,"o":"m 299 951 l 175 74 l 532 74 l 510 0 l 85 0 l 218 951 l 299 951 m 407 960 l 479 950 l 400 725 l 354 732 l 407 960 z "},"Ḽ":{"ha":588,"x_min":79,"x_max":532,"o":"m 299 951 l 175 74 l 532 74 l 510 0 l 85 0 l 218 951 l 299 951 m 113 -283 l 79 -243 l 263 -97 l 310 -97 l 451 -244 l 414 -283 l 278 -167 l 113 -283 z "},"Ļ":{"ha":588,"x_min":85,"x_max":532,"o":"m 299 951 l 175 74 l 532 74 l 510 0 l 85 0 l 218 951 l 299 951 m 282 -118 q 322 -133 307 -118 q 336 -171 336 -149 q 328 -208 336 -190 q 299 -264 321 -226 l 228 -386 l 181 -386 l 244 -226 q 221 -181 221 -210 q 238 -136 221 -154 q 282 -118 256 -118 z "},"Ŀ":{"ha":588,"x_min":85,"x_max":536,"o":"m 299 951 l 175 74 l 532 74 l 510 0 l 85 0 l 218 951 l 299 951 m 475 454 q 437 468 451 454 q 422 506 422 482 q 440 550 422 532 q 485 568 458 568 q 522 553 508 568 q 536 517 536 539 q 519 472 536 490 q 475 454 501 454 z "},"Ḷ":{"ha":588,"x_min":85,"x_max":532,"o":"m 299 951 l 175 74 l 532 74 l 510 0 l 85 0 l 218 951 l 299 951 m 278 -121 q 316 -135 301 -121 q 331 -172 331 -149 q 313 -217 331 -199 q 268 -235 294 -235 q 231 -220 244 -235 q 217 -183 217 -206 q 234 -139 217 -157 q 278 -121 251 -121 z "},"ǈ":{"ha":906,"x_min":85,"x_max":881,"o":"m 299 951 l 175 74 l 532 74 l 510 0 l 85 0 l 218 951 l 299 951 m 486 -224 q 568 -172 538 -199 q 619 -101 599 -146 q 650 21 639 -57 l 749 726 l 826 726 l 726 17 q 688 -129 714 -75 q 621 -215 661 -183 q 508 -282 581 -247 l 486 -224 m 819 931 q 781 944 796 931 q 767 982 767 958 q 785 1026 767 1008 q 829 1044 803 1044 q 867 1030 853 1044 q 881 993 881 1015 q 863 949 881 967 q 819 931 846 931 z "},"Ł":{"ha":607,"x_min":47,"x_max":553,"o":"m 196 74 l 553 74 l 531 0 l 106 0 l 160 390 l 75 336 l 47 388 l 171 465 l 239 951 l 319 951 l 258 521 l 499 672 l 528 621 l 249 446 l 196 74 z "},"M":{"ha":968,"x_min":36,"x_max":881,"o":"m 829 0 l 751 0 l 776 456 q 804 874 790 721 l 489 113 l 410 113 l 297 872 q 214 457 281 763 l 114 0 l 36 0 l 251 951 l 356 951 l 463 207 l 765 951 l 881 951 l 829 0 z "},"Ḿ":{"ha":968,"x_min":36,"x_max":881,"o":"m 829 0 l 751 0 l 776 456 q 804 874 790 721 l 489 113 l 410 113 l 297 872 q 214 457 281 763 l 114 0 l 36 0 l 251 951 l 356 951 l 463 207 l 765 951 l 881 951 l 829 0 m 690 1228 l 721 1157 l 460 1053 l 439 1097 l 690 1228 z "},"Ṁ":{"ha":968,"x_min":36,"x_max":881,"o":"m 829 0 l 751 0 l 776 456 q 804 874 790 721 l 489 113 l 410 113 l 297 872 q 214 457 281 763 l 114 0 l 36 0 l 251 951 l 356 951 l 463 207 l 765 951 l 881 951 l 829 0 m 586 1106 q 548 1119 563 1106 q 533 1157 533 1133 q 551 1201 533 1183 q 596 1219 569 1219 q 633 1205 619 1219 q 647 1168 647 1190 q 630 1124 647 1142 q 586 1106 613 1106 z "},"Ɯ":{"ha":1154,"x_min":101,"x_max":1100,"o":"m 1100 951 l 967 0 l 897 0 l 907 122 q 802 21 860 57 q 681 -15 744 -15 q 567 24 610 -15 q 513 133 524 63 q 272 -15 404 -15 q 146 37 190 -15 q 101 179 101 89 q 106 239 101 208 l 206 951 l 286 951 l 185 232 q 181 181 181 206 q 208 86 181 118 q 288 54 235 54 q 404 95 351 54 q 510 215 457 136 q 513 243 510 224 l 613 951 l 693 951 l 593 235 q 589 182 589 206 q 616 87 589 119 q 696 54 643 54 q 812 95 758 54 q 917 214 865 136 l 1021 951 l 1100 951 z "},"N":{"ha":838,"x_min":85,"x_max":785,"o":"m 650 0 l 546 0 l 271 878 q 235 533 264 749 l 161 0 l 85 0 l 218 951 l 324 951 l 600 75 q 628 372 604 197 l 708 951 l 785 951 l 650 0 z "},"Ǌ":{"ha":1206,"x_min":85,"x_max":1158,"o":"m 650 0 l 546 0 l 271 878 q 235 533 264 749 l 161 0 l 85 0 l 218 951 l 324 951 l 600 75 q 628 372 604 197 l 708 951 l 785 951 l 650 0 m 1042 124 q 1003 -13 1031 39 q 931 -99 976 -65 q 806 -165 885 -132 l 788 -106 q 884 -46 850 -75 q 935 24 918 -17 q 963 132 953 65 l 1078 951 l 1158 951 l 1042 124 z "},"Ń":{"ha":838,"x_min":85,"x_max":785,"o":"m 650 0 l 546 0 l 271 878 q 235 533 264 749 l 161 0 l 85 0 l 218 951 l 324 951 l 600 75 q 628 372 604 197 l 708 951 l 785 951 l 650 0 m 642 1228 l 672 1157 l 411 1053 l 390 1097 l 642 1228 z "},"Ň":{"ha":838,"x_min":85,"x_max":785,"o":"m 650 0 l 546 0 l 271 878 q 235 533 264 749 l 161 0 l 85 0 l 218 951 l 324 951 l 600 75 q 628 372 604 197 l 708 951 l 785 951 l 650 0 m 700 1231 l 733 1192 l 551 1050 l 503 1050 l 361 1193 l 397 1231 l 533 1121 l 700 1231 z "},"Ṋ":{"ha":838,"x_min":85,"x_max":785,"o":"m 650 0 l 546 0 l 271 878 q 235 533 264 749 l 161 0 l 85 0 l 218 951 l 324 951 l 600 75 q 628 372 604 197 l 708 951 l 785 951 l 650 0 m 183 -283 l 150 -243 l 333 -97 l 381 -97 l 522 -244 l 485 -283 l 349 -167 l 183 -283 z "},"Ņ":{"ha":838,"x_min":85,"x_max":785,"o":"m 650 0 l 546 0 l 271 878 q 235 533 264 749 l 161 0 l 85 0 l 218 951 l 324 951 l 600 75 q 628 372 604 197 l 708 951 l 785 951 l 650 0 m 353 -118 q 392 -133 378 -118 q 407 -171 407 -149 q 399 -208 407 -190 q 369 -264 392 -226 l 299 -386 l 251 -386 l 315 -226 q 292 -181 292 -210 q 309 -136 292 -154 q 353 -118 326 -118 z "},"Ṅ":{"ha":838,"x_min":85,"x_max":785,"o":"m 650 0 l 546 0 l 271 878 q 235 533 264 749 l 161 0 l 85 0 l 218 951 l 324 951 l 600 75 q 628 372 604 197 l 708 951 l 785 951 l 650 0 m 538 1106 q 499 1119 514 1106 q 485 1157 485 1133 q 503 1201 485 1183 q 547 1219 521 1219 q 585 1205 571 1219 q 599 1168 599 1190 q 581 1124 599 1142 q 538 1106 564 1106 z "},"Ṇ":{"ha":838,"x_min":85,"x_max":785,"o":"m 650 0 l 546 0 l 271 878 q 235 533 264 749 l 161 0 l 85 0 l 218 951 l 324 951 l 600 75 q 628 372 604 197 l 708 951 l 785 951 l 650 0 m 349 -121 q 387 -135 372 -121 q 401 -172 401 -149 q 383 -217 401 -199 q 339 -235 365 -235 q 301 -220 315 -235 q 288 -183 288 -206 q 305 -139 288 -157 q 349 -121 322 -121 z "},"Ǹ":{"ha":838,"x_min":85,"x_max":785,"o":"m 650 0 l 546 0 l 271 878 q 235 533 264 749 l 161 0 l 85 0 l 218 951 l 324 951 l 600 75 q 628 372 604 197 l 708 951 l 785 951 l 650 0 m 454 1226 l 671 1097 l 643 1053 l 414 1157 l 454 1226 z "},"Ŋ":{"ha":838,"x_min":85,"x_max":785,"o":"m 785 951 l 650 0 l 633 -110 q 572 -240 621 -196 q 453 -285 524 -285 q 326 -236 381 -285 l 364 -186 q 405 -209 386 -201 q 450 -217 424 -217 q 518 -190 490 -217 q 554 -106 546 -162 l 569 0 l 546 0 l 271 878 q 235 533 264 749 l 161 0 l 85 0 l 218 951 l 324 951 l 600 75 q 628 372 604 197 l 708 951 l 785 951 z "},"Ɲ":{"ha":838,"x_min":-157,"x_max":785,"o":"m 785 951 l 650 0 l 546 0 l 271 878 q 235 533 264 749 l 161 0 l 144 -111 q 84 -240 132 -196 q -33 -285 36 -285 q -157 -236 -103 -285 l -119 -187 q -80 -210 -99 -203 q -33 -218 -61 -218 q 34 -190 7 -218 q 69 -106 61 -162 l 85 0 l 218 951 l 324 951 l 600 75 q 628 372 604 197 l 708 951 l 785 951 z "},"ǋ":{"ha":1176,"x_min":85,"x_max":1151,"o":"m 650 0 l 546 0 l 271 878 q 235 533 264 749 l 161 0 l 85 0 l 218 951 l 324 951 l 600 75 q 628 372 604 197 l 708 951 l 785 951 l 650 0 m 757 -224 q 839 -172 808 -199 q 890 -101 869 -146 q 921 21 910 -57 l 1019 726 l 1097 726 l 997 17 q 958 -129 985 -75 q 892 -215 932 -183 q 779 -282 851 -247 l 757 -224 m 1090 931 q 1052 944 1067 931 q 1038 982 1038 958 q 1056 1026 1038 1008 q 1100 1044 1074 1044 q 1138 1030 1124 1044 q 1151 993 1151 1015 q 1134 949 1151 967 q 1090 931 1117 931 z "},"Ƞ":{"ha":824,"x_min":85,"x_max":749,"o":"m 550 967 q 697 911 646 967 q 749 760 749 856 q 744 704 749 733 l 607 -274 l 528 -274 l 664 699 q 668 753 668 728 q 538 897 668 897 q 399 857 463 897 q 269 744 335 817 l 165 0 l 85 0 l 218 951 l 289 951 l 278 829 q 550 967 406 967 z "},"Ñ":{"ha":838,"x_min":85,"x_max":785,"o":"m 650 0 l 546 0 l 271 878 q 235 533 264 749 l 161 0 l 85 0 l 218 951 l 324 951 l 600 75 q 628 372 604 197 l 708 951 l 785 951 l 650 0 m 614 1101 q 569 1111 589 1101 q 529 1138 550 1121 q 498 1158 511 1151 q 471 1164 485 1164 q 433 1151 449 1164 q 393 1107 417 1138 l 350 1136 q 472 1226 408 1226 q 514 1217 496 1226 q 554 1192 532 1208 q 587 1170 575 1176 q 614 1164 599 1164 q 651 1178 633 1164 q 692 1224 669 1192 l 736 1197 q 614 1101 682 1101 z "},"O":{"ha":867,"x_min":88,"x_max":810,"o":"m 522 967 q 733 875 657 967 q 810 611 810 783 q 766 323 810 467 q 624 82 722 179 q 376 -15 526 -15 q 165 78 242 -15 q 88 342 88 171 q 133 626 88 482 q 276 868 178 769 q 522 967 374 967 m 518 899 q 318 808 396 899 q 206 590 240 718 q 171 339 171 461 q 226 126 171 197 q 379 54 281 54 q 583 144 506 54 q 694 364 661 235 q 726 615 726 493 q 673 828 726 757 q 518 899 619 899 z "},"Ȣ":{"ha":800,"x_min":67,"x_max":746,"o":"m 717 747 q 665 609 704 663 q 554 529 626 556 q 669 449 629 504 q 708 315 708 394 q 664 144 708 219 q 538 27 619 69 q 350 -15 457 -15 q 140 53 213 -15 q 67 232 67 121 q 127 420 67 342 q 293 531 188 499 q 190 697 190 575 q 194 751 190 722 l 222 951 l 303 951 l 274 750 q 269 699 269 721 q 308 594 269 628 q 425 561 346 561 q 574 613 525 561 q 638 754 624 664 l 665 951 l 746 951 l 717 747 m 624 314 q 574 446 624 400 q 421 492 524 492 q 224 422 297 492 q 150 233 150 351 q 201 101 150 147 q 353 54 251 54 q 551 124 479 54 q 624 314 624 193 z "},"Ó":{"ha":867,"x_min":88,"x_max":810,"o":"m 522 967 q 733 875 657 967 q 810 611 810 783 q 766 323 810 467 q 624 82 722 179 q 376 -15 526 -15 q 165 78 242 -15 q 88 342 88 171 q 133 626 88 482 q 276 868 178 769 q 522 967 374 967 m 518 899 q 318 808 396 899 q 206 590 240 718 q 171 339 171 461 q 226 126 171 197 q 379 54 281 54 q 583 144 506 54 q 694 364 661 235 q 726 615 726 493 q 673 828 726 757 q 518 899 619 899 m 653 1228 l 683 1157 l 422 1053 l 401 1097 l 653 1228 z "},"Ŏ":{"ha":867,"x_min":88,"x_max":810,"o":"m 522 967 q 733 875 657 967 q 810 611 810 783 q 766 323 810 467 q 624 82 722 179 q 376 -15 526 -15 q 165 78 242 -15 q 88 342 88 171 q 133 626 88 482 q 276 868 178 769 q 522 967 374 967 m 518 899 q 318 808 396 899 q 206 590 240 718 q 171 339 171 461 q 226 126 171 197 q 379 54 281 54 q 583 144 506 54 q 694 364 661 235 q 726 615 726 493 q 673 828 726 757 q 518 899 619 899 m 538 1063 q 429 1102 469 1063 q 390 1203 389 1142 l 440 1210 q 539 1126 457 1126 q 615 1150 583 1126 q 665 1214 647 1174 l 718 1197 q 652 1100 701 1138 q 538 1063 603 1063 z "},"Ǒ":{"ha":867,"x_min":88,"x_max":810,"o":"m 522 967 q 733 875 657 967 q 810 611 810 783 q 766 323 810 467 q 624 82 722 179 q 376 -15 526 -15 q 165 78 242 -15 q 88 342 88 171 q 133 626 88 482 q 276 868 178 769 q 522 967 374 967 m 518 899 q 318 808 396 899 q 206 590 240 718 q 171 339 171 461 q 226 126 171 197 q 379 54 281 54 q 583 144 506 54 q 694 364 661 235 q 726 615 726 493 q 673 828 726 757 q 518 899 619 899 m 711 1231 l 744 1192 l 563 1050 l 514 1050 l 372 1193 l 408 1231 l 544 1121 l 711 1231 z "},"Ɵ":{"ha":867,"x_min":88,"x_max":810,"o":"m 522 967 q 733 875 657 967 q 810 611 810 783 q 766 323 810 467 q 624 82 722 179 q 376 -15 526 -15 q 165 78 242 -15 q 88 342 88 171 q 132 626 88 482 q 274 869 176 771 q 522 967 372 967 m 518 899 q 300 789 381 899 q 188 518 219 679 l 724 518 q 729 615 729 564 q 675 828 729 758 q 518 899 621 899 m 379 54 q 606 169 524 54 q 715 454 688 285 l 176 454 q 169 339 169 388 q 224 125 169 196 q 379 54 279 54 z "},"Ô":{"ha":867,"x_min":88,"x_max":810,"o":"m 522 967 q 733 875 657 967 q 810 611 810 783 q 766 323 810 467 q 624 82 722 179 q 376 -15 526 -15 q 165 78 242 -15 q 88 342 88 171 q 133 626 88 482 q 276 868 178 769 q 522 967 374 967 m 518 899 q 318 808 396 899 q 206 590 240 718 q 171 339 171 461 q 226 126 171 197 q 379 54 281 54 q 583 144 506 54 q 694 364 661 235 q 726 615 726 493 q 673 828 726 757 q 518 899 619 899 m 383 1058 l 350 1099 l 533 1240 l 581 1240 l 722 1097 l 686 1058 l 551 1169 l 383 1058 z "},"Ố":{"ha":867,"x_min":88,"x_max":853,"o":"m 806 1374 l 853 1325 l 676 1157 l 644 1188 l 806 1374 m 378 1011 l 344 1051 l 528 1193 l 575 1193 l 717 1050 l 681 1011 l 546 1122 l 378 1011 m 522 967 q 733 875 657 967 q 810 611 810 783 q 766 323 810 467 q 624 82 722 179 q 376 -15 526 -15 q 165 78 242 -15 q 88 342 88 171 q 133 626 88 482 q 276 868 178 769 q 522 967 374 967 m 518 899 q 318 808 396 899 q 206 590 240 718 q 171 339 171 461 q 226 126 171 197 q 379 54 281 54 q 583 144 506 54 q 694 364 661 235 q 726 615 726 493 q 673 828 726 757 q 518 899 619 899 z "},"Ộ":{"ha":867,"x_min":88,"x_max":810,"o":"m 522 967 q 733 875 657 967 q 810 611 810 783 q 766 323 810 467 q 624 82 722 179 q 376 -15 526 -15 q 165 78 242 -15 q 88 342 88 171 q 133 626 88 482 q 276 868 178 769 q 522 967 374 967 m 518 899 q 318 808 396 899 q 206 590 240 718 q 171 339 171 461 q 226 126 171 197 q 379 54 281 54 q 583 144 506 54 q 694 364 661 235 q 726 615 726 493 q 673 828 726 757 q 518 899 619 899 m 383 1058 l 350 1099 l 533 1240 l 581 1240 l 722 1097 l 686 1058 l 551 1169 l 383 1058 m 356 -121 q 394 -135 379 -121 q 408 -172 408 -149 q 390 -217 408 -199 q 346 -235 372 -235 q 308 -220 322 -235 q 294 -183 294 -206 q 312 -139 294 -157 q 356 -121 329 -121 z "},"Ồ":{"ha":867,"x_min":88,"x_max":810,"o":"m 331 1372 l 442 1183 l 404 1157 l 274 1329 l 331 1372 m 375 1011 l 342 1051 l 525 1193 l 572 1193 l 714 1050 l 678 1011 l 543 1122 l 375 1011 m 522 967 q 733 875 657 967 q 810 611 810 783 q 766 323 810 467 q 624 82 722 179 q 376 -15 526 -15 q 165 78 242 -15 q 88 342 88 171 q 133 626 88 482 q 276 868 178 769 q 522 967 374 967 m 518 899 q 318 808 396 899 q 206 590 240 718 q 171 339 171 461 q 226 126 171 197 q 379 54 281 54 q 583 144 506 54 q 694 364 661 235 q 726 615 726 493 q 673 828 726 757 q 518 899 619 899 z "},"Ổ":{"ha":867,"x_min":88,"x_max":847,"o":"m 522 967 q 733 875 657 967 q 810 611 810 783 q 766 323 810 467 q 624 82 722 179 q 376 -15 526 -15 q 165 78 242 -15 q 88 342 88 171 q 133 626 88 482 q 276 868 178 769 q 522 967 374 967 m 518 899 q 318 808 396 899 q 206 590 240 718 q 171 339 171 461 q 226 126 171 197 q 379 54 281 54 q 583 144 506 54 q 694 364 661 235 q 726 615 726 493 q 673 828 726 757 q 518 899 619 899 m 376 1011 l 343 1051 l 526 1193 l 574 1193 l 715 1050 l 679 1011 l 544 1122 l 376 1011 m 678 1229 q 750 1250 724 1233 q 776 1304 776 1267 q 728 1351 776 1351 q 693 1347 708 1351 q 654 1332 678 1342 l 636 1382 q 738 1410 688 1410 q 817 1381 788 1410 q 847 1306 847 1353 q 818 1228 847 1257 q 738 1192 789 1199 l 729 1128 l 667 1128 l 678 1229 z "},"Ỗ":{"ha":867,"x_min":88,"x_max":810,"o":"m 633 1238 q 589 1247 608 1238 q 549 1274 569 1257 q 517 1294 531 1288 q 490 1300 504 1300 q 452 1287 468 1300 q 413 1243 436 1274 l 369 1272 q 492 1363 428 1363 q 533 1353 515 1363 q 574 1328 551 1344 q 606 1306 594 1313 q 633 1300 618 1300 q 671 1314 653 1300 q 711 1360 689 1328 l 756 1333 q 633 1238 701 1238 m 375 1011 l 342 1051 l 525 1193 l 572 1193 l 714 1050 l 678 1011 l 543 1122 l 375 1011 m 522 967 q 733 875 657 967 q 810 611 810 783 q 766 323 810 467 q 624 82 722 179 q 376 -15 526 -15 q 165 78 242 -15 q 88 342 88 171 q 133 626 88 482 q 276 868 178 769 q 522 967 374 967 m 518 899 q 318 808 396 899 q 206 590 240 718 q 171 339 171 461 q 226 126 171 197 q 379 54 281 54 q 583 144 506 54 q 694 364 661 235 q 726 615 726 493 q 673 828 726 757 q 518 899 619 899 z "},"Ȍ":{"ha":867,"x_min":88,"x_max":810,"o":"m 522 967 q 733 875 657 967 q 810 611 810 783 q 766 323 810 467 q 624 82 722 179 q 376 -15 526 -15 q 165 78 242 -15 q 88 342 88 171 q 133 626 88 482 q 276 868 178 769 q 522 967 374 967 m 518 899 q 318 808 396 899 q 206 590 240 718 q 171 339 171 461 q 226 126 171 197 q 379 54 281 54 q 583 144 506 54 q 694 364 661 235 q 726 615 726 493 q 673 828 726 757 q 518 899 619 899 m 419 1300 l 490 1089 l 436 1068 l 344 1267 l 419 1300 m 582 1300 l 644 1094 l 590 1074 l 507 1265 l 582 1300 z "},"Ö":{"ha":867,"x_min":88,"x_max":810,"o":"m 522 967 q 733 875 657 967 q 810 611 810 783 q 766 323 810 467 q 624 82 722 179 q 376 -15 526 -15 q 165 78 242 -15 q 88 342 88 171 q 133 626 88 482 q 276 868 178 769 q 522 967 374 967 m 518 899 q 318 808 396 899 q 206 590 240 718 q 171 339 171 461 q 226 126 171 197 q 379 54 281 54 q 583 144 506 54 q 694 364 661 235 q 726 615 726 493 q 673 828 726 757 q 518 899 619 899 m 428 1097 q 393 1110 406 1097 q 381 1143 381 1124 q 397 1186 381 1169 q 438 1203 414 1203 q 472 1190 458 1203 q 486 1156 486 1176 q 469 1114 486 1131 q 428 1097 453 1097 m 665 1097 q 631 1110 644 1097 q 618 1143 618 1124 q 635 1186 618 1169 q 676 1203 651 1203 q 710 1189 697 1203 q 724 1156 724 1175 q 707 1114 724 1131 q 665 1097 690 1097 z "},"Ȫ":{"ha":867,"x_min":88,"x_max":810,"o":"m 522 967 q 733 875 657 967 q 810 611 810 783 q 766 323 810 467 q 624 82 722 179 q 376 -15 526 -15 q 165 78 242 -15 q 88 342 88 171 q 133 626 88 482 q 276 868 178 769 q 522 967 374 967 m 518 899 q 318 808 396 899 q 206 590 240 718 q 171 339 171 461 q 226 126 171 197 q 379 54 281 54 q 583 144 506 54 q 694 364 661 235 q 726 615 726 493 q 673 828 726 757 q 518 899 619 899 m 413 1035 q 378 1048 390 1035 q 365 1081 365 1061 q 382 1124 365 1107 q 422 1140 399 1140 q 457 1127 443 1140 q 471 1093 471 1114 q 454 1051 471 1068 q 413 1035 438 1035 m 650 1035 q 616 1048 629 1035 q 603 1081 603 1061 q 619 1124 603 1107 q 661 1140 636 1140 q 695 1126 682 1140 q 708 1093 708 1113 q 692 1051 708 1068 q 650 1035 675 1035 m 703 1218 l 400 1218 l 410 1282 l 713 1282 l 703 1218 z "},"Ȯ":{"ha":867,"x_min":88,"x_max":810,"o":"m 522 967 q 733 875 657 967 q 810 611 810 783 q 766 323 810 467 q 624 82 722 179 q 376 -15 526 -15 q 165 78 242 -15 q 88 342 88 171 q 133 626 88 482 q 276 868 178 769 q 522 967 374 967 m 518 899 q 318 808 396 899 q 206 590 240 718 q 171 339 171 461 q 226 126 171 197 q 379 54 281 54 q 583 144 506 54 q 694 364 661 235 q 726 615 726 493 q 673 828 726 757 q 518 899 619 899 m 549 1106 q 510 1119 525 1106 q 496 1157 496 1133 q 514 1201 496 1183 q 558 1219 532 1219 q 596 1205 582 1219 q 610 1168 610 1190 q 592 1124 610 1142 q 549 1106 575 1106 z "},"Ȱ":{"ha":867,"x_min":88,"x_max":810,"o":"m 522 967 q 733 875 657 967 q 810 611 810 783 q 766 323 810 467 q 624 82 722 179 q 376 -15 526 -15 q 165 78 242 -15 q 88 342 88 171 q 133 626 88 482 q 276 868 178 769 q 522 967 374 967 m 518 899 q 318 808 396 899 q 206 590 240 718 q 171 339 171 461 q 226 126 171 197 q 379 54 281 54 q 583 144 506 54 q 694 364 661 235 q 726 615 726 493 q 673 828 726 757 q 518 899 619 899 m 535 1032 q 497 1046 511 1032 q 482 1083 482 1060 q 500 1128 482 1110 q 544 1146 518 1146 q 582 1131 568 1146 q 596 1094 596 1117 q 578 1050 596 1068 q 535 1032 561 1032 m 704 1218 l 401 1218 l 411 1282 l 714 1282 l 704 1218 z "},"Ọ":{"ha":867,"x_min":88,"x_max":810,"o":"m 522 967 q 733 875 657 967 q 810 611 810 783 q 766 323 810 467 q 624 82 722 179 q 376 -15 526 -15 q 165 78 242 -15 q 88 342 88 171 q 133 626 88 482 q 276 868 178 769 q 522 967 374 967 m 518 899 q 318 808 396 899 q 206 590 240 718 q 171 339 171 461 q 226 126 171 197 q 379 54 281 54 q 583 144 506 54 q 694 364 661 235 q 726 615 726 493 q 673 828 726 757 q 518 899 619 899 m 356 -121 q 394 -135 379 -121 q 408 -172 408 -149 q 390 -217 408 -199 q 346 -235 372 -235 q 308 -220 322 -235 q 294 -183 294 -206 q 312 -139 294 -157 q 356 -121 329 -121 z "},"Ò":{"ha":867,"x_min":88,"x_max":810,"o":"m 522 967 q 733 875 657 967 q 810 611 810 783 q 766 323 810 467 q 624 82 722 179 q 376 -15 526 -15 q 165 78 242 -15 q 88 342 88 171 q 133 626 88 482 q 276 868 178 769 q 522 967 374 967 m 518 899 q 318 808 396 899 q 206 590 240 718 q 171 339 171 461 q 226 126 171 197 q 379 54 281 54 q 583 144 506 54 q 694 364 661 235 q 726 615 726 493 q 673 828 726 757 q 518 899 619 899 m 465 1226 l 682 1097 l 654 1053 l 425 1157 l 465 1226 z "},"Ỏ":{"ha":867,"x_min":88,"x_max":810,"o":"m 522 967 q 733 875 657 967 q 810 611 810 783 q 766 323 810 467 q 624 82 722 179 q 376 -15 526 -15 q 165 78 242 -15 q 88 342 88 171 q 133 626 88 482 q 276 868 178 769 q 522 967 374 967 m 518 899 q 318 808 396 899 q 206 590 240 718 q 171 339 171 461 q 226 126 171 197 q 379 54 281 54 q 583 144 506 54 q 694 364 661 235 q 726 615 726 493 q 673 828 726 757 q 518 899 619 899 m 521 1176 q 593 1197 567 1181 q 619 1251 619 1214 q 571 1299 619 1299 q 536 1294 551 1299 q 497 1279 521 1289 l 479 1329 q 581 1357 531 1357 q 660 1328 631 1357 q 690 1253 690 1300 q 661 1175 690 1204 q 581 1139 632 1146 l 572 1075 l 510 1075 l 521 1176 z "},"Ơ":{"ha":875,"x_min":88,"x_max":886,"o":"m 886 988 q 764 829 886 856 q 810 611 810 742 q 766 323 810 467 q 624 82 722 179 q 376 -15 526 -15 q 165 78 242 -15 q 88 342 88 171 q 133 626 88 482 q 276 868 178 769 q 522 967 374 967 q 733 875 658 967 q 802 912 782 885 q 822 989 822 939 q 814 1054 822 1029 l 874 1067 q 886 988 886 1035 m 379 54 q 583 144 506 54 q 694 364 661 235 q 726 615 726 493 q 673 828 726 757 q 518 899 619 899 q 318 808 396 899 q 206 590 240 718 q 171 339 171 461 q 226 126 171 197 q 379 54 281 54 z "},"Ớ":{"ha":875,"x_min":88,"x_max":886,"o":"m 683 1157 l 422 1053 l 401 1097 l 653 1228 l 683 1157 m 886 988 q 764 829 886 856 q 810 611 810 742 q 766 323 810 467 q 624 82 722 179 q 376 -15 526 -15 q 165 78 242 -15 q 88 342 88 171 q 133 626 88 482 q 276 868 178 769 q 522 967 374 967 q 733 875 658 967 q 802 912 782 885 q 822 989 822 939 q 814 1054 822 1029 l 874 1067 q 886 988 886 1035 m 379 54 q 583 144 506 54 q 694 364 661 235 q 726 615 726 493 q 673 828 726 757 q 518 899 619 899 q 318 808 396 899 q 206 590 240 718 q 171 339 171 461 q 226 126 171 197 q 379 54 281 54 z "},"Ợ":{"ha":875,"x_min":88,"x_max":886,"o":"m 886 988 q 764 829 886 856 q 810 611 810 742 q 766 323 810 467 q 624 82 722 179 q 376 -15 526 -15 q 165 78 242 -15 q 88 342 88 171 q 133 626 88 482 q 276 868 178 769 q 522 967 374 967 q 733 875 658 967 q 802 912 782 885 q 822 989 822 939 q 814 1054 822 1029 l 874 1067 q 886 988 886 1035 m 379 54 q 583 144 506 54 q 694 364 661 235 q 726 615 726 493 q 673 828 726 757 q 518 899 619 899 q 318 808 396 899 q 206 590 240 718 q 171 339 171 461 q 226 126 171 197 q 379 54 281 54 m 356 -121 q 394 -135 379 -121 q 408 -172 408 -149 q 390 -217 408 -199 q 346 -235 372 -235 q 308 -220 322 -235 q 294 -183 294 -206 q 312 -139 294 -157 q 356 -121 329 -121 z "},"Ờ":{"ha":875,"x_min":88,"x_max":886,"o":"m 682 1097 l 654 1053 l 425 1157 l 465 1226 l 682 1097 m 886 988 q 764 829 886 856 q 810 611 810 742 q 766 323 810 467 q 624 82 722 179 q 376 -15 526 -15 q 165 78 242 -15 q 88 342 88 171 q 133 626 88 482 q 276 868 178 769 q 522 967 374 967 q 733 875 658 967 q 802 912 782 885 q 822 989 822 939 q 814 1054 822 1029 l 874 1067 q 886 988 886 1035 m 379 54 q 583 144 506 54 q 694 364 661 235 q 726 615 726 493 q 673 828 726 757 q 518 899 619 899 q 318 808 396 899 q 206 590 240 718 q 171 339 171 461 q 226 126 171 197 q 379 54 281 54 z "},"Ở":{"ha":875,"x_min":88,"x_max":886,"o":"m 571 1299 q 536 1294 551 1299 q 497 1279 521 1289 l 479 1329 q 581 1357 531 1357 q 660 1328 631 1357 q 690 1253 690 1300 q 661 1175 690 1204 q 581 1139 632 1146 l 572 1075 l 510 1075 l 521 1176 q 593 1197 567 1181 q 619 1251 619 1214 q 571 1299 619 1299 m 886 988 q 764 829 886 856 q 810 611 810 742 q 766 323 810 467 q 624 82 722 179 q 376 -15 526 -15 q 165 78 242 -15 q 88 342 88 171 q 133 626 88 482 q 276 868 178 769 q 522 967 374 967 q 733 875 658 967 q 802 912 782 885 q 822 989 822 939 q 814 1054 822 1029 l 874 1067 q 886 988 886 1035 m 379 54 q 583 144 506 54 q 694 364 661 235 q 726 615 726 493 q 673 828 726 757 q 518 899 619 899 q 318 808 396 899 q 206 590 240 718 q 171 339 171 461 q 226 126 171 197 q 379 54 281 54 z "},"Ỡ":{"ha":875,"x_min":88,"x_max":886,"o":"m 482 1164 q 444 1151 460 1164 q 404 1107 428 1138 l 361 1136 q 483 1226 419 1226 q 525 1217 507 1226 q 565 1192 543 1208 q 598 1170 586 1176 q 625 1164 610 1164 q 663 1178 644 1164 q 703 1224 681 1192 l 747 1197 q 625 1101 693 1101 q 581 1111 600 1101 q 540 1138 561 1121 q 509 1158 522 1151 q 482 1164 496 1164 m 886 988 q 764 829 886 856 q 810 611 810 742 q 766 323 810 467 q 624 82 722 179 q 376 -15 526 -15 q 165 78 242 -15 q 88 342 88 171 q 133 626 88 482 q 276 868 178 769 q 522 967 374 967 q 733 875 658 967 q 802 912 782 885 q 822 989 822 939 q 814 1054 822 1029 l 874 1067 q 886 988 886 1035 m 379 54 q 583 144 506 54 q 694 364 661 235 q 726 615 726 493 q 673 828 726 757 q 518 899 619 899 q 318 808 396 899 q 206 590 240 718 q 171 339 171 461 q 226 126 171 197 q 379 54 281 54 z "},"Ő":{"ha":867,"x_min":88,"x_max":810,"o":"m 522 967 q 733 875 657 967 q 810 611 810 783 q 766 323 810 467 q 624 82 722 179 q 376 -15 526 -15 q 165 78 242 -15 q 88 342 88 171 q 133 626 88 482 q 276 868 178 769 q 522 967 374 967 m 518 899 q 318 808 396 899 q 206 590 240 718 q 171 339 171 461 q 226 126 171 197 q 379 54 281 54 q 583 144 506 54 q 694 364 661 235 q 726 615 726 493 q 673 828 726 757 q 518 899 619 899 m 547 1300 l 610 1263 l 476 1074 l 431 1097 l 547 1300 m 711 1300 l 774 1264 l 629 1068 l 582 1092 l 711 1300 z "},"Ƣ":{"ha":1131,"x_min":88,"x_max":1056,"o":"m 897 968 q 1016 928 976 968 q 1056 819 1056 889 q 1053 779 1056 793 l 906 -274 l 825 -274 l 974 781 q 976 815 976 806 q 888 903 976 903 q 746 858 822 903 q 810 611 810 764 q 766 323 810 467 q 624 82 722 179 q 376 -15 526 -15 q 165 78 242 -15 q 88 342 88 171 q 133 626 88 482 q 276 868 178 769 q 522 967 374 967 q 706 903 633 967 q 897 968 804 968 m 379 54 q 583 144 506 54 q 694 364 661 235 q 726 615 726 493 q 673 828 726 757 q 518 899 619 899 q 318 808 396 899 q 206 590 240 718 q 171 339 171 461 q 226 126 171 197 q 379 54 281 54 z "},"Ȏ":{"ha":867,"x_min":88,"x_max":810,"o":"m 522 967 q 733 875 657 967 q 810 611 810 783 q 766 323 810 467 q 624 82 722 179 q 376 -15 526 -15 q 165 78 242 -15 q 88 342 88 171 q 133 626 88 482 q 276 868 178 769 q 522 967 374 967 m 518 899 q 318 808 396 899 q 206 590 240 718 q 171 339 171 461 q 226 126 171 197 q 379 54 281 54 q 583 144 506 54 q 694 364 661 235 q 726 615 726 493 q 673 828 726 757 q 518 899 619 899 m 376 1106 q 444 1215 394 1175 q 558 1256 493 1256 q 667 1213 626 1256 q 706 1100 707 1169 l 653 1093 q 556 1190 643 1190 q 426 1089 465 1190 l 376 1106 z "},"Ō":{"ha":867,"x_min":88,"x_max":810,"o":"m 522 967 q 733 875 657 967 q 810 611 810 783 q 766 323 810 467 q 624 82 722 179 q 376 -15 526 -15 q 165 78 242 -15 q 88 342 88 171 q 133 626 88 482 q 276 868 178 769 q 522 967 374 967 m 518 899 q 318 808 396 899 q 206 590 240 718 q 171 339 171 461 q 226 126 171 197 q 379 54 281 54 q 583 144 506 54 q 694 364 661 235 q 726 615 726 493 q 673 828 726 757 q 518 899 619 899 m 697 1114 l 394 1114 l 404 1178 l 707 1178 l 697 1114 z "},"Ṓ":{"ha":867,"x_min":88,"x_max":810,"o":"m 522 967 q 733 875 657 967 q 810 611 810 783 q 766 323 810 467 q 624 82 722 179 q 376 -15 526 -15 q 165 78 242 -15 q 88 342 88 171 q 133 626 88 482 q 276 868 178 769 q 522 967 374 967 m 518 899 q 318 808 396 899 q 206 590 240 718 q 171 339 171 461 q 226 126 171 197 q 379 54 281 54 q 583 144 506 54 q 694 364 661 235 q 726 615 726 493 q 673 828 726 757 q 518 899 619 899 m 690 1058 l 388 1058 l 397 1122 l 700 1122 l 690 1058 m 672 1364 l 703 1293 l 442 1189 l 421 1233 l 672 1364 z "},"Ṑ":{"ha":867,"x_min":88,"x_max":810,"o":"m 522 967 q 733 875 657 967 q 810 611 810 783 q 766 323 810 467 q 624 82 722 179 q 376 -15 526 -15 q 165 78 242 -15 q 88 342 88 171 q 133 626 88 482 q 276 868 178 769 q 522 967 374 967 m 518 899 q 318 808 396 899 q 206 590 240 718 q 171 339 171 461 q 226 126 171 197 q 379 54 281 54 q 583 144 506 54 q 694 364 661 235 q 726 615 726 493 q 673 828 726 757 q 518 899 619 899 m 690 1058 l 388 1058 l 397 1122 l 700 1122 l 690 1058 m 479 1363 l 696 1233 l 668 1189 l 439 1293 l 479 1363 z "},"Ꞷ":{"ha":1061,"x_min":89,"x_max":990,"o":"m 292 -15 q 89 258 89 -15 q 137 600 89 428 q 271 951 185 772 l 350 951 q 217 596 265 775 q 168 256 168 417 q 201 101 168 147 q 299 54 233 54 q 474 260 444 54 l 514 551 l 594 551 l 553 253 q 547 190 547 208 q 665 54 547 54 q 856 228 801 54 q 911 642 911 401 q 903 787 911 715 q 878 951 894 858 l 956 951 q 981 792 972 864 q 990 640 990 721 q 917 172 990 358 q 667 -15 843 -15 q 499 147 510 -15 q 417 25 467 65 q 292 -15 367 -15 z "},"Ǫ":{"ha":867,"x_min":88,"x_max":810,"o":"m 482 -1 q 346 -86 386 -46 q 306 -176 306 -126 q 323 -221 306 -206 q 374 -236 340 -236 q 447 -228 403 -236 l 432 -293 q 363 -301 394 -301 q 269 -270 303 -301 q 235 -186 235 -239 q 263 -92 235 -133 q 356 -15 292 -51 q 159 85 231 -8 q 88 342 88 178 q 133 626 88 482 q 276 868 178 769 q 522 967 374 967 q 733 875 657 967 q 810 611 810 783 q 776 358 810 486 q 669 131 743 231 q 482 -1 596 32 m 171 339 q 226 126 171 197 q 379 54 281 54 q 583 144 506 54 q 694 364 661 235 q 726 615 726 493 q 673 828 726 757 q 518 899 619 899 q 318 808 396 899 q 206 590 240 718 q 171 339 171 461 z "},"Ǭ":{"ha":867,"x_min":88,"x_max":810,"o":"m 707 1178 l 697 1114 l 394 1114 l 404 1178 l 707 1178 m 482 -1 q 346 -86 386 -46 q 306 -176 306 -126 q 323 -221 306 -206 q 374 -236 340 -236 q 447 -228 403 -236 l 432 -293 q 363 -301 394 -301 q 269 -270 303 -301 q 235 -186 235 -239 q 263 -92 235 -133 q 356 -15 292 -51 q 159 85 231 -8 q 88 342 88 178 q 133 626 88 482 q 276 868 178 769 q 522 967 374 967 q 733 875 657 967 q 810 611 810 783 q 776 358 810 486 q 669 131 743 231 q 482 -1 596 32 m 171 339 q 226 126 171 197 q 379 54 281 54 q 583 144 506 54 q 694 364 661 235 q 726 615 726 493 q 673 828 726 757 q 518 899 619 899 q 318 808 396 899 q 206 590 240 718 q 171 339 171 461 z "},"Ɔ":{"ha":696,"x_min":-12,"x_max":640,"o":"m 371 967 q 567 876 494 967 q 639 614 639 785 q 589 304 640 449 q 440 72 538 160 q 211 -15 342 -15 q 83 11 136 -15 q -12 85 31 38 l 35 133 q 117 75 79 94 q 213 56 154 56 q 399 136 321 56 q 517 345 478 217 q 557 615 557 474 q 505 828 557 760 q 364 897 453 897 q 260 880 307 897 q 160 826 213 863 l 122 881 q 237 945 178 924 q 371 967 296 967 z "},"Ø":{"ha":867,"x_min":88,"x_max":810,"o":"m 671 928 q 774 807 738 888 q 810 611 810 726 q 766 323 810 467 q 624 82 722 179 q 376 -15 526 -15 q 289 -3 328 -15 l 224 -167 l 158 -146 l 228 24 q 124 145 161 64 q 88 342 88 226 q 133 626 88 482 q 276 868 178 769 q 522 967 374 967 q 611 954 569 967 l 678 1125 l 744 1106 l 671 928 m 171 336 q 265 86 171 150 l 589 889 q 518 899 560 899 q 318 808 396 899 q 206 589 240 718 q 171 336 171 460 m 379 54 q 583 145 506 54 q 694 365 661 236 q 726 619 726 494 q 635 867 726 804 l 311 64 q 379 54 340 54 z "},"Ǿ":{"ha":867,"x_min":88,"x_max":810,"o":"m 671 928 q 774 807 738 888 q 810 611 810 726 q 766 323 810 467 q 624 82 722 179 q 376 -15 526 -15 q 289 -3 328 -15 l 224 -167 l 158 -146 l 228 24 q 124 145 161 64 q 88 342 88 226 q 133 626 88 482 q 276 868 178 769 q 522 967 374 967 q 611 954 569 967 l 678 1125 l 744 1106 l 671 928 m 171 336 q 265 86 171 150 l 589 889 q 518 899 560 899 q 318 808 396 899 q 206 589 240 718 q 171 336 171 460 m 379 54 q 583 145 506 54 q 694 365 661 236 q 726 619 726 494 q 635 867 726 804 l 311 64 q 379 54 340 54 m 649 1236 l 679 1165 l 418 1061 l 397 1106 l 649 1236 z "},"Õ":{"ha":867,"x_min":88,"x_max":810,"o":"m 522 967 q 733 875 657 967 q 810 611 810 783 q 766 323 810 467 q 624 82 722 179 q 376 -15 526 -15 q 165 78 242 -15 q 88 342 88 171 q 133 626 88 482 q 276 868 178 769 q 522 967 374 967 m 518 899 q 318 808 396 899 q 206 590 240 718 q 171 339 171 461 q 226 126 171 197 q 379 54 281 54 q 583 144 506 54 q 694 364 661 235 q 726 615 726 493 q 673 828 726 757 q 518 899 619 899 m 625 1101 q 581 1111 600 1101 q 540 1138 561 1121 q 509 1158 522 1151 q 482 1164 496 1164 q 444 1151 460 1164 q 404 1107 428 1138 l 361 1136 q 483 1226 419 1226 q 525 1217 507 1226 q 565 1192 543 1208 q 598 1170 586 1176 q 625 1164 610 1164 q 663 1178 644 1164 q 703 1224 681 1192 l 747 1197 q 625 1101 693 1101 z "},"Ṍ":{"ha":867,"x_min":88,"x_max":810,"o":"m 522 967 q 733 875 657 967 q 810 611 810 783 q 766 323 810 467 q 624 82 722 179 q 376 -15 526 -15 q 165 78 242 -15 q 88 342 88 171 q 133 626 88 482 q 276 868 178 769 q 522 967 374 967 m 518 899 q 318 808 396 899 q 206 590 240 718 q 171 339 171 461 q 226 126 171 197 q 379 54 281 54 q 583 144 506 54 q 694 364 661 235 q 726 615 726 493 q 673 828 726 757 q 518 899 619 899 m 619 1053 q 575 1063 594 1053 q 535 1089 556 1072 q 503 1109 517 1103 q 476 1115 490 1115 q 438 1102 454 1115 q 399 1058 422 1089 l 356 1088 q 478 1178 414 1178 q 519 1169 501 1178 q 560 1143 538 1160 q 592 1122 581 1128 q 619 1115 604 1115 q 657 1129 639 1115 q 697 1175 675 1143 l 742 1149 q 619 1053 688 1053 m 674 1393 l 704 1322 l 443 1218 l 422 1263 l 674 1393 z "},"Ȭ":{"ha":867,"x_min":88,"x_max":810,"o":"m 710 1242 l 407 1242 l 417 1306 l 719 1306 l 710 1242 m 615 1053 q 571 1063 590 1053 q 531 1089 551 1072 q 499 1109 513 1103 q 472 1115 486 1115 q 434 1102 450 1115 q 394 1058 418 1089 l 351 1088 q 474 1178 410 1178 q 515 1169 497 1178 q 556 1143 533 1160 q 588 1122 576 1128 q 615 1115 600 1115 q 653 1129 635 1115 q 693 1175 671 1143 l 738 1149 q 615 1053 683 1053 m 522 967 q 733 875 657 967 q 810 611 810 783 q 766 323 810 467 q 624 82 722 179 q 376 -15 526 -15 q 165 78 242 -15 q 88 342 88 171 q 133 626 88 482 q 276 868 178 769 q 522 967 374 967 m 518 899 q 318 808 396 899 q 206 590 240 718 q 171 339 171 461 q 226 126 171 197 q 379 54 281 54 q 583 144 506 54 q 694 364 661 235 q 726 615 726 493 q 673 828 726 757 q 518 899 619 899 z "},"Œ":{"ha":1083,"x_min":88,"x_max":1101,"o":"m 1083 883 l 690 883 q 782 610 782 796 q 778 526 782 571 l 986 526 l 978 460 l 769 460 q 701 235 750 339 q 574 68 653 131 l 988 68 l 976 0 l 457 0 q 364 -15 411 -15 q 162 78 236 -15 q 88 340 88 171 q 132 624 88 479 q 270 868 176 769 q 504 967 364 967 q 592 951 550 967 l 1101 951 l 1083 883 m 700 621 q 648 828 700 758 q 503 899 596 899 q 313 808 388 899 q 205 587 239 717 q 171 336 171 457 q 224 125 171 196 q 367 54 276 54 q 560 146 485 54 q 667 368 635 238 q 700 621 700 499 z "},"P":{"ha":708,"x_min":85,"x_max":706,"o":"m 421 951 q 632 892 558 951 q 706 715 706 833 q 670 547 706 624 q 552 420 635 469 q 336 371 469 371 l 217 371 l 165 0 l 85 0 l 218 951 l 421 951 m 342 439 q 559 518 496 439 q 622 715 622 597 q 570 845 622 806 q 414 885 518 885 l 289 885 l 226 439 l 342 439 z "},"Ṕ":{"ha":708,"x_min":85,"x_max":706,"o":"m 421 951 q 632 892 558 951 q 706 715 706 833 q 670 547 706 624 q 552 420 635 469 q 336 371 469 371 l 217 371 l 165 0 l 85 0 l 218 951 l 421 951 m 342 439 q 559 518 496 439 q 622 715 622 597 q 570 845 622 806 q 414 885 518 885 l 289 885 l 226 439 l 342 439 m 575 1228 l 606 1157 l 344 1053 l 324 1097 l 575 1228 z "},"Ṗ":{"ha":708,"x_min":85,"x_max":706,"o":"m 421 951 q 632 892 558 951 q 706 715 706 833 q 670 547 706 624 q 552 420 635 469 q 336 371 469 371 l 217 371 l 165 0 l 85 0 l 218 951 l 421 951 m 342 439 q 559 518 496 439 q 622 715 622 597 q 570 845 622 806 q 414 885 518 885 l 289 885 l 226 439 l 342 439 m 471 1106 q 433 1119 447 1106 q 418 1157 418 1133 q 436 1201 418 1183 q 481 1219 454 1219 q 518 1205 504 1219 q 532 1168 532 1190 q 515 1124 532 1142 q 471 1106 497 1106 z "},"Ƥ":{"ha":788,"x_min":79,"x_max":785,"o":"m 500 951 q 711 892 638 951 q 785 715 785 833 q 749 547 785 624 q 631 420 714 469 q 415 371 549 371 l 296 371 l 244 0 l 164 0 l 288 885 l 256 885 q 178 856 204 885 q 153 776 153 826 q 171 690 153 736 l 110 664 q 79 779 79 719 q 127 903 79 856 q 263 951 175 951 l 500 951 m 421 439 q 638 518 575 439 q 701 715 701 597 q 649 845 701 806 q 493 885 597 885 l 368 885 l 306 439 l 421 439 z "},"Þ":{"ha":707,"x_min":85,"x_max":679,"o":"m 396 781 q 606 721 533 781 q 679 539 679 661 q 644 369 679 447 q 526 240 608 290 q 310 190 444 190 l 192 190 l 165 0 l 85 0 l 218 951 l 299 951 l 275 781 l 396 781 m 315 257 q 532 338 468 257 q 596 538 596 418 q 544 673 596 632 q 389 714 493 714 l 265 714 l 201 257 l 315 257 z "},"Q":{"ha":861,"x_min":88,"x_max":810,"o":"m 522 29 q 749 -67 665 21 l 686 -129 q 561 -39 629 -62 q 375 -15 493 -15 q 165 78 242 -15 q 88 342 88 171 q 133 626 88 482 q 276 868 178 769 q 522 967 374 967 q 733 875 657 967 q 810 611 810 783 q 781 376 810 494 q 687 163 751 257 q 522 29 622 68 m 171 336 q 226 125 171 196 q 379 54 281 54 q 583 145 506 54 q 694 365 661 236 q 726 619 726 494 q 672 828 726 758 q 518 899 618 899 q 318 808 396 899 q 206 589 240 718 q 171 336 171 460 z "},"Ɋ":{"ha":836,"x_min":89,"x_max":819,"o":"m 819 -239 q 686 -285 757 -285 q 583 -249 621 -285 q 546 -144 546 -212 q 549 -106 546 -133 l 563 0 l 564 0 l 576 89 q 361 -15 488 -15 q 163 78 238 -15 q 89 346 89 171 q 139 649 89 506 q 281 879 189 792 q 494 967 374 967 q 686 860 614 967 l 707 951 l 778 951 l 644 0 l 643 0 l 628 -112 q 626 -140 626 -122 q 693 -217 626 -217 q 744 -209 722 -217 q 789 -186 765 -201 l 819 -239 m 369 54 q 589 178 496 54 l 674 785 q 596 869 638 842 q 496 897 554 897 q 322 817 396 897 q 210 608 249 736 q 172 343 172 481 q 226 125 172 196 q 369 54 279 54 z "},"R":{"ha":738,"x_min":85,"x_max":701,"o":"m 701 735 q 646 553 701 633 q 474 442 590 472 l 644 0 l 558 0 l 396 428 l 225 428 l 165 0 l 85 0 l 218 951 l 429 951 q 634 896 567 951 q 701 735 701 840 m 374 494 q 561 565 504 494 q 618 732 618 635 q 573 848 618 811 q 426 885 528 885 l 289 885 l 235 494 l 374 494 z "},"Ŕ":{"ha":738,"x_min":85,"x_max":701,"o":"m 701 735 q 646 553 701 633 q 474 442 590 472 l 644 0 l 558 0 l 396 428 l 225 428 l 165 0 l 85 0 l 218 951 l 429 951 q 634 896 567 951 q 701 735 701 840 m 374 494 q 561 565 504 494 q 618 732 618 635 q 573 848 618 811 q 426 885 528 885 l 289 885 l 235 494 l 374 494 m 578 1228 l 608 1157 l 347 1053 l 326 1097 l 578 1228 z "},"Ř":{"ha":738,"x_min":85,"x_max":701,"o":"m 701 735 q 646 553 701 633 q 474 442 590 472 l 644 0 l 558 0 l 396 428 l 225 428 l 165 0 l 85 0 l 218 951 l 429 951 q 634 896 567 951 q 701 735 701 840 m 374 494 q 561 565 504 494 q 618 732 618 635 q 573 848 618 811 q 426 885 528 885 l 289 885 l 235 494 l 374 494 m 636 1231 l 669 1192 l 488 1050 l 439 1050 l 297 1193 l 333 1231 l 469 1121 l 636 1231 z "},"Ŗ":{"ha":738,"x_min":85,"x_max":701,"o":"m 701 735 q 646 553 701 633 q 474 442 590 472 l 644 0 l 558 0 l 396 428 l 225 428 l 165 0 l 85 0 l 218 951 l 429 951 q 634 896 567 951 q 701 735 701 840 m 374 494 q 561 565 504 494 q 618 732 618 635 q 573 848 618 811 q 426 885 528 885 l 289 885 l 235 494 l 374 494 m 331 -118 q 370 -133 356 -118 q 385 -171 385 -149 q 377 -208 385 -190 q 347 -264 369 -226 l 276 -386 l 229 -386 l 293 -226 q 269 -181 269 -210 q 287 -136 269 -154 q 331 -118 304 -118 z "},"Ȑ":{"ha":738,"x_min":85,"x_max":701,"o":"m 701 735 q 646 553 701 633 q 474 442 590 472 l 644 0 l 558 0 l 396 428 l 225 428 l 165 0 l 85 0 l 218 951 l 429 951 q 634 896 567 951 q 701 735 701 840 m 374 494 q 561 565 504 494 q 618 732 618 635 q 573 848 618 811 q 426 885 528 885 l 289 885 l 235 494 l 374 494 m 344 1300 l 415 1089 l 361 1068 l 269 1267 l 344 1300 m 507 1300 l 569 1094 l 515 1074 l 432 1265 l 507 1300 z "},"Ṛ":{"ha":738,"x_min":85,"x_max":701,"o":"m 701 735 q 646 553 701 633 q 474 442 590 472 l 644 0 l 558 0 l 396 428 l 225 428 l 165 0 l 85 0 l 218 951 l 429 951 q 634 896 567 951 q 701 735 701 840 m 374 494 q 561 565 504 494 q 618 732 618 635 q 573 848 618 811 q 426 885 528 885 l 289 885 l 235 494 l 374 494 m 326 -121 q 365 -135 350 -121 q 379 -172 379 -149 q 361 -217 379 -199 q 317 -235 343 -235 q 279 -220 293 -235 q 265 -183 265 -206 q 283 -139 265 -157 q 326 -121 300 -121 z "},"Ȓ":{"ha":738,"x_min":85,"x_max":701,"o":"m 701 735 q 646 553 701 633 q 474 442 590 472 l 644 0 l 558 0 l 396 428 l 225 428 l 165 0 l 85 0 l 218 951 l 429 951 q 634 896 567 951 q 701 735 701 840 m 374 494 q 561 565 504 494 q 618 732 618 635 q 573 848 618 811 q 426 885 528 885 l 289 885 l 235 494 l 374 494 m 301 1106 q 369 1215 319 1175 q 483 1256 418 1256 q 592 1213 551 1256 q 631 1100 632 1169 l 578 1093 q 481 1190 568 1190 q 351 1089 390 1190 l 301 1106 z "},"Ɍ":{"ha":747,"x_min":43,"x_max":713,"o":"m 713 735 q 657 553 713 633 q 485 442 601 472 l 656 0 l 569 0 l 407 428 l 236 428 l 176 0 l 96 0 l 156 428 l 43 428 l 53 494 l 165 494 l 229 951 l 440 951 q 645 896 578 951 q 713 735 713 840 m 385 494 q 572 565 515 494 q 629 732 629 635 q 584 848 629 811 q 438 885 539 885 l 300 885 l 246 494 l 385 494 z "},"Ɽ":{"ha":738,"x_min":68,"x_max":701,"o":"m 701 735 q 646 553 701 633 q 474 442 590 472 l 644 0 l 558 0 l 396 428 l 225 428 l 165 0 l 150 -112 q 149 -140 149 -122 q 215 -217 149 -217 q 266 -209 244 -217 q 311 -186 288 -201 l 342 -239 q 208 -285 279 -285 q 106 -249 143 -285 q 68 -144 68 -212 q 71 -106 68 -133 l 85 0 l 218 951 l 429 951 q 634 896 567 951 q 701 735 701 840 m 374 494 q 561 565 504 494 q 618 732 618 635 q 573 848 618 811 q 426 885 528 885 l 289 885 l 235 494 l 374 494 z "},"S":{"ha":674,"x_min":4,"x_max":657,"o":"m 422 967 q 554 940 497 967 q 657 860 611 913 l 607 813 q 520 878 564 858 q 421 899 476 899 q 274 845 332 899 q 217 710 217 792 q 252 613 217 649 q 382 539 288 576 q 542 442 490 497 q 593 292 593 386 q 556 144 593 214 q 444 29 518 74 q 265 -15 369 -15 q 117 17 181 -15 q 4 107 54 49 l 57 153 q 149 79 100 104 q 267 54 197 54 q 399 86 344 54 q 482 172 454 118 q 510 288 510 225 q 473 399 510 358 q 342 478 436 440 q 182 573 229 524 q 135 707 135 622 q 169 832 135 772 q 270 929 204 892 q 422 967 336 967 z "},"Ś":{"ha":674,"x_min":4,"x_max":657,"o":"m 422 967 q 554 940 497 967 q 657 860 611 913 l 607 813 q 520 878 564 858 q 421 899 476 899 q 274 845 332 899 q 217 710 217 792 q 252 613 217 649 q 382 539 288 576 q 542 442 490 497 q 593 292 593 386 q 556 144 593 214 q 444 29 518 74 q 265 -15 369 -15 q 117 17 181 -15 q 4 107 54 49 l 57 153 q 149 79 100 104 q 267 54 197 54 q 399 86 344 54 q 482 172 454 118 q 510 288 510 225 q 473 399 510 358 q 342 478 436 440 q 182 573 229 524 q 135 707 135 622 q 169 832 135 772 q 270 929 204 892 q 422 967 336 967 m 554 1228 l 585 1157 l 324 1053 l 303 1097 l 554 1228 z "},"Ꞌ":{"ha":267,"x_min":121,"x_max":258,"o":"m 121 492 l 174 951 l 258 951 l 182 492 l 121 492 z "},"Š":{"ha":674,"x_min":4,"x_max":657,"o":"m 422 967 q 554 940 497 967 q 657 860 611 913 l 607 813 q 520 878 564 858 q 421 899 476 899 q 274 845 332 899 q 217 710 217 792 q 252 613 217 649 q 382 539 288 576 q 542 442 490 497 q 593 292 593 386 q 556 144 593 214 q 444 29 518 74 q 265 -15 369 -15 q 117 17 181 -15 q 4 107 54 49 l 57 153 q 149 79 100 104 q 267 54 197 54 q 399 86 344 54 q 482 172 454 118 q 510 288 510 225 q 473 399 510 358 q 342 478 436 440 q 182 573 229 524 q 135 707 135 622 q 169 832 135 772 q 270 929 204 892 q 422 967 336 967 m 613 1231 l 646 1192 l 464 1050 l 415 1050 l 274 1193 l 310 1231 l 446 1121 l 613 1231 z "},"Ş":{"ha":674,"x_min":4,"x_max":657,"o":"m 422 967 q 554 940 497 967 q 657 860 611 913 l 607 813 q 520 878 564 858 q 421 899 476 899 q 274 845 332 899 q 217 710 217 792 q 252 613 217 649 q 382 539 288 576 q 542 442 490 497 q 593 292 593 386 q 560 153 593 219 q 463 40 528 86 q 306 -14 397 -6 l 292 -90 q 370 -121 344 -96 q 396 -189 396 -146 q 356 -280 396 -244 q 250 -315 315 -315 q 149 -283 192 -315 l 176 -237 q 250 -258 210 -258 q 306 -241 283 -258 q 328 -192 328 -224 q 306 -147 328 -160 q 226 -133 283 -133 l 251 -15 q 4 107 103 -10 l 57 153 q 149 79 100 104 q 267 54 197 54 q 399 86 344 54 q 482 172 454 118 q 510 288 510 225 q 473 399 510 358 q 342 478 436 440 q 182 573 229 524 q 135 707 135 622 q 169 832 135 772 q 270 929 204 892 q 422 967 336 967 z "},"Ŝ":{"ha":674,"x_min":4,"x_max":657,"o":"m 422 967 q 554 940 497 967 q 657 860 611 913 l 607 813 q 520 878 564 858 q 421 899 476 899 q 274 845 332 899 q 217 710 217 792 q 252 613 217 649 q 382 539 288 576 q 542 442 490 497 q 593 292 593 386 q 556 144 593 214 q 444 29 518 74 q 265 -15 369 -15 q 117 17 181 -15 q 4 107 54 49 l 57 153 q 149 79 100 104 q 267 54 197 54 q 399 86 344 54 q 482 172 454 118 q 510 288 510 225 q 473 399 510 358 q 342 478 436 440 q 182 573 229 524 q 135 707 135 622 q 169 832 135 772 q 270 929 204 892 q 422 967 336 967 m 285 1058 l 251 1099 l 435 1240 l 482 1240 l 624 1097 l 588 1058 l 453 1169 l 285 1058 z "},"Ș":{"ha":674,"x_min":4,"x_max":657,"o":"m 422 967 q 554 940 497 967 q 657 860 611 913 l 607 813 q 520 878 564 858 q 421 899 476 899 q 274 845 332 899 q 217 710 217 792 q 252 613 217 649 q 382 539 288 576 q 542 442 490 497 q 593 292 593 386 q 556 144 593 214 q 444 29 518 74 q 265 -15 369 -15 q 117 17 181 -15 q 4 107 54 49 l 57 153 q 149 79 100 104 q 267 54 197 54 q 399 86 344 54 q 482 172 454 118 q 510 288 510 225 q 473 399 510 358 q 342 478 436 440 q 182 573 229 524 q 135 707 135 622 q 169 832 135 772 q 270 929 204 892 q 422 967 336 967 m 267 -118 q 306 -133 292 -118 q 321 -171 321 -149 q 313 -208 321 -190 q 283 -264 306 -226 l 213 -386 l 165 -386 l 229 -226 q 206 -181 206 -210 q 223 -136 206 -154 q 267 -118 240 -118 z "},"Ṡ":{"ha":674,"x_min":4,"x_max":657,"o":"m 422 967 q 554 940 497 967 q 657 860 611 913 l 607 813 q 520 878 564 858 q 421 899 476 899 q 274 845 332 899 q 217 710 217 792 q 252 613 217 649 q 382 539 288 576 q 542 442 490 497 q 593 292 593 386 q 556 144 593 214 q 444 29 518 74 q 265 -15 369 -15 q 117 17 181 -15 q 4 107 54 49 l 57 153 q 149 79 100 104 q 267 54 197 54 q 399 86 344 54 q 482 172 454 118 q 510 288 510 225 q 473 399 510 358 q 342 478 436 440 q 182 573 229 524 q 135 707 135 622 q 169 832 135 772 q 270 929 204 892 q 422 967 336 967 m 450 1106 q 412 1119 426 1106 q 397 1157 397 1133 q 415 1201 397 1183 q 460 1219 433 1219 q 497 1205 483 1219 q 511 1168 511 1190 q 494 1124 511 1142 q 450 1106 476 1106 z "},"Ṣ":{"ha":674,"x_min":4,"x_max":657,"o":"m 422 967 q 554 940 497 967 q 657 860 611 913 l 607 813 q 520 878 564 858 q 421 899 476 899 q 274 845 332 899 q 217 710 217 792 q 252 613 217 649 q 382 539 288 576 q 542 442 490 497 q 593 292 593 386 q 556 144 593 214 q 444 29 518 74 q 265 -15 369 -15 q 117 17 181 -15 q 4 107 54 49 l 57 153 q 149 79 100 104 q 267 54 197 54 q 399 86 344 54 q 482 172 454 118 q 510 288 510 225 q 473 399 510 358 q 342 478 436 440 q 182 573 229 524 q 135 707 135 622 q 169 832 135 772 q 270 929 204 892 q 422 967 336 967 m 263 -121 q 301 -135 286 -121 q 315 -172 315 -149 q 297 -217 315 -199 q 253 -235 279 -235 q 215 -220 229 -235 q 201 -183 201 -206 q 219 -139 201 -157 q 263 -121 236 -121 z "},"ẞ":{"ha":814,"x_min":85,"x_max":765,"o":"m 479 967 q 765 876 619 967 l 760 821 l 482 532 q 732 297 732 500 q 694 136 732 207 q 589 25 657 65 q 435 -15 521 -15 q 293 17 350 -15 l 325 75 q 433 54 369 54 q 590 123 532 54 q 649 297 649 192 q 588 427 649 385 q 399 476 526 469 l 407 544 l 686 844 q 479 897 578 897 q 263 693 292 897 l 165 0 l 85 0 l 183 701 q 278 899 201 831 q 479 967 356 967 z "},"Ə":{"ha":810,"x_min":69,"x_max":756,"o":"m 485 967 q 685 885 614 967 q 756 639 756 804 q 709 321 756 471 q 568 78 663 171 q 336 -15 474 -15 q 140 71 210 -15 q 69 317 69 157 q 76 422 69 365 q 93 521 83 478 l 667 519 q 674 640 674 576 q 624 836 674 775 q 479 897 575 897 q 354 874 413 897 q 233 801 296 850 l 194 854 q 335 940 265 913 q 485 967 404 967 m 338 53 q 535 147 453 53 q 656 449 618 242 l 158 449 q 147 314 147 371 q 338 53 147 53 z "},"T":{"ha":619,"x_min":90,"x_max":689,"o":"m 689 951 l 669 879 l 422 879 l 299 0 l 218 0 l 342 879 l 90 879 l 100 951 l 689 951 z "},"Ŧ":{"ha":619,"x_min":90,"x_max":689,"o":"m 669 879 l 422 879 l 374 535 l 525 535 l 517 471 l 365 471 l 299 0 l 218 0 l 285 471 l 133 471 l 142 535 l 293 535 l 342 879 l 90 879 l 100 951 l 689 951 l 669 879 z "},"Ť":{"ha":619,"x_min":90,"x_max":689,"o":"m 689 951 l 669 879 l 422 879 l 299 0 l 218 0 l 342 879 l 90 879 l 100 951 l 689 951 m 579 1231 l 613 1192 l 431 1050 l 382 1050 l 240 1193 l 276 1231 l 413 1121 l 579 1231 z "},"Ţ":{"ha":619,"x_min":90,"x_max":689,"o":"m 689 951 l 669 879 l 422 879 l 299 0 l 297 0 l 283 -90 q 360 -119 335 -94 q 386 -183 386 -143 q 345 -276 386 -237 q 239 -315 304 -315 q 139 -283 179 -315 l 168 -236 q 238 -258 197 -258 q 294 -239 271 -258 q 318 -186 318 -219 q 295 -146 318 -158 q 217 -133 272 -133 l 246 0 l 218 0 l 342 879 l 90 879 l 100 951 l 689 951 z "},"Ṱ":{"ha":619,"x_min":40,"x_max":689,"o":"m 689 951 l 669 879 l 422 879 l 299 0 l 218 0 l 342 879 l 90 879 l 100 951 l 689 951 m 74 -283 l 40 -243 l 224 -97 l 271 -97 l 413 -244 l 375 -283 l 239 -167 l 74 -283 z "},"Ț":{"ha":619,"x_min":90,"x_max":689,"o":"m 689 951 l 669 879 l 422 879 l 299 0 l 218 0 l 342 879 l 90 879 l 100 951 l 689 951 m 243 -118 q 283 -133 268 -118 q 297 -171 297 -149 q 290 -208 297 -190 q 260 -264 282 -226 l 189 -386 l 142 -386 l 206 -226 q 182 -181 182 -210 q 199 -136 182 -154 q 243 -118 217 -118 z "},"Ⱦ":{"ha":619,"x_min":81,"x_max":689,"o":"m 669 879 l 532 879 l 368 490 l 299 0 l 218 0 l 247 204 l 119 -97 l 81 -82 l 269 365 l 342 879 l 90 879 l 100 951 l 517 951 l 551 1033 l 590 1018 l 563 951 l 689 951 l 669 879 m 390 651 l 486 879 l 422 879 l 390 651 z "},"Ṫ":{"ha":619,"x_min":90,"x_max":689,"o":"m 689 951 l 669 879 l 422 879 l 299 0 l 218 0 l 342 879 l 90 879 l 100 951 l 689 951 m 417 1106 q 378 1119 393 1106 q 364 1157 364 1133 q 382 1201 364 1183 q 426 1219 400 1219 q 464 1205 450 1219 q 478 1168 478 1190 q 460 1124 478 1142 q 417 1106 443 1106 z "},"Ṭ":{"ha":619,"x_min":90,"x_max":689,"o":"m 689 951 l 669 879 l 422 879 l 299 0 l 218 0 l 342 879 l 90 879 l 100 951 l 689 951 m 239 -121 q 277 -135 263 -121 q 292 -172 292 -149 q 274 -217 292 -199 q 229 -235 256 -235 q 192 -220 206 -235 q 178 -183 178 -206 q 195 -139 178 -157 q 239 -121 213 -121 z "},"Ƭ":{"ha":657,"x_min":79,"x_max":728,"o":"m 708 879 l 460 879 l 338 0 l 257 0 l 381 879 l 256 879 q 178 851 204 879 q 153 776 153 824 q 171 690 153 736 l 110 664 q 79 779 79 719 q 127 903 79 856 q 261 951 175 951 l 728 951 l 708 879 z "},"Ṯ":{"ha":619,"x_min":82,"x_max":689,"o":"m 689 951 l 669 879 l 422 879 l 299 0 l 218 0 l 342 879 l 90 879 l 100 951 l 689 951 m 92 -156 l 394 -156 l 385 -219 l 82 -219 l 92 -156 z "},"Ƽ":{"ha":622,"x_min":4,"x_max":611,"o":"m 231 -15 q 4 101 83 -15 l 57 144 q 133 74 90 96 q 233 51 175 51 q 374 101 319 51 q 453 223 429 150 q 478 368 478 296 q 440 494 478 453 q 335 535 403 535 q 256 524 293 535 q 176 490 219 513 l 113 490 l 178 951 l 611 951 l 590 886 l 243 886 l 197 553 q 354 599 272 599 q 505 538 451 599 q 558 368 558 478 q 525 191 558 279 q 418 44 492 103 q 231 -15 344 -15 z "},"Ƅ":{"ha":706,"x_min":89,"x_max":657,"o":"m 381 586 q 585 524 513 586 q 657 340 657 463 q 622 176 657 253 q 508 49 588 99 q 304 0 429 0 l 89 0 l 197 764 l 138 813 q 235 951 194 865 l 304 951 l 253 586 l 381 586 m 321 68 q 514 150 456 68 q 572 339 572 232 q 524 476 572 433 q 381 519 475 519 l 243 519 l 179 68 l 321 68 z "},"Ƨ":{"ha":657,"x_min":49,"x_max":660,"o":"m 444 967 q 602 913 544 967 q 660 771 660 860 q 627 636 660 690 q 533 545 594 582 q 372 474 471 508 q 232 409 283 443 q 156 328 181 375 q 132 210 132 281 q 176 94 132 135 q 294 54 219 54 q 423 81 364 54 q 538 154 482 107 l 579 101 q 289 -15 451 -15 q 115 46 181 -15 q 49 208 49 107 q 121 413 49 336 q 343 540 193 490 q 477 596 428 568 q 552 665 526 624 q 578 769 578 706 q 542 865 578 832 q 439 897 506 897 q 325 877 376 897 q 215 813 274 857 l 175 864 q 303 942 240 917 q 444 967 367 967 z "},"Ʈ":{"ha":619,"x_min":90,"x_max":689,"o":"m 282 -112 q 281 -140 281 -122 q 347 -217 281 -217 q 398 -209 376 -217 q 443 -186 419 -201 l 474 -239 q 340 -285 411 -285 q 238 -249 275 -285 q 200 -144 200 -212 q 203 -106 200 -133 l 217 0 l 218 0 l 342 879 l 90 879 l 100 951 l 689 951 l 669 879 l 422 879 l 299 0 l 297 0 l 282 -112 z "},"U":{"ha":810,"x_min":106,"x_max":769,"o":"m 674 267 q 572 63 656 142 q 354 -15 489 -15 q 169 49 232 -15 q 106 219 106 114 q 110 272 106 246 l 206 951 l 285 951 l 190 272 q 186 222 186 246 q 228 99 186 143 q 358 56 271 56 q 521 117 461 56 q 594 278 581 178 l 689 951 l 769 951 l 674 267 z "},"Ú":{"ha":810,"x_min":106,"x_max":769,"o":"m 674 267 q 572 63 656 142 q 354 -15 489 -15 q 169 49 232 -15 q 106 219 106 114 q 110 272 106 246 l 206 951 l 285 951 l 190 272 q 186 222 186 246 q 228 99 186 143 q 358 56 271 56 q 521 117 461 56 q 594 278 581 178 l 689 951 l 769 951 l 674 267 m 617 1228 l 647 1157 l 386 1053 l 365 1097 l 617 1228 z "},"Ʉ":{"ha":838,"x_min":106,"x_max":840,"o":"m 831 714 l 751 714 l 689 267 q 588 63 671 142 q 369 -15 504 -15 q 184 49 247 -15 q 121 219 121 114 q 125 272 121 246 l 188 714 l 106 714 l 115 774 l 196 774 l 221 951 l 300 951 l 275 774 l 679 774 l 704 951 l 785 951 l 760 774 l 840 774 l 831 714 m 671 714 l 267 714 l 206 272 q 201 222 201 246 q 244 99 201 143 q 374 56 286 56 q 536 117 476 56 q 610 278 596 178 l 671 714 z "},"Ŭ":{"ha":810,"x_min":106,"x_max":769,"o":"m 674 267 q 572 63 656 142 q 354 -15 489 -15 q 169 49 232 -15 q 106 219 106 114 q 110 272 106 246 l 206 951 l 285 951 l 190 272 q 186 222 186 246 q 228 99 186 143 q 358 56 271 56 q 521 117 461 56 q 594 278 581 178 l 689 951 l 769 951 l 674 267 m 501 1063 q 393 1102 433 1063 q 354 1203 353 1142 l 404 1210 q 503 1126 421 1126 q 579 1150 547 1126 q 629 1214 611 1174 l 682 1197 q 616 1100 665 1138 q 501 1063 567 1063 z "},"Ǔ":{"ha":810,"x_min":106,"x_max":769,"o":"m 674 267 q 572 63 656 142 q 354 -15 489 -15 q 169 49 232 -15 q 106 219 106 114 q 110 272 106 246 l 206 951 l 285 951 l 190 272 q 186 222 186 246 q 228 99 186 143 q 358 56 271 56 q 521 117 461 56 q 594 278 581 178 l 689 951 l 769 951 l 674 267 m 675 1231 l 708 1192 l 526 1050 l 478 1050 l 336 1193 l 372 1231 l 508 1121 l 675 1231 z "},"Û":{"ha":810,"x_min":106,"x_max":769,"o":"m 674 267 q 572 63 656 142 q 354 -15 489 -15 q 169 49 232 -15 q 106 219 106 114 q 110 272 106 246 l 206 951 l 285 951 l 190 272 q 186 222 186 246 q 228 99 186 143 q 358 56 271 56 q 521 117 461 56 q 594 278 581 178 l 689 951 l 769 951 l 674 267 m 347 1058 l 314 1099 l 497 1240 l 544 1240 l 686 1097 l 650 1058 l 515 1169 l 347 1058 z "},"Ȕ":{"ha":810,"x_min":106,"x_max":769,"o":"m 674 267 q 572 63 656 142 q 354 -15 489 -15 q 169 49 232 -15 q 106 219 106 114 q 110 272 106 246 l 206 951 l 285 951 l 190 272 q 186 222 186 246 q 228 99 186 143 q 358 56 271 56 q 521 117 461 56 q 594 278 581 178 l 689 951 l 769 951 l 674 267 m 383 1300 l 454 1089 l 400 1068 l 308 1267 l 383 1300 m 546 1300 l 608 1094 l 554 1074 l 471 1265 l 546 1300 z "},"Ü":{"ha":810,"x_min":106,"x_max":769,"o":"m 674 267 q 572 63 656 142 q 354 -15 489 -15 q 169 49 232 -15 q 106 219 106 114 q 110 272 106 246 l 206 951 l 285 951 l 190 272 q 186 222 186 246 q 228 99 186 143 q 358 56 271 56 q 521 117 461 56 q 594 278 581 178 l 689 951 l 769 951 l 674 267 m 392 1097 q 357 1110 369 1097 q 344 1143 344 1124 q 361 1186 344 1169 q 401 1203 378 1203 q 436 1190 422 1203 q 450 1156 450 1176 q 433 1114 450 1131 q 392 1097 417 1097 m 629 1097 q 595 1110 608 1097 q 582 1143 582 1124 q 599 1186 582 1169 q 640 1203 615 1203 q 674 1189 661 1203 q 688 1156 688 1175 q 671 1114 688 1131 q 629 1097 654 1097 z "},"Ǘ":{"ha":810,"x_min":106,"x_max":769,"o":"m 674 267 q 572 63 656 142 q 354 -15 489 -15 q 169 49 232 -15 q 106 219 106 114 q 110 272 106 246 l 206 951 l 285 951 l 190 272 q 186 222 186 246 q 228 99 186 143 q 358 56 271 56 q 521 117 461 56 q 594 278 581 178 l 689 951 l 769 951 l 674 267 m 635 1347 l 682 1299 l 506 1131 l 474 1161 l 635 1347 m 376 1035 q 342 1048 356 1035 q 329 1082 329 1061 q 346 1124 329 1107 q 388 1140 363 1140 q 422 1127 408 1140 q 435 1094 435 1114 q 418 1051 435 1068 q 376 1035 401 1035 m 614 1035 q 580 1048 593 1035 q 567 1082 567 1061 q 583 1124 567 1107 q 625 1140 600 1140 q 659 1127 646 1140 q 672 1094 672 1114 q 656 1051 672 1068 q 614 1035 639 1035 z "},"Ǚ":{"ha":810,"x_min":106,"x_max":769,"o":"m 674 267 q 572 63 656 142 q 354 -15 489 -15 q 169 49 232 -15 q 106 219 106 114 q 110 272 106 246 l 206 951 l 285 951 l 190 272 q 186 222 186 246 q 228 99 186 143 q 358 56 271 56 q 521 117 461 56 q 594 278 581 178 l 689 951 l 769 951 l 674 267 m 681 1331 l 714 1292 l 532 1150 l 483 1150 l 342 1293 l 378 1331 l 514 1221 l 681 1331 m 378 1035 q 344 1048 357 1035 q 331 1082 331 1061 q 347 1124 331 1107 q 389 1140 364 1140 q 423 1127 410 1140 q 436 1094 436 1114 q 419 1051 436 1068 q 378 1035 403 1035 m 617 1035 q 581 1048 594 1035 q 568 1082 568 1061 q 585 1124 568 1107 q 626 1140 601 1140 q 661 1128 649 1140 q 674 1094 674 1115 q 658 1051 674 1068 q 617 1035 642 1035 z "},"Ǜ":{"ha":810,"x_min":106,"x_max":769,"o":"m 674 267 q 572 63 656 142 q 354 -15 489 -15 q 169 49 232 -15 q 106 219 106 114 q 110 272 106 246 l 206 951 l 285 951 l 190 272 q 186 222 186 246 q 228 99 186 143 q 358 56 271 56 q 521 117 461 56 q 594 278 581 178 l 689 951 l 769 951 l 674 267 m 428 1346 l 539 1157 l 501 1131 l 371 1303 l 428 1346 m 378 1035 q 344 1048 357 1035 q 331 1082 331 1061 q 347 1124 331 1107 q 389 1140 364 1140 q 423 1127 410 1140 q 436 1094 436 1114 q 419 1051 436 1068 q 378 1035 403 1035 m 615 1035 q 581 1048 594 1035 q 568 1082 568 1061 q 585 1124 568 1107 q 626 1140 601 1140 q 660 1127 647 1140 q 674 1094 674 1114 q 657 1051 674 1068 q 615 1035 640 1035 z "},"Ǖ":{"ha":810,"x_min":106,"x_max":769,"o":"m 674 267 q 572 63 656 142 q 354 -15 489 -15 q 169 49 232 -15 q 106 219 106 114 q 110 272 106 246 l 206 951 l 285 951 l 190 272 q 186 222 186 246 q 228 99 186 143 q 358 56 271 56 q 521 117 461 56 q 594 278 581 178 l 689 951 l 769 951 l 674 267 m 376 1035 q 342 1048 354 1035 q 329 1081 329 1061 q 346 1124 329 1107 q 386 1140 363 1140 q 421 1127 407 1140 q 435 1093 435 1114 q 418 1051 435 1068 q 376 1035 401 1035 m 614 1035 q 580 1048 593 1035 q 567 1081 567 1061 q 583 1124 567 1107 q 625 1140 600 1140 q 659 1126 646 1140 q 672 1093 672 1113 q 656 1051 672 1068 q 614 1035 639 1035 m 667 1218 l 364 1218 l 374 1282 l 676 1282 l 667 1218 z "},"Ụ":{"ha":810,"x_min":106,"x_max":769,"o":"m 674 267 q 572 63 656 142 q 354 -15 489 -15 q 169 49 232 -15 q 106 219 106 114 q 110 272 106 246 l 206 951 l 285 951 l 190 272 q 186 222 186 246 q 228 99 186 143 q 358 56 271 56 q 521 117 461 56 q 594 278 581 178 l 689 951 l 769 951 l 674 267 m 335 -121 q 373 -135 358 -121 q 388 -172 388 -149 q 369 -217 388 -199 q 325 -235 351 -235 q 288 -220 301 -235 q 274 -183 274 -206 q 291 -139 274 -157 q 335 -121 308 -121 z "},"Ù":{"ha":810,"x_min":106,"x_max":769,"o":"m 674 267 q 572 63 656 142 q 354 -15 489 -15 q 169 49 232 -15 q 106 219 106 114 q 110 272 106 246 l 206 951 l 285 951 l 190 272 q 186 222 186 246 q 228 99 186 143 q 358 56 271 56 q 521 117 461 56 q 594 278 581 178 l 689 951 l 769 951 l 674 267 m 429 1226 l 646 1097 l 618 1053 l 389 1157 l 429 1226 z "},"Ủ":{"ha":810,"x_min":106,"x_max":769,"o":"m 674 267 q 572 63 656 142 q 354 -15 489 -15 q 169 49 232 -15 q 106 219 106 114 q 110 272 106 246 l 206 951 l 285 951 l 190 272 q 186 222 186 246 q 228 99 186 143 q 358 56 271 56 q 521 117 461 56 q 594 278 581 178 l 689 951 l 769 951 l 674 267 m 485 1176 q 557 1197 531 1181 q 583 1251 583 1214 q 535 1299 583 1299 q 500 1294 515 1299 q 461 1279 485 1289 l 443 1329 q 544 1357 494 1357 q 624 1328 594 1357 q 654 1253 654 1300 q 625 1175 654 1204 q 544 1139 596 1146 l 536 1075 l 474 1075 l 485 1176 z "},"Ư":{"ha":821,"x_min":106,"x_max":899,"o":"m 899 988 q 751 825 899 843 l 674 267 q 572 63 656 142 q 354 -15 489 -15 q 169 49 232 -15 q 106 219 106 114 q 110 272 106 246 l 206 951 l 285 951 l 190 272 q 186 222 186 246 q 228 99 186 143 q 358 56 271 56 q 521 117 461 56 q 594 278 581 178 l 689 951 l 769 951 l 760 879 q 817 915 800 889 q 835 989 835 942 q 826 1054 835 1029 l 886 1067 q 899 988 899 1035 z "},"Ứ":{"ha":821,"x_min":106,"x_max":899,"o":"m 647 1157 l 386 1053 l 365 1097 l 617 1228 l 647 1157 m 899 988 q 751 825 899 843 l 674 267 q 572 63 656 142 q 354 -15 489 -15 q 169 49 232 -15 q 106 219 106 114 q 110 272 106 246 l 206 951 l 285 951 l 190 272 q 186 222 186 246 q 228 99 186 143 q 358 56 271 56 q 521 117 461 56 q 594 278 581 178 l 689 951 l 769 951 l 760 879 q 817 915 800 889 q 835 989 835 942 q 826 1054 835 1029 l 886 1067 q 899 988 899 1035 z "},"Ự":{"ha":821,"x_min":106,"x_max":899,"o":"m 899 988 q 751 825 899 843 l 674 267 q 572 63 656 142 q 354 -15 489 -15 q 169 49 232 -15 q 106 219 106 114 q 110 272 106 246 l 206 951 l 285 951 l 190 272 q 186 222 186 246 q 228 99 186 143 q 358 56 271 56 q 521 117 461 56 q 594 278 581 178 l 689 951 l 769 951 l 760 879 q 817 915 800 889 q 835 989 835 942 q 826 1054 835 1029 l 886 1067 q 899 988 899 1035 m 335 -121 q 373 -135 358 -121 q 388 -172 388 -149 q 369 -217 388 -199 q 325 -235 351 -235 q 288 -220 301 -235 q 274 -183 274 -206 q 291 -139 274 -157 q 335 -121 308 -121 z "},"Ừ":{"ha":821,"x_min":106,"x_max":899,"o":"m 646 1097 l 618 1053 l 389 1157 l 429 1226 l 646 1097 m 899 988 q 751 825 899 843 l 674 267 q 572 63 656 142 q 354 -15 489 -15 q 169 49 232 -15 q 106 219 106 114 q 110 272 106 246 l 206 951 l 285 951 l 190 272 q 186 222 186 246 q 228 99 186 143 q 358 56 271 56 q 521 117 461 56 q 594 278 581 178 l 689 951 l 769 951 l 760 879 q 817 915 800 889 q 835 989 835 942 q 826 1054 835 1029 l 886 1067 q 899 988 899 1035 z "},"Ử":{"ha":821,"x_min":106,"x_max":899,"o":"m 535 1299 q 500 1294 515 1299 q 461 1279 485 1289 l 443 1329 q 544 1357 494 1357 q 624 1328 594 1357 q 654 1253 654 1300 q 625 1175 654 1204 q 544 1139 596 1146 l 536 1075 l 474 1075 l 485 1176 q 557 1197 531 1181 q 583 1251 583 1214 q 535 1299 583 1299 m 899 988 q 751 825 899 843 l 674 267 q 572 63 656 142 q 354 -15 489 -15 q 169 49 232 -15 q 106 219 106 114 q 110 272 106 246 l 206 951 l 285 951 l 190 272 q 186 222 186 246 q 228 99 186 143 q 358 56 271 56 q 521 117 461 56 q 594 278 581 178 l 689 951 l 769 951 l 760 879 q 817 915 800 889 q 835 989 835 942 q 826 1054 835 1029 l 886 1067 q 899 988 899 1035 z "},"Ữ":{"ha":821,"x_min":106,"x_max":899,"o":"m 446 1164 q 408 1151 424 1164 q 368 1107 392 1138 l 325 1136 q 447 1226 383 1226 q 489 1217 471 1226 q 529 1192 507 1208 q 562 1170 550 1176 q 589 1164 574 1164 q 626 1178 608 1164 q 667 1224 644 1192 l 711 1197 q 589 1101 657 1101 q 544 1111 564 1101 q 504 1138 525 1121 q 473 1158 486 1151 q 446 1164 460 1164 m 899 988 q 751 825 899 843 l 674 267 q 572 63 656 142 q 354 -15 489 -15 q 169 49 232 -15 q 106 219 106 114 q 110 272 106 246 l 206 951 l 285 951 l 190 272 q 186 222 186 246 q 228 99 186 143 q 358 56 271 56 q 521 117 461 56 q 594 278 581 178 l 689 951 l 769 951 l 760 879 q 817 915 800 889 q 835 989 835 942 q 826 1054 835 1029 l 886 1067 q 899 988 899 1035 z "},"Ű":{"ha":810,"x_min":106,"x_max":769,"o":"m 674 267 q 572 63 656 142 q 354 -15 489 -15 q 169 49 232 -15 q 106 219 106 114 q 110 272 106 246 l 206 951 l 285 951 l 190 272 q 186 222 186 246 q 228 99 186 143 q 358 56 271 56 q 521 117 461 56 q 594 278 581 178 l 689 951 l 769 951 l 674 267 m 511 1300 l 574 1263 l 440 1074 l 394 1097 l 511 1300 m 675 1300 l 738 1264 l 593 1068 l 546 1092 l 675 1300 z "},"Ȗ":{"ha":810,"x_min":106,"x_max":769,"o":"m 674 267 q 572 63 656 142 q 354 -15 489 -15 q 169 49 232 -15 q 106 219 106 114 q 110 272 106 246 l 206 951 l 285 951 l 190 272 q 186 222 186 246 q 228 99 186 143 q 358 56 271 56 q 521 117 461 56 q 594 278 581 178 l 689 951 l 769 951 l 674 267 m 340 1106 q 408 1215 358 1175 q 522 1256 457 1256 q 631 1213 590 1256 q 669 1100 671 1169 l 617 1093 q 519 1190 607 1190 q 390 1089 429 1190 l 340 1106 z "},"Ū":{"ha":810,"x_min":106,"x_max":769,"o":"m 674 267 q 572 63 656 142 q 354 -15 489 -15 q 169 49 232 -15 q 106 219 106 114 q 110 272 106 246 l 206 951 l 285 951 l 190 272 q 186 222 186 246 q 228 99 186 143 q 358 56 271 56 q 521 117 461 56 q 594 278 581 178 l 689 951 l 769 951 l 674 267 m 661 1114 l 358 1114 l 368 1178 l 671 1178 l 661 1114 z "},"Ų":{"ha":810,"x_min":106,"x_max":769,"o":"m 769 951 l 674 267 q 602 94 660 167 q 451 -3 544 22 q 335 -81 369 -44 q 301 -165 301 -117 q 322 -217 301 -199 q 381 -236 342 -236 q 451 -228 410 -236 l 443 -293 q 369 -301 406 -301 q 267 -267 303 -301 q 231 -178 231 -232 q 354 -15 231 -78 q 169 49 232 -15 q 106 219 106 114 q 110 272 106 246 l 206 951 l 285 951 l 190 272 q 186 222 186 246 q 228 99 186 143 q 358 56 271 56 q 521 117 461 56 q 594 278 581 178 l 689 951 l 769 951 z "},"Ʊ":{"ha":878,"x_min":93,"x_max":849,"o":"m 383 -15 q 170 77 247 -15 q 93 335 93 169 q 155 656 93 508 q 347 883 217 803 l 193 883 l 203 951 l 446 951 l 436 882 q 237 656 299 810 q 175 332 175 503 q 230 124 175 194 q 386 53 285 53 q 580 135 501 53 q 695 341 658 217 q 732 593 732 465 q 698 769 732 700 q 597 883 664 838 l 607 951 l 849 951 l 839 882 l 685 882 q 781 765 749 833 q 814 593 814 696 q 765 305 814 444 q 619 75 717 165 q 383 -15 521 -15 z "},"Ů":{"ha":810,"x_min":106,"x_max":769,"o":"m 674 267 q 572 63 656 142 q 354 -15 489 -15 q 169 49 232 -15 q 106 219 106 114 q 110 272 106 246 l 206 951 l 285 951 l 190 272 q 186 222 186 246 q 228 99 186 143 q 358 56 271 56 q 521 117 461 56 q 594 278 581 178 l 689 951 l 769 951 l 674 267 m 535 1314 q 616 1282 585 1314 q 647 1200 647 1250 q 607 1095 647 1136 q 507 1054 567 1054 q 426 1086 457 1054 q 394 1168 394 1118 q 435 1273 394 1232 q 535 1314 475 1314 m 532 1265 q 473 1238 494 1265 q 451 1169 451 1211 q 467 1120 451 1138 q 510 1103 482 1103 q 569 1131 547 1103 q 590 1200 590 1158 q 575 1249 590 1232 q 532 1265 560 1265 z "},"Ũ":{"ha":810,"x_min":106,"x_max":769,"o":"m 674 267 q 572 63 656 142 q 354 -15 489 -15 q 169 49 232 -15 q 106 219 106 114 q 110 272 106 246 l 206 951 l 285 951 l 190 272 q 186 222 186 246 q 228 99 186 143 q 358 56 271 56 q 521 117 461 56 q 594 278 581 178 l 689 951 l 769 951 l 674 267 m 589 1101 q 544 1111 564 1101 q 504 1138 525 1121 q 473 1158 486 1151 q 446 1164 460 1164 q 408 1151 424 1164 q 368 1107 392 1138 l 325 1136 q 447 1226 383 1226 q 489 1217 471 1226 q 529 1192 507 1208 q 562 1170 550 1176 q 589 1164 574 1164 q 626 1178 608 1164 q 667 1224 644 1192 l 711 1197 q 589 1101 657 1101 z "},"Ṹ":{"ha":810,"x_min":106,"x_max":769,"o":"m 674 267 q 572 63 656 142 q 354 -15 489 -15 q 169 49 232 -15 q 106 219 106 114 q 110 272 106 246 l 206 951 l 285 951 l 190 272 q 186 222 186 246 q 228 99 186 143 q 358 56 271 56 q 521 117 461 56 q 594 278 581 178 l 689 951 l 769 951 l 674 267 m 583 1053 q 539 1063 558 1053 q 499 1089 519 1072 q 467 1109 481 1103 q 440 1115 454 1115 q 402 1102 418 1115 q 363 1058 386 1089 l 319 1088 q 442 1178 378 1178 q 483 1169 465 1178 q 524 1143 501 1160 q 556 1122 544 1128 q 583 1115 568 1115 q 621 1129 603 1115 q 661 1175 639 1143 l 706 1149 q 583 1053 651 1053 m 638 1393 l 668 1322 l 407 1218 l 386 1263 l 638 1393 z "},"V":{"ha":690,"x_min":106,"x_max":750,"o":"m 750 951 l 340 0 l 247 0 l 106 951 l 189 951 l 306 85 l 665 951 l 750 951 z "},"Ʋ":{"ha":797,"x_min":104,"x_max":754,"o":"m 644 967 q 725 937 696 967 q 754 853 754 907 q 751 822 754 844 l 690 386 q 564 90 663 194 q 326 -15 465 -15 q 164 46 224 -15 q 104 207 104 107 q 107 254 104 238 l 204 951 l 285 951 l 188 254 q 185 208 185 238 q 223 95 185 135 q 331 56 261 56 q 513 143 438 56 q 611 399 588 231 l 671 829 q 672 849 672 836 q 629 900 672 900 q 576 888 607 900 l 558 943 q 644 967 599 967 z "},"Ʌ":{"ha":714,"x_min":-28,"x_max":639,"o":"m 490 951 l 639 0 l 557 0 l 431 885 l 56 0 l -28 0 l 389 951 l 490 951 z "},"W":{"ha":1017,"x_min":124,"x_max":1058,"o":"m 1058 951 l 739 0 l 639 0 l 578 861 l 275 0 l 175 0 l 124 951 l 200 951 l 238 78 l 544 951 l 636 951 l 697 76 l 982 951 l 1058 951 z "},"Ẃ":{"ha":1017,"x_min":124,"x_max":1058,"o":"m 1058 951 l 739 0 l 639 0 l 578 861 l 275 0 l 175 0 l 124 951 l 200 951 l 238 78 l 544 951 l 636 951 l 697 76 l 982 951 l 1058 951 m 719 1228 l 750 1157 l 489 1053 l 468 1097 l 719 1228 z "},"Ŵ":{"ha":1017,"x_min":124,"x_max":1058,"o":"m 1058 951 l 739 0 l 639 0 l 578 861 l 275 0 l 175 0 l 124 951 l 200 951 l 238 78 l 544 951 l 636 951 l 697 76 l 982 951 l 1058 951 m 450 1058 l 417 1099 l 600 1240 l 647 1240 l 789 1097 l 753 1058 l 618 1169 l 450 1058 z "},"Ẅ":{"ha":1017,"x_min":124,"x_max":1058,"o":"m 1058 951 l 739 0 l 639 0 l 578 861 l 275 0 l 175 0 l 124 951 l 200 951 l 238 78 l 544 951 l 636 951 l 697 76 l 982 951 l 1058 951 m 494 1097 q 460 1110 472 1097 q 447 1143 447 1124 q 464 1186 447 1169 q 504 1203 481 1203 q 539 1190 525 1203 q 553 1156 553 1176 q 536 1114 553 1131 q 494 1097 519 1097 m 732 1097 q 698 1110 711 1097 q 685 1143 685 1124 q 701 1186 685 1169 q 743 1203 718 1203 q 777 1189 764 1203 q 790 1156 790 1175 q 774 1114 790 1131 q 732 1097 757 1097 z "},"Ẁ":{"ha":1017,"x_min":124,"x_max":1058,"o":"m 1058 951 l 739 0 l 639 0 l 578 861 l 275 0 l 175 0 l 124 951 l 200 951 l 238 78 l 544 951 l 636 951 l 697 76 l 982 951 l 1058 951 m 532 1226 l 749 1097 l 721 1053 l 492 1157 l 532 1226 z "},"Ⱳ":{"ha":1054,"x_min":124,"x_max":1208,"o":"m 275 0 l 578 861 l 639 0 l 739 0 l 1007 825 q 1040 884 1021 867 q 1090 901 1060 901 q 1131 892 1113 901 q 1169 867 1149 883 l 1208 910 q 1088 967 1157 967 q 997 938 1033 967 q 939 843 960 910 l 697 75 l 636 951 l 544 951 l 238 78 l 200 951 l 124 951 l 175 0 l 275 0 z "},"Ƿ":{"ha":707,"x_min":85,"x_max":710,"o":"m 507 967 q 654 910 599 967 q 710 753 710 853 q 612 505 710 597 q 338 344 514 413 l 207 294 l 165 0 l 85 0 l 218 951 l 299 951 l 289 879 q 507 967 392 967 m 339 414 q 550 548 475 469 q 625 750 625 626 q 590 860 625 822 q 492 897 556 897 q 278 806 379 897 l 217 364 l 339 414 z "},"X":{"ha":642,"x_min":-40,"x_max":679,"o":"m 679 951 l 385 514 l 579 0 l 493 0 l 333 456 l 49 0 l -40 0 l 290 511 l 119 951 l 207 951 l 343 565 l 590 951 l 679 951 z "},"Y":{"ha":654,"x_min":99,"x_max":721,"o":"m 721 951 l 369 372 l 317 0 l 235 0 l 288 371 l 99 951 l 182 951 l 336 446 l 632 951 l 721 951 z "},"Ý":{"ha":654,"x_min":99,"x_max":721,"o":"m 721 951 l 369 372 l 317 0 l 235 0 l 288 371 l 99 951 l 182 951 l 336 446 l 632 951 l 721 951 m 536 1228 l 567 1157 l 306 1053 l 285 1097 l 536 1228 z "},"Ŷ":{"ha":654,"x_min":99,"x_max":721,"o":"m 721 951 l 369 372 l 317 0 l 235 0 l 288 371 l 99 951 l 182 951 l 336 446 l 632 951 l 721 951 m 267 1058 l 233 1099 l 417 1240 l 464 1240 l 606 1097 l 569 1058 l 435 1169 l 267 1058 z "},"Ÿ":{"ha":654,"x_min":99,"x_max":721,"o":"m 721 951 l 369 372 l 317 0 l 235 0 l 288 371 l 99 951 l 182 951 l 336 446 l 632 951 l 721 951 m 311 1097 q 276 1110 289 1097 q 264 1143 264 1124 q 281 1186 264 1169 q 321 1203 297 1203 q 356 1190 342 1203 q 369 1156 369 1176 q 353 1114 369 1131 q 311 1097 336 1097 m 549 1097 q 515 1110 528 1097 q 501 1143 501 1124 q 518 1186 501 1169 q 560 1203 535 1203 q 594 1189 581 1203 q 607 1156 607 1175 q 590 1114 607 1131 q 549 1097 574 1097 z "},"Ỵ":{"ha":654,"x_min":99,"x_max":721,"o":"m 721 951 l 369 372 l 317 0 l 235 0 l 288 371 l 99 951 l 182 951 l 336 446 l 632 951 l 721 951 m 257 -121 q 295 -135 281 -121 q 310 -172 310 -149 q 292 -217 310 -199 q 247 -235 274 -235 q 210 -220 224 -235 q 196 -183 196 -206 q 213 -139 196 -157 q 257 -121 231 -121 z "},"Ỳ":{"ha":654,"x_min":99,"x_max":721,"o":"m 721 951 l 369 372 l 317 0 l 235 0 l 288 371 l 99 951 l 182 951 l 336 446 l 632 951 l 721 951 m 349 1226 l 565 1097 l 538 1053 l 308 1157 l 349 1226 z "},"Ƴ":{"ha":683,"x_min":99,"x_max":838,"o":"m 288 371 l 99 951 l 183 951 l 338 446 l 557 849 q 628 940 592 914 q 717 967 664 967 q 838 910 786 967 l 799 867 q 760 892 778 883 q 721 901 742 901 q 669 885 690 901 q 624 825 649 868 l 369 372 l 317 0 l 235 0 l 288 371 z "},"Ỷ":{"ha":654,"x_min":99,"x_max":721,"o":"m 721 951 l 369 372 l 317 0 l 235 0 l 288 371 l 99 951 l 182 951 l 336 446 l 632 951 l 721 951 m 404 1176 q 476 1197 450 1181 q 503 1251 503 1214 q 454 1299 503 1299 q 419 1294 435 1299 q 381 1279 404 1289 l 363 1329 q 464 1357 414 1357 q 544 1328 514 1357 q 574 1253 574 1300 q 544 1175 574 1204 q 464 1139 515 1146 l 456 1075 l 393 1075 l 404 1176 z "},"Ȳ":{"ha":654,"x_min":99,"x_max":721,"o":"m 721 951 l 369 372 l 317 0 l 235 0 l 288 371 l 99 951 l 182 951 l 336 446 l 632 951 l 721 951 m 581 1114 l 278 1114 l 288 1178 l 590 1178 l 581 1114 z "},"Ʀ":{"ha":735,"x_min":85,"x_max":676,"o":"m 676 560 q 620 377 676 458 q 447 265 564 296 l 619 -176 l 533 -176 l 369 251 l 200 251 l 165 0 l 85 0 l 218 951 l 299 951 l 274 775 l 400 775 q 676 560 676 775 m 347 318 q 535 389 478 318 q 592 558 592 460 q 547 672 592 636 q 400 708 501 708 l 264 708 l 210 318 l 347 318 z "},"Ɏ":{"ha":657,"x_min":74,"x_max":724,"o":"m 647 825 l 707 825 l 697 765 l 611 765 l 372 372 l 319 0 l 238 0 l 290 371 l 161 765 l 74 765 l 83 825 l 142 825 l 100 951 l 185 951 l 224 825 l 561 825 l 635 951 l 724 951 l 647 825 m 339 446 l 526 765 l 242 765 l 339 446 z "},"Ỹ":{"ha":654,"x_min":99,"x_max":721,"o":"m 721 951 l 369 372 l 317 0 l 235 0 l 288 371 l 99 951 l 182 951 l 336 446 l 632 951 l 721 951 m 508 1101 q 464 1111 483 1101 q 424 1138 444 1121 q 392 1158 406 1151 q 365 1164 379 1164 q 327 1151 343 1164 q 288 1107 311 1138 l 244 1136 q 367 1226 303 1226 q 408 1217 390 1226 q 449 1192 426 1208 q 481 1170 469 1176 q 508 1164 493 1164 q 546 1178 528 1164 q 586 1224 564 1192 l 631 1197 q 508 1101 576 1101 z "},"Z":{"ha":642,"x_min":-10,"x_max":667,"o":"m -10 0 l 0 67 l 568 881 l 160 881 l 171 951 l 667 951 l 657 885 l 92 71 l 536 72 l 515 0 l -10 0 z "},"Ź":{"ha":642,"x_min":-10,"x_max":667,"o":"m -10 0 l 0 67 l 568 881 l 160 881 l 171 951 l 667 951 l 657 885 l 92 71 l 536 72 l 515 0 l -10 0 m 539 1228 l 569 1157 l 308 1053 l 288 1097 l 539 1228 z "},"Ž":{"ha":642,"x_min":-10,"x_max":667,"o":"m -10 0 l 0 67 l 568 881 l 160 881 l 171 951 l 667 951 l 657 885 l 92 71 l 536 72 l 515 0 l -10 0 m 597 1231 l 631 1192 l 449 1050 l 400 1050 l 258 1193 l 294 1231 l 431 1121 l 597 1231 z "},"Ż":{"ha":642,"x_min":-10,"x_max":667,"o":"m -10 0 l 0 67 l 568 881 l 160 881 l 171 951 l 667 951 l 657 885 l 92 71 l 536 72 l 515 0 l -10 0 m 435 1106 q 397 1119 411 1106 q 382 1157 382 1133 q 400 1201 382 1183 q 444 1219 418 1219 q 482 1205 468 1219 q 496 1168 496 1190 q 478 1124 496 1142 q 435 1106 461 1106 z "},"Ẓ":{"ha":642,"x_min":-10,"x_max":667,"o":"m -10 0 l 0 67 l 568 881 l 160 881 l 171 951 l 667 951 l 657 885 l 92 71 l 536 72 l 515 0 l -10 0 m 235 -121 q 273 -135 258 -121 q 288 -172 288 -149 q 269 -217 288 -199 q 225 -235 251 -235 q 188 -220 201 -235 q 174 -183 174 -206 q 191 -139 174 -157 q 235 -121 208 -121 z "},"Ȥ":{"ha":640,"x_min":-10,"x_max":667,"o":"m 657 885 l 92 71 l 531 72 l 521 0 l 504 -110 q 444 -240 492 -196 q 325 -285 396 -285 q 200 -236 254 -285 l 238 -186 q 277 -210 258 -203 q 324 -218 296 -218 q 391 -190 364 -218 q 426 -106 418 -162 l 442 0 l -10 0 l 0 67 l 568 881 l 160 881 l 171 951 l 667 951 l 657 885 z "},"Ƶ":{"ha":642,"x_min":-10,"x_max":667,"o":"m 667 951 l 657 885 l 397 511 l 525 511 l 514 446 l 351 446 l 90 71 l 536 72 l 515 0 l -10 0 l 0 67 l 265 446 l 132 446 l 143 511 l 310 511 l 568 881 l 160 881 l 171 951 l 667 951 z "},"ʙ":{"ha":654,"x_min":79,"x_max":600,"o":"m 442 393 q 588 250 588 378 q 505 64 588 128 q 285 0 422 0 l 79 0 l 181 719 q 381 742 289 742 q 543 696 486 742 q 600 571 600 650 q 558 453 599 499 q 442 393 517 408 m 379 676 q 251 665 318 676 l 217 419 l 354 419 q 476 460 432 419 q 521 569 519 500 q 487 649 521 622 q 379 676 453 676 m 282 65 q 446 109 383 65 q 508 249 508 153 q 472 332 508 307 q 358 357 435 357 l 208 357 l 167 65 l 282 65 z "},"ɢ":{"ha":692,"x_min":72,"x_max":619,"o":"m 422 743 q 531 723 485 743 q 619 663 578 703 l 572 615 q 501 662 538 647 q 421 676 465 676 q 276 619 338 676 q 184 467 215 561 q 153 263 153 372 q 197 103 153 153 q 325 53 240 53 q 476 90 401 53 l 508 332 l 372 332 l 374 397 l 594 397 l 547 51 q 319 -12 439 -12 q 137 58 201 -12 q 72 268 72 129 q 116 508 72 399 q 240 680 160 617 q 422 743 319 743 z "},"ʛ":{"ha":689,"x_min":71,"x_max":874,"o":"m 747 1032 q 874 983 815 1032 l 836 935 q 795 958 815 950 q 749 967 775 967 q 681 940 708 967 q 646 854 654 913 l 619 663 l 579 622 q 502 663 540 650 q 421 676 464 676 q 276 619 336 676 q 183 467 215 561 q 151 263 151 372 q 325 53 151 53 q 475 90 403 53 l 508 332 l 372 332 l 372 397 l 594 397 l 547 51 q 319 -12 439 -12 q 136 58 201 -12 q 71 264 71 128 q 115 506 71 396 q 239 679 160 615 q 419 743 318 743 q 550 710 496 743 l 571 857 q 629 988 583 943 q 747 1032 675 1032 z "},"ʜ":{"ha":732,"x_min":79,"x_max":654,"o":"m 474 0 l 522 343 l 206 343 l 157 0 l 79 0 l 182 726 l 260 726 l 214 410 l 532 410 l 576 726 l 654 726 l 551 0 l 474 0 z "},"ɪ":{"ha":388,"x_min":-22,"x_max":410,"o":"m 401 665 l 275 665 l 190 61 l 317 61 l 308 0 l -22 0 l -14 61 l 111 61 l 197 665 l 71 665 l 79 726 l 410 726 l 401 665 z "},"ʟ":{"ha":515,"x_min":79,"x_max":464,"o":"m 260 726 l 167 68 l 464 68 l 443 0 l 79 0 l 182 726 l 260 726 z "},"ɴ":{"ha":735,"x_min":79,"x_max":656,"o":"m 553 0 l 456 0 l 232 647 q 206 390 224 519 l 150 0 l 79 0 l 182 726 l 279 726 l 503 78 q 525 310 506 175 l 583 726 l 656 726 l 553 0 z "},"ɶ":{"ha":904,"x_min":71,"x_max":908,"o":"m 889 663 l 579 663 q 627 578 610 631 q 644 461 644 526 l 643 408 l 814 408 l 804 346 l 635 346 q 582 183 619 257 q 486 64 544 108 l 819 64 l 811 0 l 389 0 q 301 -15 347 -15 q 131 58 192 -15 q 71 263 71 132 q 106 481 71 371 q 217 667 140 592 q 413 742 294 742 q 500 726 464 742 l 908 726 l 889 663 m 306 51 q 455 119 397 51 q 538 283 513 186 q 564 471 564 379 q 525 624 564 572 q 411 676 486 676 q 260 608 318 676 q 176 444 201 540 q 151 257 151 349 q 191 103 151 156 q 306 51 231 51 z "},"ʀ":{"ha":643,"x_min":79,"x_max":582,"o":"m 582 540 q 533 394 582 450 q 396 314 483 338 l 540 0 l 458 0 l 325 301 l 197 301 l 156 0 l 79 0 l 182 726 l 344 726 q 522 679 461 726 q 582 540 582 632 m 306 364 q 450 410 399 364 q 501 539 501 456 q 463 633 501 603 q 339 663 424 663 l 249 663 l 207 364 l 306 364 z "},"ʁ":{"ha":644,"x_min":79,"x_max":644,"o":"m 413 411 q 506 349 474 392 q 539 244 539 307 q 460 62 539 124 q 249 0 382 0 l 79 0 l 182 726 l 258 726 l 215 425 l 346 425 l 561 726 l 644 726 l 413 411 m 251 64 q 404 108 350 64 q 458 243 458 153 q 313 363 458 363 l 207 363 l 164 64 l 251 64 z "},"ʏ":{"ha":565,"x_min":74,"x_max":596,"o":"m 596 726 l 311 286 l 271 0 l 193 0 l 233 285 l 74 726 l 154 726 l 279 347 l 510 726 l 596 726 z "},"a":{"ha":710,"x_min":69,"x_max":631,"o":"m 425 742 q 532 728 483 742 q 631 686 581 714 l 556 158 q 550 106 550 117 q 559 65 550 81 q 589 40 568 50 l 564 -15 q 499 26 521 -3 q 479 111 478 54 q 274 -15 390 -15 q 124 56 178 -15 q 69 249 69 126 q 107 477 69 364 q 224 666 144 590 q 425 742 304 742 m 425 678 q 270 613 332 678 q 179 449 208 547 q 150 250 150 350 q 185 101 150 151 q 286 50 219 50 q 391 88 343 50 q 483 199 439 126 l 547 649 q 425 678 493 678 z "},"á":{"ha":710,"x_min":69,"x_max":631,"o":"m 425 742 q 532 728 483 742 q 631 686 581 714 l 556 158 q 550 106 550 117 q 559 65 550 81 q 589 40 568 50 l 564 -15 q 499 26 521 -3 q 479 111 478 54 q 274 -15 390 -15 q 124 56 178 -15 q 69 249 69 126 q 107 477 69 364 q 224 666 144 590 q 425 742 304 742 m 425 678 q 270 613 332 678 q 179 449 208 547 q 150 250 150 350 q 185 101 150 151 q 286 50 219 50 q 391 88 343 50 q 483 199 439 126 l 547 649 q 425 678 493 678 m 579 1085 l 611 1014 l 350 896 l 326 940 l 579 1085 z "},"ă":{"ha":710,"x_min":69,"x_max":640,"o":"m 425 742 q 532 728 483 742 q 631 686 581 714 l 556 158 q 550 106 550 117 q 559 65 550 81 q 589 40 568 50 l 564 -15 q 499 26 521 -3 q 479 111 478 54 q 274 -15 390 -15 q 124 56 178 -15 q 69 249 69 126 q 107 477 69 364 q 224 666 144 590 q 425 742 304 742 m 425 678 q 270 613 332 678 q 179 449 208 547 q 150 250 150 350 q 185 101 150 151 q 286 50 219 50 q 391 88 343 50 q 483 199 439 126 l 547 649 q 425 678 493 678 m 457 907 q 349 950 389 907 q 311 1063 310 993 l 365 1069 q 393 997 371 1021 q 458 972 415 972 q 537 999 503 972 q 589 1074 571 1025 l 640 1057 q 573 947 622 988 q 457 907 524 907 z "},"ắ":{"ha":710,"x_min":69,"x_max":635,"o":"m 588 1200 l 635 1151 l 458 983 l 426 1014 l 588 1200 m 449 828 q 340 867 381 828 q 301 968 300 907 l 351 975 q 450 892 368 892 q 526 915 494 892 q 576 979 558 939 l 629 963 q 563 865 613 903 q 449 828 514 828 m 425 742 q 532 728 483 742 q 631 686 581 714 l 556 158 q 550 106 550 117 q 559 65 550 81 q 589 40 568 50 l 564 -15 q 499 26 521 -3 q 479 111 478 54 q 274 -15 390 -15 q 124 56 178 -15 q 69 249 69 126 q 107 477 69 364 q 224 666 144 590 q 425 742 304 742 m 425 678 q 270 613 332 678 q 179 449 208 547 q 150 250 150 350 q 185 101 150 151 q 286 50 219 50 q 391 88 343 50 q 483 199 439 126 l 547 649 q 425 678 493 678 z "},"ặ":{"ha":710,"x_min":69,"x_max":640,"o":"m 425 742 q 532 728 483 742 q 631 686 581 714 l 556 158 q 550 106 550 117 q 559 65 550 81 q 589 40 568 50 l 564 -15 q 499 26 521 -3 q 479 111 478 54 q 274 -15 390 -15 q 124 56 178 -15 q 69 249 69 126 q 107 477 69 364 q 224 666 144 590 q 425 742 304 742 m 425 678 q 270 613 332 678 q 179 449 208 547 q 150 250 150 350 q 185 101 150 151 q 286 50 219 50 q 391 88 343 50 q 483 199 439 126 l 547 649 q 425 678 493 678 m 457 907 q 349 950 389 907 q 311 1063 310 993 l 365 1069 q 393 997 371 1021 q 458 972 415 972 q 537 999 503 972 q 589 1074 571 1025 l 640 1057 q 573 947 622 988 q 457 907 524 907 m 315 -121 q 353 -135 339 -121 q 368 -172 368 -149 q 350 -217 368 -199 q 306 -235 332 -235 q 268 -220 282 -235 q 254 -183 254 -206 q 272 -139 254 -157 q 315 -121 289 -121 z "},"ằ":{"ha":710,"x_min":69,"x_max":631,"o":"m 381 1199 l 492 1010 l 454 983 l 324 1156 l 381 1199 m 449 828 q 340 867 381 828 q 301 968 300 907 l 351 975 q 450 892 368 892 q 526 915 494 892 q 576 979 558 939 l 629 963 q 563 865 613 903 q 449 828 514 828 m 425 742 q 532 728 483 742 q 631 686 581 714 l 556 158 q 550 106 550 117 q 559 65 550 81 q 589 40 568 50 l 564 -15 q 499 26 521 -3 q 479 111 478 54 q 274 -15 390 -15 q 124 56 178 -15 q 69 249 69 126 q 107 477 69 364 q 224 666 144 590 q 425 742 304 742 m 425 678 q 270 613 332 678 q 179 449 208 547 q 150 250 150 350 q 185 101 150 151 q 286 50 219 50 q 391 88 343 50 q 483 199 439 126 l 547 649 q 425 678 493 678 z "},"ẳ":{"ha":710,"x_min":69,"x_max":631,"o":"m 425 742 q 532 728 483 742 q 631 686 581 714 l 556 158 q 550 106 550 117 q 559 65 550 81 q 589 40 568 50 l 564 -15 q 499 26 521 -3 q 479 111 478 54 q 274 -15 390 -15 q 124 56 178 -15 q 69 249 69 126 q 107 477 69 364 q 224 666 144 590 q 425 742 304 742 m 425 678 q 270 613 332 678 q 179 449 208 547 q 150 250 150 350 q 185 101 150 151 q 286 50 219 50 q 391 88 343 50 q 483 199 439 126 l 547 649 q 425 678 493 678 m 450 828 q 342 867 382 828 q 303 968 301 907 l 353 975 q 451 892 369 892 q 528 915 496 892 q 578 979 560 939 l 631 963 q 565 865 614 903 q 450 828 515 828 m 446 1071 q 544 1146 544 1079 q 531 1181 544 1168 q 494 1193 518 1193 q 458 1188 474 1193 q 421 1174 442 1183 l 403 1224 q 504 1251 454 1251 q 584 1223 554 1251 q 614 1149 614 1194 q 585 1070 614 1099 q 504 1033 556 1042 l 493 957 l 432 957 l 446 1071 z "},"ẵ":{"ha":710,"x_min":69,"x_max":669,"o":"m 547 1035 q 503 1044 522 1035 q 463 1071 483 1054 q 431 1091 444 1085 q 404 1097 418 1097 q 366 1084 382 1097 q 326 1040 350 1071 l 283 1069 q 406 1160 342 1160 q 447 1151 429 1160 q 488 1125 465 1142 q 520 1103 508 1110 q 547 1097 532 1097 q 585 1111 567 1097 q 625 1157 603 1125 l 669 1131 q 547 1035 615 1035 m 447 828 q 339 867 379 828 q 300 968 299 907 l 350 975 q 449 892 367 892 q 525 915 493 892 q 575 979 557 939 l 628 963 q 562 865 611 903 q 447 828 513 828 m 425 742 q 532 728 483 742 q 631 686 581 714 l 556 158 q 550 106 550 117 q 559 65 550 81 q 589 40 568 50 l 564 -15 q 499 26 521 -3 q 479 111 478 54 q 274 -15 390 -15 q 124 56 178 -15 q 69 249 69 126 q 107 477 69 364 q 224 666 144 590 q 425 742 304 742 m 425 678 q 270 613 332 678 q 179 449 208 547 q 150 250 150 350 q 185 101 150 151 q 286 50 219 50 q 391 88 343 50 q 483 199 439 126 l 547 649 q 425 678 493 678 z "},"ǎ":{"ha":710,"x_min":69,"x_max":658,"o":"m 425 742 q 532 728 483 742 q 631 686 581 714 l 556 158 q 550 106 550 117 q 559 65 550 81 q 589 40 568 50 l 564 -15 q 499 26 521 -3 q 479 111 478 54 q 274 -15 390 -15 q 124 56 178 -15 q 69 249 69 126 q 107 477 69 364 q 224 666 144 590 q 425 742 304 742 m 425 678 q 270 613 332 678 q 179 449 208 547 q 150 250 150 350 q 185 101 150 151 q 286 50 219 50 q 391 88 343 50 q 483 199 439 126 l 547 649 q 425 678 493 678 m 626 1065 l 658 1026 l 476 879 l 428 879 l 286 1026 l 324 1065 l 457 950 l 626 1065 z "},"â":{"ha":710,"x_min":69,"x_max":647,"o":"m 425 742 q 532 728 483 742 q 631 686 581 714 l 556 158 q 550 106 550 117 q 559 65 550 81 q 589 40 568 50 l 564 -15 q 499 26 521 -3 q 479 111 478 54 q 274 -15 390 -15 q 124 56 178 -15 q 69 249 69 126 q 107 477 69 364 q 224 666 144 590 q 425 742 304 742 m 425 678 q 270 613 332 678 q 179 449 208 547 q 150 250 150 350 q 185 101 150 151 q 286 50 219 50 q 391 88 343 50 q 483 199 439 126 l 547 649 q 425 678 493 678 m 308 894 l 274 935 l 457 1082 l 506 1082 l 647 933 l 608 894 l 475 1011 l 308 894 z "},"ấ":{"ha":710,"x_min":69,"x_max":764,"o":"m 717 1176 l 764 1128 l 588 960 l 556 990 l 717 1176 m 289 814 l 256 854 l 439 996 l 486 996 l 628 853 l 592 814 l 457 925 l 289 814 m 425 742 q 532 728 483 742 q 631 686 581 714 l 556 158 q 550 106 550 117 q 559 65 550 81 q 589 40 568 50 l 564 -15 q 499 26 521 -3 q 479 111 478 54 q 274 -15 390 -15 q 124 56 178 -15 q 69 249 69 126 q 107 477 69 364 q 224 666 144 590 q 425 742 304 742 m 425 678 q 270 613 332 678 q 179 449 208 547 q 150 250 150 350 q 185 101 150 151 q 286 50 219 50 q 391 88 343 50 q 483 199 439 126 l 547 649 q 425 678 493 678 z "},"ậ":{"ha":710,"x_min":69,"x_max":647,"o":"m 425 742 q 532 728 483 742 q 631 686 581 714 l 556 158 q 550 106 550 117 q 559 65 550 81 q 589 40 568 50 l 564 -15 q 499 26 521 -3 q 479 111 478 54 q 274 -15 390 -15 q 124 56 178 -15 q 69 249 69 126 q 107 477 69 364 q 224 666 144 590 q 425 742 304 742 m 425 678 q 270 613 332 678 q 179 449 208 547 q 150 250 150 350 q 185 101 150 151 q 286 50 219 50 q 391 88 343 50 q 483 199 439 126 l 547 649 q 425 678 493 678 m 308 894 l 274 935 l 457 1082 l 506 1082 l 647 933 l 608 894 l 475 1011 l 308 894 m 315 -121 q 353 -135 339 -121 q 368 -172 368 -149 q 350 -217 368 -199 q 306 -235 332 -235 q 268 -220 282 -235 q 254 -183 254 -206 q 272 -139 254 -157 q 315 -121 289 -121 z "},"ầ":{"ha":710,"x_min":69,"x_max":631,"o":"m 244 1175 l 356 986 l 318 960 l 188 1132 l 244 1175 m 289 814 l 256 854 l 439 996 l 486 996 l 628 853 l 592 814 l 457 925 l 289 814 m 425 742 q 532 728 483 742 q 631 686 581 714 l 556 158 q 550 106 550 117 q 559 65 550 81 q 589 40 568 50 l 564 -15 q 499 26 521 -3 q 479 111 478 54 q 274 -15 390 -15 q 124 56 178 -15 q 69 249 69 126 q 107 477 69 364 q 224 666 144 590 q 425 742 304 742 m 425 678 q 270 613 332 678 q 179 449 208 547 q 150 250 150 350 q 185 101 150 151 q 286 50 219 50 q 391 88 343 50 q 483 199 439 126 l 547 649 q 425 678 493 678 z "},"ẩ":{"ha":710,"x_min":69,"x_max":768,"o":"m 425 742 q 532 728 483 742 q 631 686 581 714 l 556 158 q 550 106 550 117 q 559 65 550 81 q 589 40 568 50 l 564 -15 q 499 26 521 -3 q 479 111 478 54 q 274 -15 390 -15 q 124 56 178 -15 q 69 249 69 126 q 107 477 69 364 q 224 666 144 590 q 425 742 304 742 m 425 678 q 270 613 332 678 q 179 449 208 547 q 150 250 150 350 q 185 101 150 151 q 286 50 219 50 q 391 88 343 50 q 483 199 439 126 l 547 649 q 425 678 493 678 m 285 814 l 251 854 l 435 996 l 482 996 l 624 853 l 588 814 l 453 925 l 285 814 m 600 1069 q 699 1144 699 1078 q 685 1179 699 1167 q 649 1192 672 1192 q 612 1187 628 1192 q 575 1172 596 1182 l 557 1222 q 658 1250 608 1250 q 738 1222 708 1250 q 768 1147 768 1193 q 739 1069 768 1097 q 658 1032 710 1040 l 647 956 l 586 956 l 600 1069 z "},"ẫ":{"ha":710,"x_min":69,"x_max":672,"o":"m 550 1028 q 506 1038 525 1028 q 465 1064 486 1047 q 434 1084 447 1078 q 407 1090 421 1090 q 369 1077 385 1090 q 329 1033 353 1064 l 286 1063 q 408 1153 344 1153 q 450 1144 432 1153 q 490 1118 468 1135 q 523 1097 511 1103 q 550 1090 535 1090 q 588 1104 569 1090 q 628 1150 606 1118 l 672 1124 q 550 1028 618 1028 m 292 800 l 258 840 l 442 982 l 489 982 l 631 839 l 594 800 l 460 911 l 292 800 m 425 742 q 532 728 483 742 q 631 686 581 714 l 556 158 q 550 106 550 117 q 559 65 550 81 q 589 40 568 50 l 564 -15 q 499 26 521 -3 q 479 111 478 54 q 274 -15 390 -15 q 124 56 178 -15 q 69 249 69 126 q 107 477 69 364 q 224 666 144 590 q 425 742 304 742 m 425 678 q 270 613 332 678 q 179 449 208 547 q 150 250 150 350 q 185 101 150 151 q 286 50 219 50 q 391 88 343 50 q 483 199 439 126 l 547 649 q 425 678 493 678 z "},"ȁ":{"ha":710,"x_min":69,"x_max":631,"o":"m 425 742 q 532 728 483 742 q 631 686 581 714 l 556 158 q 550 106 550 117 q 559 65 550 81 q 589 40 568 50 l 564 -15 q 499 26 521 -3 q 479 111 478 54 q 274 -15 390 -15 q 124 56 178 -15 q 69 249 69 126 q 107 477 69 364 q 224 666 144 590 q 425 742 304 742 m 425 678 q 270 613 332 678 q 179 449 208 547 q 150 250 150 350 q 185 101 150 151 q 286 50 219 50 q 391 88 343 50 q 483 199 439 126 l 547 649 q 425 678 493 678 m 340 1125 l 411 914 l 357 893 l 265 1092 l 340 1125 m 503 1125 l 565 919 l 511 899 l 428 1090 l 503 1125 z "},"ä":{"ha":710,"x_min":69,"x_max":640,"o":"m 425 742 q 532 728 483 742 q 631 686 581 714 l 556 158 q 550 106 550 117 q 559 65 550 81 q 589 40 568 50 l 564 -15 q 499 26 521 -3 q 479 111 478 54 q 274 -15 390 -15 q 124 56 178 -15 q 69 249 69 126 q 107 477 69 364 q 224 666 144 590 q 425 742 304 742 m 425 678 q 270 613 332 678 q 179 449 208 547 q 150 250 150 350 q 185 101 150 151 q 286 50 219 50 q 391 88 343 50 q 483 199 439 126 l 547 649 q 425 678 493 678 m 344 922 q 310 935 322 922 q 297 968 297 949 q 314 1011 297 994 q 354 1028 331 1028 q 389 1015 375 1028 q 403 981 403 1001 q 386 939 403 956 q 344 922 369 922 m 582 922 q 548 935 561 922 q 535 968 535 949 q 551 1011 535 994 q 593 1028 568 1028 q 627 1014 614 1028 q 640 981 640 1000 q 624 939 640 956 q 582 922 607 922 z "},"ǟ":{"ha":710,"x_min":69,"x_max":632,"o":"m 425 742 q 532 728 483 742 q 631 686 581 714 l 556 158 q 550 106 550 117 q 559 65 550 81 q 589 40 568 50 l 564 -15 q 499 26 521 -3 q 479 111 478 54 q 274 -15 390 -15 q 124 56 178 -15 q 69 249 69 126 q 107 477 69 364 q 224 666 144 590 q 425 742 304 742 m 425 678 q 270 613 332 678 q 179 449 208 547 q 150 250 150 350 q 185 101 150 151 q 286 50 219 50 q 391 88 343 50 q 483 199 439 126 l 547 649 q 425 678 493 678 m 333 881 q 299 894 311 881 q 286 926 286 907 q 303 969 286 953 q 343 986 319 986 q 378 973 364 986 q 392 939 392 960 q 375 897 392 914 q 333 881 358 881 m 571 881 q 537 894 550 881 q 524 926 524 907 q 540 969 524 953 q 582 986 557 986 q 616 972 603 986 q 629 939 629 958 q 613 897 629 914 q 571 881 596 881 m 622 1072 l 319 1072 l 329 1136 l 632 1136 l 622 1072 z "},"ȧ":{"ha":710,"x_min":69,"x_max":631,"o":"m 425 742 q 532 728 483 742 q 631 686 581 714 l 556 158 q 550 106 550 117 q 559 65 550 81 q 589 40 568 50 l 564 -15 q 499 26 521 -3 q 479 111 478 54 q 274 -15 390 -15 q 124 56 178 -15 q 69 249 69 126 q 107 477 69 364 q 224 666 144 590 q 425 742 304 742 m 425 678 q 270 613 332 678 q 179 449 208 547 q 150 250 150 350 q 185 101 150 151 q 286 50 219 50 q 391 88 343 50 q 483 199 439 126 l 547 649 q 425 678 493 678 m 464 931 q 426 944 440 931 q 411 982 411 958 q 429 1026 411 1008 q 474 1044 447 1044 q 511 1030 497 1044 q 525 993 525 1015 q 508 949 525 967 q 464 931 490 931 z "},"ạ":{"ha":710,"x_min":69,"x_max":631,"o":"m 425 742 q 532 728 483 742 q 631 686 581 714 l 556 158 q 550 106 550 117 q 559 65 550 81 q 589 40 568 50 l 564 -15 q 499 26 521 -3 q 479 111 478 54 q 274 -15 390 -15 q 124 56 178 -15 q 69 249 69 126 q 107 477 69 364 q 224 666 144 590 q 425 742 304 742 m 425 678 q 270 613 332 678 q 179 449 208 547 q 150 250 150 350 q 185 101 150 151 q 286 50 219 50 q 391 88 343 50 q 483 199 439 126 l 547 649 q 425 678 493 678 m 315 -121 q 353 -135 339 -121 q 368 -172 368 -149 q 350 -217 368 -199 q 306 -235 332 -235 q 268 -220 282 -235 q 254 -183 254 -206 q 272 -139 254 -157 q 315 -121 289 -121 z "},"ǡ":{"ha":710,"x_min":69,"x_max":638,"o":"m 425 742 q 532 728 483 742 q 631 686 581 714 l 556 158 q 550 106 550 117 q 559 65 550 81 q 589 40 568 50 l 564 -15 q 499 26 521 -3 q 479 111 478 54 q 274 -15 390 -15 q 124 56 178 -15 q 69 249 69 126 q 107 477 69 364 q 224 666 144 590 q 425 742 304 742 m 425 678 q 270 613 332 678 q 179 449 208 547 q 150 250 150 350 q 185 101 150 151 q 286 50 219 50 q 391 88 343 50 q 483 199 439 126 l 547 649 q 425 678 493 678 m 454 861 q 416 875 431 861 q 401 913 401 889 q 419 957 401 939 q 464 975 438 975 q 501 960 488 975 q 515 924 515 946 q 498 879 515 897 q 454 861 481 861 m 628 1051 l 325 1051 l 335 1115 l 638 1115 l 628 1051 z "},"à":{"ha":710,"x_min":69,"x_max":631,"o":"m 425 742 q 532 728 483 742 q 631 686 581 714 l 556 158 q 550 106 550 117 q 559 65 550 81 q 589 40 568 50 l 564 -15 q 499 26 521 -3 q 479 111 478 54 q 274 -15 390 -15 q 124 56 178 -15 q 69 249 69 126 q 107 477 69 364 q 224 666 144 590 q 425 742 304 742 m 425 678 q 270 613 332 678 q 179 449 208 547 q 150 250 150 350 q 185 101 150 151 q 286 50 219 50 q 391 88 343 50 q 483 199 439 126 l 547 649 q 425 678 493 678 m 396 1083 l 611 940 l 583 896 l 354 1014 l 396 1083 z "},"ả":{"ha":710,"x_min":69,"x_max":631,"o":"m 425 742 q 532 728 483 742 q 631 686 581 714 l 556 158 q 550 106 550 117 q 559 65 550 81 q 589 40 568 50 l 564 -15 q 499 26 521 -3 q 479 111 478 54 q 274 -15 390 -15 q 124 56 178 -15 q 69 249 69 126 q 107 477 69 364 q 224 666 144 590 q 425 742 304 742 m 425 678 q 270 613 332 678 q 179 449 208 547 q 150 250 150 350 q 185 101 150 151 q 286 50 219 50 q 391 88 343 50 q 483 199 439 126 l 547 649 q 425 678 493 678 m 432 971 q 531 1046 531 979 q 517 1081 531 1068 q 481 1093 504 1093 q 444 1088 460 1093 q 407 1074 428 1083 l 389 1124 q 490 1151 440 1151 q 570 1123 540 1151 q 600 1049 600 1094 q 571 970 600 999 q 490 933 542 942 l 479 857 l 418 857 l 432 971 z "},"ȃ":{"ha":710,"x_min":69,"x_max":631,"o":"m 425 742 q 532 728 483 742 q 631 686 581 714 l 556 158 q 550 106 550 117 q 559 65 550 81 q 589 40 568 50 l 564 -15 q 499 26 521 -3 q 479 111 478 54 q 274 -15 390 -15 q 124 56 178 -15 q 69 249 69 126 q 107 477 69 364 q 224 666 144 590 q 425 742 304 742 m 425 678 q 270 613 332 678 q 179 449 208 547 q 150 250 150 350 q 185 101 150 151 q 286 50 219 50 q 391 88 343 50 q 483 199 439 126 l 547 649 q 425 678 493 678 m 286 881 q 353 990 304 950 q 468 1031 403 1031 q 576 988 536 1031 q 615 875 617 944 l 563 868 q 465 965 553 965 q 336 864 375 965 l 286 881 z "},"ɑ":{"ha":708,"x_min":68,"x_max":638,"o":"m 554 158 q 550 107 550 129 q 558 66 550 82 q 589 40 567 50 l 564 -15 q 498 26 519 -3 q 478 111 476 56 q 274 -15 392 -15 q 123 56 178 -15 q 68 250 68 126 q 106 478 68 364 q 219 667 144 592 q 393 742 293 742 q 551 635 506 742 l 576 726 l 638 726 l 554 158 m 535 543 q 478 646 514 615 q 392 676 442 676 q 263 612 318 676 q 179 449 208 547 q 150 250 150 350 q 185 101 150 151 q 286 50 219 50 q 391 89 343 50 q 483 199 439 128 l 535 543 z "},"ɒ":{"ha":708,"x_min":71,"x_max":640,"o":"m 435 742 q 585 671 531 742 q 640 476 640 600 q 602 249 640 363 q 490 60 564 135 q 315 -15 415 -15 q 157 92 203 -15 l 132 0 l 71 0 l 154 568 q 158 619 158 597 q 150 660 158 644 q 119 686 142 676 l 144 742 q 210 700 189 729 q 231 615 232 671 q 435 742 317 742 m 317 50 q 445 115 390 50 q 529 278 500 179 q 558 476 558 376 q 524 626 558 575 q 422 676 489 676 q 317 638 365 676 q 225 528 269 599 l 174 183 q 231 81 194 111 q 317 50 267 50 z "},"ā":{"ha":710,"x_min":69,"x_max":631,"o":"m 425 742 q 532 728 483 742 q 631 686 581 714 l 556 158 q 550 106 550 117 q 559 65 550 81 q 589 40 568 50 l 564 -15 q 499 26 521 -3 q 479 111 478 54 q 274 -15 390 -15 q 124 56 178 -15 q 69 249 69 126 q 107 477 69 364 q 224 666 144 590 q 425 742 304 742 m 425 678 q 270 613 332 678 q 179 449 208 547 q 150 250 150 350 q 185 101 150 151 q 286 50 219 50 q 391 88 343 50 q 483 199 439 126 l 547 649 q 425 678 493 678 m 614 939 l 311 939 l 321 1003 l 624 1003 l 614 939 z "},"ą":{"ha":710,"x_min":69,"x_max":631,"o":"m 556 158 q 550 106 550 117 q 559 65 550 81 q 589 40 568 50 l 565 -14 l 565 -15 q 428 -101 468 -60 q 388 -192 388 -142 q 405 -236 388 -221 q 456 -251 422 -251 q 529 -243 485 -251 l 514 -308 q 444 -317 476 -317 q 351 -285 385 -317 q 317 -201 317 -254 q 363 -85 317 -135 q 517 7 408 -36 q 479 111 478 38 q 274 -15 390 -15 q 124 56 178 -15 q 69 249 69 126 q 107 477 69 364 q 224 666 144 590 q 425 742 304 742 q 532 728 483 742 q 631 686 581 714 l 556 158 m 547 649 q 425 678 493 678 q 270 613 332 678 q 179 449 208 547 q 150 250 150 350 q 185 101 150 151 q 286 50 219 50 q 391 88 343 50 q 483 199 439 126 l 547 649 z "},"å":{"ha":710,"x_min":69,"x_max":631,"o":"m 425 742 q 532 728 483 742 q 631 686 581 714 l 556 158 q 550 106 550 117 q 559 65 550 81 q 589 40 568 50 l 564 -15 q 499 26 521 -3 q 479 111 478 54 q 274 -15 390 -15 q 124 56 178 -15 q 69 249 69 126 q 107 477 69 364 q 224 666 144 590 q 425 742 304 742 m 425 678 q 270 613 332 678 q 179 449 208 547 q 150 250 150 350 q 185 101 150 151 q 286 50 219 50 q 391 88 343 50 q 483 199 439 126 l 547 649 q 425 678 493 678 m 486 1139 q 567 1107 536 1139 q 599 1025 599 1075 q 558 920 599 961 q 458 879 518 879 q 377 911 408 879 q 346 993 346 943 q 386 1098 346 1057 q 486 1139 426 1139 m 483 1090 q 424 1063 446 1090 q 403 994 403 1036 q 418 945 403 963 q 461 928 433 928 q 520 956 499 928 q 542 1025 542 983 q 526 1074 542 1057 q 483 1090 511 1090 z "},"ǻ":{"ha":710,"x_min":69,"x_max":631,"o":"m 425 742 q 532 728 483 742 q 631 686 581 714 l 556 158 q 550 106 550 117 q 559 65 550 81 q 589 40 568 50 l 564 -15 q 499 26 521 -3 q 479 111 478 54 q 274 -15 390 -15 q 124 56 178 -15 q 69 249 69 126 q 107 477 69 364 q 224 666 144 590 q 425 742 304 742 m 425 678 q 270 613 332 678 q 179 449 208 547 q 150 250 150 350 q 185 101 150 151 q 286 50 219 50 q 391 88 343 50 q 483 199 439 126 l 547 649 q 425 678 493 678 m 476 1075 q 558 1043 526 1075 q 589 961 589 1011 q 549 856 589 897 q 449 815 508 815 q 367 847 399 815 q 336 929 336 879 q 376 1034 336 993 q 476 1075 417 1075 m 474 1026 q 415 999 436 1026 q 393 931 393 972 q 408 881 393 899 q 451 864 424 864 q 510 892 489 864 q 532 961 532 919 q 517 1010 532 993 q 474 1026 501 1026 m 589 1263 l 619 1192 l 358 1088 l 338 1132 l 589 1263 z "},"ⱥ":{"ha":710,"x_min":69,"x_max":631,"o":"m 556 158 q 550 106 550 117 q 559 65 550 81 q 589 40 568 50 l 564 -15 q 498 24 519 -6 q 479 111 476 53 q 274 -15 390 -15 q 221 -10 243 -15 l 188 -97 l 147 -85 l 182 6 q 99 97 128 33 q 69 249 69 160 q 107 477 69 364 q 224 666 144 590 q 425 742 304 742 q 467 740 453 742 l 499 822 l 538 810 l 508 733 q 631 686 565 721 l 556 158 m 150 250 q 208 75 150 122 l 443 678 l 425 678 q 270 613 332 678 q 179 449 208 547 q 150 250 150 350 m 549 649 q 485 672 517 665 l 246 56 q 286 50 263 50 q 391 88 343 50 q 483 199 439 126 l 549 649 z "},"ã":{"ha":710,"x_min":69,"x_max":664,"o":"m 425 742 q 532 728 483 742 q 631 686 581 714 l 556 158 q 550 106 550 117 q 559 65 550 81 q 589 40 568 50 l 564 -15 q 499 26 521 -3 q 479 111 478 54 q 274 -15 390 -15 q 124 56 178 -15 q 69 249 69 126 q 107 477 69 364 q 224 666 144 590 q 425 742 304 742 m 425 678 q 270 613 332 678 q 179 449 208 547 q 150 250 150 350 q 185 101 150 151 q 286 50 219 50 q 391 88 343 50 q 483 199 439 126 l 547 649 q 425 678 493 678 m 542 926 q 497 936 517 926 q 457 963 478 946 q 426 983 439 976 q 399 989 413 989 q 360 976 376 989 q 321 932 344 963 l 278 961 q 400 1051 336 1051 q 442 1042 424 1051 q 482 1017 460 1033 q 515 995 503 1001 q 542 989 526 989 q 579 1003 561 989 q 619 1049 597 1017 l 664 1022 q 542 926 610 926 z "},"ɐ":{"ha":663,"x_min":100,"x_max":624,"o":"m 182 201 q 179 163 179 174 q 208 78 179 106 q 304 51 238 51 q 483 93 382 51 l 504 33 q 293 -15 392 -15 q 149 29 197 -15 q 100 157 100 74 q 103 200 100 169 l 154 568 q 160 621 160 610 q 151 660 160 646 q 121 685 142 675 l 144 742 q 208 703 186 731 q 231 625 231 676 q 443 742 314 742 q 575 692 526 742 q 624 558 624 642 q 538 360 624 431 q 318 289 453 289 l 194 289 l 182 201 m 429 678 q 229 543 313 678 l 201 347 l 314 347 q 481 402 419 347 q 542 557 542 457 q 513 647 542 615 q 429 678 483 678 z "},"æ":{"ha":1032,"x_min":38,"x_max":994,"o":"m 360 742 q 554 606 511 742 q 657 703 593 665 q 800 742 721 742 q 943 694 892 742 q 994 571 994 646 q 873 372 994 438 q 532 288 751 306 q 569 113 529 174 q 690 53 610 53 q 783 70 740 53 q 875 124 826 88 l 911 71 q 802 6 857 28 q 685 -15 747 -15 q 555 20 608 -15 q 476 124 501 56 q 356 17 417 49 q 226 -15 294 -15 q 88 35 138 -15 q 38 171 38 86 q 112 349 38 278 q 344 421 186 421 l 472 421 q 506 531 485 481 q 458 636 499 597 q 351 675 418 675 q 266 665 307 675 q 172 635 225 656 l 156 696 q 360 742 271 742 m 797 676 q 620 581 685 676 q 538 349 556 486 q 822 417 729 365 q 915 568 915 468 q 885 647 915 617 q 797 676 856 676 m 350 364 q 176 313 232 364 q 121 171 121 261 q 151 81 121 113 q 236 49 182 49 q 349 82 296 49 q 458 190 401 115 q 453 261 453 217 q 461 364 453 308 l 350 364 z "},"ǽ":{"ha":1032,"x_min":38,"x_max":994,"o":"m 360 742 q 554 606 511 742 q 657 703 593 665 q 800 742 721 742 q 943 694 892 742 q 994 571 994 646 q 873 372 994 438 q 532 288 751 306 q 569 113 529 174 q 690 53 610 53 q 783 70 740 53 q 875 124 826 88 l 911 71 q 802 6 857 28 q 685 -15 747 -15 q 555 20 608 -15 q 476 124 501 56 q 356 17 417 49 q 226 -15 294 -15 q 88 35 138 -15 q 38 171 38 86 q 112 349 38 278 q 344 421 186 421 l 472 421 q 506 531 485 481 q 458 636 499 597 q 351 675 418 675 q 266 665 307 675 q 172 635 225 656 l 156 696 q 360 742 271 742 m 797 676 q 620 581 685 676 q 538 349 556 486 q 822 417 729 365 q 915 568 915 468 q 885 647 915 617 q 797 676 856 676 m 350 364 q 176 313 232 364 q 121 171 121 261 q 151 81 121 113 q 236 49 182 49 q 349 82 296 49 q 458 190 401 115 q 453 261 453 217 q 461 364 453 308 l 350 364 m 711 1085 l 743 1014 l 482 896 l 458 940 l 711 1085 z "},"ǣ":{"ha":1032,"x_min":38,"x_max":994,"o":"m 360 742 q 554 606 511 742 q 657 703 593 665 q 800 742 721 742 q 943 694 892 742 q 994 571 994 646 q 873 372 994 438 q 532 288 751 306 q 569 113 529 174 q 690 53 610 53 q 783 70 740 53 q 875 124 826 88 l 911 71 q 802 6 857 28 q 685 -15 747 -15 q 555 20 608 -15 q 476 124 501 56 q 356 17 417 49 q 226 -15 294 -15 q 88 35 138 -15 q 38 171 38 86 q 112 349 38 278 q 344 421 186 421 l 472 421 q 506 531 485 481 q 458 636 499 597 q 351 675 418 675 q 266 665 307 675 q 172 635 225 656 l 156 696 q 360 742 271 742 m 797 676 q 620 581 685 676 q 538 349 556 486 q 822 417 729 365 q 915 568 915 468 q 885 647 915 617 q 797 676 856 676 m 350 364 q 176 313 232 364 q 121 171 121 261 q 151 81 121 113 q 236 49 182 49 q 349 82 296 49 q 458 190 401 115 q 453 261 453 217 q 461 364 453 308 l 350 364 m 746 939 l 443 939 l 453 1003 l 756 1003 l 746 939 z "},"b":{"ha":721,"x_min":83,"x_max":653,"o":"m 457 742 q 601 675 549 742 q 653 485 653 608 q 617 253 653 367 q 503 62 582 139 q 300 -15 424 -15 q 195 -4 244 -15 q 83 32 146 7 l 224 1022 l 303 1032 l 247 633 q 457 742 346 742 m 442 676 q 335 644 385 676 q 235 553 285 611 l 168 78 q 233 57 201 64 q 306 50 265 50 q 460 119 400 50 q 546 288 519 188 q 574 488 572 388 q 442 676 574 676 z "},"ḃ":{"ha":721,"x_min":83,"x_max":653,"o":"m 457 742 q 601 675 549 742 q 653 485 653 608 q 617 253 653 367 q 503 62 582 139 q 300 -15 424 -15 q 195 -4 244 -15 q 83 32 146 7 l 224 1022 l 303 1032 l 247 633 q 457 742 346 742 m 442 676 q 335 644 385 676 q 235 553 285 611 l 168 78 q 233 57 201 64 q 306 50 265 50 q 460 119 400 50 q 546 288 519 188 q 574 488 572 388 q 442 676 574 676 m 503 1176 q 465 1190 479 1176 q 450 1228 450 1204 q 468 1272 450 1254 q 513 1290 486 1290 q 550 1276 536 1290 q 564 1239 564 1261 q 547 1194 564 1213 q 503 1176 529 1176 z "},"ḅ":{"ha":721,"x_min":83,"x_max":653,"o":"m 457 742 q 601 675 549 742 q 653 485 653 608 q 617 253 653 367 q 503 62 582 139 q 300 -15 424 -15 q 195 -4 244 -15 q 83 32 146 7 l 224 1022 l 303 1032 l 247 633 q 457 742 346 742 m 442 676 q 335 644 385 676 q 235 553 285 611 l 168 78 q 233 57 201 64 q 306 50 265 50 q 460 119 400 50 q 546 288 519 188 q 574 488 572 388 q 442 676 574 676 m 288 -121 q 326 -135 311 -121 q 340 -172 340 -149 q 322 -217 340 -199 q 278 -235 304 -235 q 240 -220 254 -235 q 226 -183 226 -206 q 244 -139 226 -157 q 288 -121 261 -121 z "},"ꞵ":{"ha":736,"x_min":39,"x_max":681,"o":"m 182 740 q 280 957 203 882 q 468 1032 357 1032 q 622 975 563 1032 q 681 821 681 918 q 621 643 681 718 q 446 553 561 568 q 601 490 539 550 q 663 318 663 429 q 629 161 663 238 q 526 35 596 85 q 357 -15 457 -15 q 167 74 238 -15 l 118 -276 l 39 -286 l 182 740 m 354 51 q 484 92 432 51 q 560 192 536 132 q 583 317 583 253 q 527 469 583 415 q 367 522 471 522 l 307 522 l 324 585 l 381 585 q 503 618 453 585 q 579 706 554 651 q 604 819 604 760 q 567 931 604 893 q 465 968 531 968 q 331 911 386 968 q 260 735 276 854 l 178 144 q 253 74 211 96 q 354 51 296 51 z "},"ɓ":{"ha":721,"x_min":83,"x_max":653,"o":"m 457 742 q 601 675 550 742 q 653 485 653 608 q 617 252 653 367 q 503 61 582 138 q 300 -15 424 -15 q 195 -4 244 -15 q 83 32 146 7 l 182 725 l 200 851 q 265 984 211 936 q 404 1032 319 1032 q 556 992 486 1032 l 525 936 q 407 965 468 965 q 276 842 294 965 l 260 725 l 247 635 q 457 742 347 742 m 306 50 q 460 119 400 50 q 546 288 519 188 q 574 489 572 389 q 442 676 574 676 q 335 644 385 676 q 235 553 285 611 l 168 78 q 233 57 201 64 q 306 50 265 50 z "},"ʭ":{"ha":417,"x_min":-10,"x_max":426,"o":"m 400 556 l 340 556 l 358 682 l 147 682 l 129 556 l 69 556 l 94 738 l 426 738 l 400 556 m 321 -1 l 261 -1 l 279 125 l 68 125 l 50 -1 l -10 -1 l 15 181 l 347 181 l 321 -1 z "},"ʘ":{"ha":993,"x_min":90,"x_max":935,"o":"m 585 967 q 841 868 747 967 q 935 589 935 769 q 874 280 935 418 q 700 63 813 142 q 439 -15 588 -15 q 184 84 278 -15 q 90 363 90 183 q 153 670 90 532 q 328 888 215 808 q 585 967 440 967 m 583 900 q 361 829 456 900 q 217 636 267 758 q 167 364 167 514 q 240 131 167 210 q 440 51 313 51 q 665 122 571 51 q 809 314 760 192 q 858 589 858 436 q 786 822 858 743 q 583 900 714 900 m 508 418 q 470 432 485 418 q 456 469 456 446 q 474 514 456 496 q 518 532 492 532 q 556 517 542 532 q 569 481 569 503 q 552 436 569 454 q 508 418 535 418 z "},"ʬ":{"ha":579,"x_min":53,"x_max":604,"o":"m 604 921 l 467 556 l 390 556 l 361 858 l 246 556 l 168 556 l 131 921 l 193 921 l 215 611 l 335 921 l 406 921 l 436 611 l 544 921 l 604 921 m 526 365 l 389 0 l 313 0 l 283 303 l 168 0 l 90 0 l 53 365 l 115 365 l 138 56 l 257 365 l 328 365 l 358 56 l 467 365 l 526 365 z "},"ƀ":{"ha":729,"x_min":92,"x_max":661,"o":"m 465 742 q 609 675 557 742 q 661 485 661 608 q 626 253 661 367 q 511 62 590 139 q 308 -15 432 -15 q 203 -4 253 -15 q 92 32 154 7 l 208 857 l 114 857 l 124 921 l 218 921 l 232 1022 l 311 1032 l 296 921 l 504 921 l 486 857 l 286 857 l 256 633 q 465 742 354 742 m 314 50 q 468 119 408 50 q 554 288 528 188 q 582 488 581 388 q 450 676 582 676 q 343 644 393 676 q 243 553 293 611 l 176 78 q 242 57 210 64 q 314 50 274 50 z "},"ƃ":{"ha":721,"x_min":83,"x_max":653,"o":"m 457 742 q 601 675 550 742 q 653 485 653 608 q 617 252 653 367 q 503 61 582 138 q 300 -15 424 -15 q 195 -4 244 -15 q 83 32 146 7 l 224 1022 l 594 1022 l 574 958 l 293 958 l 247 633 q 457 742 346 742 m 306 50 q 460 119 400 50 q 546 288 519 188 q 574 489 572 389 q 442 676 574 676 q 335 644 385 676 q 236 553 285 611 l 168 78 q 233 57 201 64 q 306 50 265 50 z "},"c":{"ha":586,"x_min":71,"x_max":590,"o":"m 413 742 q 510 724 467 742 q 590 667 553 706 l 546 619 q 485 661 517 647 q 411 675 453 675 q 263 610 321 675 q 179 450 206 546 q 153 258 153 354 q 193 104 153 156 q 307 53 233 53 q 388 68 350 53 q 467 114 425 83 l 500 60 q 301 -15 408 -15 q 133 58 194 -15 q 71 263 71 131 q 107 484 71 374 q 220 668 143 594 q 413 742 297 742 z "},"ć":{"ha":586,"x_min":71,"x_max":590,"o":"m 413 742 q 510 724 467 742 q 590 667 553 706 l 546 619 q 485 661 517 647 q 411 675 453 675 q 263 610 321 675 q 179 450 206 546 q 153 258 153 354 q 193 104 153 156 q 307 53 233 53 q 388 68 350 53 q 467 114 425 83 l 500 60 q 301 -15 408 -15 q 133 58 194 -15 q 71 263 71 131 q 107 484 71 374 q 220 668 143 594 q 413 742 297 742 m 557 1085 l 589 1014 l 328 896 l 304 940 l 557 1085 z "},"č":{"ha":586,"x_min":71,"x_max":636,"o":"m 413 742 q 510 724 467 742 q 590 667 553 706 l 546 619 q 485 661 517 647 q 411 675 453 675 q 263 610 321 675 q 179 450 206 546 q 153 258 153 354 q 193 104 153 156 q 307 53 233 53 q 388 68 350 53 q 467 114 425 83 l 500 60 q 301 -15 408 -15 q 133 58 194 -15 q 71 263 71 131 q 107 484 71 374 q 220 668 143 594 q 413 742 297 742 m 604 1065 l 636 1026 l 454 879 l 406 879 l 264 1026 l 301 1065 l 435 950 l 604 1065 z "},"ç":{"ha":586,"x_min":71,"x_max":590,"o":"m 411 675 q 263 610 321 675 q 179 450 206 546 q 153 258 153 354 q 193 104 153 156 q 307 53 233 53 q 388 68 350 53 q 467 114 425 83 l 500 60 q 314 -15 414 -11 l 301 -90 q 380 -121 354 -96 q 406 -189 406 -146 q 365 -280 406 -244 q 260 -315 325 -315 q 158 -283 201 -315 l 186 -237 q 260 -258 219 -258 q 315 -241 293 -258 q 338 -192 338 -224 q 315 -147 338 -160 q 236 -133 293 -133 l 263 -12 q 122 72 172 0 q 71 263 71 143 q 107 484 71 374 q 220 668 143 594 q 413 742 297 742 q 510 724 467 742 q 590 667 553 706 l 546 619 q 485 661 517 647 q 411 675 453 675 z "},"ĉ":{"ha":586,"x_min":71,"x_max":625,"o":"m 413 742 q 510 724 467 742 q 590 667 553 706 l 546 619 q 485 661 517 647 q 411 675 453 675 q 263 610 321 675 q 179 450 206 546 q 153 258 153 354 q 193 104 153 156 q 307 53 233 53 q 388 68 350 53 q 467 114 425 83 l 500 60 q 301 -15 408 -15 q 133 58 194 -15 q 71 263 71 131 q 107 484 71 374 q 220 668 143 594 q 413 742 297 742 m 286 894 l 251 935 l 435 1082 l 483 1082 l 625 933 l 586 894 l 453 1011 l 286 894 z "},"ɕ":{"ha":596,"x_min":71,"x_max":590,"o":"m 413 675 q 264 610 322 675 q 179 450 206 546 q 153 258 153 354 q 192 108 153 160 q 296 256 244 213 q 410 300 347 300 q 503 266 469 300 q 538 174 538 232 q 474 35 538 86 q 313 -15 411 -15 q 200 8 247 -15 l 144 -92 l 96 -67 l 153 39 q 92 133 114 76 q 71 263 71 190 q 107 484 71 374 q 220 668 143 594 q 413 742 297 742 q 510 724 467 742 q 590 667 553 706 l 546 619 q 485 661 517 647 q 413 675 454 675 m 406 240 q 323 203 361 240 q 235 71 285 167 q 319 53 272 53 q 428 84 386 53 q 469 174 469 115 q 453 223 469 206 q 406 240 438 240 z "},"ċ":{"ha":586,"x_min":71,"x_max":590,"o":"m 413 742 q 510 724 467 742 q 590 667 553 706 l 546 619 q 485 661 517 647 q 411 675 453 675 q 263 610 321 675 q 179 450 206 546 q 153 258 153 354 q 193 104 153 156 q 307 53 233 53 q 388 68 350 53 q 467 114 425 83 l 500 60 q 301 -15 408 -15 q 133 58 194 -15 q 71 263 71 131 q 107 484 71 374 q 220 668 143 594 q 413 742 297 742 m 442 931 q 403 944 418 931 q 389 982 389 958 q 407 1026 389 1008 q 451 1044 425 1044 q 489 1030 475 1044 q 503 993 503 1015 q 485 949 503 967 q 442 931 468 931 z "},"ƈ":{"ha":586,"x_min":71,"x_max":843,"o":"m 717 1032 q 843 983 789 1032 l 807 935 q 765 959 785 951 q 718 967 746 967 q 651 940 678 967 q 615 854 624 913 l 590 667 l 553 626 q 485 663 518 650 q 411 675 453 675 q 263 610 321 675 q 179 450 206 546 q 153 258 153 354 q 193 104 153 156 q 307 53 233 53 q 388 68 350 53 q 467 114 425 83 l 500 60 q 301 -15 408 -15 q 133 58 194 -15 q 71 263 71 131 q 107 483 71 372 q 219 667 143 593 q 408 742 296 742 q 519 713 472 742 l 540 857 q 599 988 553 943 q 717 1032 644 1032 z "},"ʗ":{"ha":613,"x_min":71,"x_max":618,"o":"m 443 742 q 538 724 496 742 q 618 667 579 706 l 574 619 q 514 661 544 647 q 443 675 483 675 q 287 583 353 675 q 187 347 221 490 q 153 56 153 204 q 192 -155 153 -89 q 304 -221 231 -221 q 381 -206 344 -221 q 461 -160 418 -190 l 494 -214 q 300 -289 403 -289 q 131 -202 190 -289 q 71 57 72 -115 q 116 392 72 235 q 244 645 160 549 q 443 742 329 742 z "},"ȼ":{"ha":586,"x_min":71,"x_max":590,"o":"m 546 619 q 483 663 518 647 l 250 63 q 307 53 275 53 q 388 68 350 53 q 467 114 425 83 l 500 60 q 301 -15 408 -15 q 225 -4 263 -15 l 189 -97 l 149 -85 l 186 13 q 101 108 131 44 q 71 263 71 172 q 107 484 71 374 q 220 668 143 594 q 413 742 297 742 q 467 736 444 742 l 500 822 l 540 810 l 507 725 q 590 667 549 708 l 546 619 m 442 674 q 411 675 432 675 q 263 610 321 675 q 179 450 206 546 q 153 258 153 354 q 214 83 153 133 l 442 674 z "},"d":{"ha":726,"x_min":69,"x_max":689,"o":"m 689 1022 l 544 0 l 478 0 l 489 144 q 267 -15 399 -15 q 122 56 174 -15 q 69 253 69 128 q 104 477 69 364 q 211 666 139 590 q 390 742 283 742 q 558 644 501 742 l 611 1032 l 689 1022 m 397 676 q 258 610 314 676 q 176 444 203 543 q 150 250 150 346 q 184 101 150 153 q 281 50 218 50 q 397 101 346 50 q 503 251 449 153 l 547 568 q 488 648 524 619 q 397 676 453 676 z "},"ð":{"ha":714,"x_min":67,"x_max":631,"o":"m 492 919 q 597 768 563 854 q 631 560 631 682 q 594 280 631 411 q 480 67 557 149 q 290 -15 403 -15 q 126 53 185 -15 q 67 242 67 121 q 100 434 67 340 q 201 589 133 528 q 365 650 269 650 q 554 546 483 650 q 530 733 556 658 q 443 872 504 808 l 332 768 l 279 793 l 399 910 q 258 972 332 956 l 281 1032 q 446 957 372 1010 l 553 1057 l 592 1015 l 492 919 m 292 50 q 467 167 404 50 q 549 458 529 285 q 374 585 486 585 q 243 533 294 585 q 169 403 192 482 q 146 240 146 325 q 183 99 146 147 q 292 50 221 50 z "},"ȸ":{"ha":1056,"x_min":71,"x_max":985,"o":"m 800 742 q 937 673 889 742 q 985 476 985 604 q 950 236 985 349 q 848 54 915 124 q 689 -15 781 -15 q 533 113 582 -15 l 510 0 l 451 0 l 458 115 q 263 -15 381 -15 q 123 59 175 -15 q 71 261 71 133 q 108 497 71 386 q 215 674 146 607 q 374 742 283 742 q 467 713 428 742 q 531 632 507 683 l 585 1022 l 664 1032 l 607 632 q 800 742 690 742 m 519 558 q 459 647 490 618 q 382 676 428 676 q 259 615 311 676 q 180 458 207 554 q 153 261 153 363 q 185 104 153 158 q 275 50 218 50 q 378 88 332 50 q 471 208 425 126 l 519 558 m 683 50 q 804 114 754 50 q 879 276 854 178 q 904 478 904 375 q 785 676 904 676 q 685 643 731 676 q 596 551 639 610 l 546 196 q 601 85 569 119 q 683 50 633 50 z "},"ď":{"ha":743,"x_min":69,"x_max":871,"o":"m 689 1022 l 544 0 l 478 0 l 489 144 q 267 -15 399 -15 q 122 56 174 -15 q 69 253 69 128 q 104 477 69 364 q 211 666 139 590 q 390 742 283 742 q 558 644 501 742 l 611 1032 l 689 1022 m 397 676 q 258 610 314 676 q 176 444 203 543 q 150 250 150 346 q 184 101 150 153 q 281 50 218 50 q 397 101 346 50 q 503 251 449 153 l 547 568 q 488 648 524 619 q 397 676 453 676 m 799 1031 l 871 1021 l 792 796 l 746 803 l 799 1031 z "},"ḓ":{"ha":726,"x_min":69,"x_max":689,"o":"m 689 1022 l 544 0 l 478 0 l 489 144 q 267 -15 399 -15 q 122 56 174 -15 q 69 253 69 128 q 104 477 69 364 q 211 666 139 590 q 390 742 283 742 q 558 644 501 742 l 611 1032 l 689 1022 m 397 676 q 258 610 314 676 q 176 444 203 543 q 150 250 150 346 q 184 101 150 153 q 281 50 218 50 q 397 101 346 50 q 503 251 449 153 l 547 568 q 488 648 524 619 q 397 676 453 676 m 125 -283 l 92 -243 l 275 -97 l 322 -97 l 464 -244 l 426 -283 l 290 -167 l 125 -283 z "},"đ":{"ha":736,"x_min":69,"x_max":769,"o":"m 760 857 l 665 857 l 544 0 l 478 0 l 489 144 q 267 -15 399 -15 q 122 56 174 -15 q 69 253 69 128 q 104 477 69 364 q 211 666 139 590 q 390 742 283 742 q 558 644 501 742 l 588 857 l 390 857 l 392 919 l 596 919 l 611 1032 l 689 1022 l 675 919 l 769 919 l 760 857 m 547 568 q 488 648 524 619 q 397 676 453 676 q 258 610 314 676 q 176 444 203 543 q 150 250 150 346 q 184 101 150 153 q 281 50 218 50 q 397 101 346 50 q 503 251 449 153 l 547 568 z "},"ȡ":{"ha":865,"x_min":69,"x_max":867,"o":"m 750 278 q 835 247 803 278 q 867 163 867 215 q 806 33 867 82 q 657 -15 746 -15 q 556 8 594 -15 l 494 -92 l 446 -67 l 517 44 q 490 144 490 83 q 267 -15 396 -15 q 122 56 174 -15 q 69 253 69 128 q 104 477 69 364 q 211 666 139 590 q 390 742 283 742 q 558 644 501 742 l 611 1032 l 689 1022 l 568 174 q 565 128 565 156 q 651 242 608 206 q 750 278 694 278 m 281 50 q 397 101 346 50 q 503 251 449 153 l 547 568 q 488 648 524 619 q 397 676 453 676 q 258 610 314 676 q 176 444 203 543 q 150 250 150 346 q 184 101 150 153 q 281 50 218 50 m 667 53 q 761 81 724 53 q 799 161 799 110 q 784 203 799 188 q 744 218 769 218 q 675 188 707 218 q 593 68 643 157 q 667 53 615 53 z "},"ḋ":{"ha":726,"x_min":69,"x_max":689,"o":"m 689 1022 l 544 0 l 478 0 l 489 144 q 267 -15 399 -15 q 122 56 174 -15 q 69 253 69 128 q 104 477 69 364 q 211 666 139 590 q 390 742 283 742 q 558 644 501 742 l 611 1032 l 689 1022 m 397 676 q 258 610 314 676 q 176 444 203 543 q 150 250 150 346 q 184 101 150 153 q 281 50 218 50 q 397 101 346 50 q 503 251 449 153 l 547 568 q 488 648 524 619 q 397 676 453 676 m 478 1176 q 440 1190 454 1176 q 425 1228 425 1204 q 443 1272 425 1254 q 488 1290 461 1290 q 525 1276 511 1290 q 539 1239 539 1261 q 522 1194 539 1213 q 478 1176 504 1176 z "},"ḍ":{"ha":726,"x_min":69,"x_max":689,"o":"m 689 1022 l 544 0 l 478 0 l 489 144 q 267 -15 399 -15 q 122 56 174 -15 q 69 253 69 128 q 104 477 69 364 q 211 666 139 590 q 390 742 283 742 q 558 644 501 742 l 611 1032 l 689 1022 m 397 676 q 258 610 314 676 q 176 444 203 543 q 150 250 150 346 q 184 101 150 153 q 281 50 218 50 q 397 101 346 50 q 503 251 449 153 l 547 568 q 488 648 524 619 q 397 676 453 676 m 290 -121 q 328 -135 314 -121 q 343 -172 343 -149 q 325 -217 343 -199 q 281 -235 307 -235 q 243 -220 257 -235 q 229 -183 229 -206 q 247 -139 229 -157 q 290 -121 264 -121 z "},"ƍ":{"ha":711,"x_min":50,"x_max":640,"o":"m 251 -286 q 50 -206 131 -286 l 94 -160 q 167 -208 131 -193 q 251 -222 204 -222 q 367 -188 328 -222 q 406 -100 406 -154 q 377 -27 406 -57 q 274 38 349 3 q 123 149 169 86 q 76 314 76 213 q 110 504 76 406 q 218 672 143 603 q 408 742 293 742 q 578 668 517 742 q 640 471 640 594 q 581 222 640 324 q 376 58 521 121 q 459 -12 433 24 q 485 -97 485 -49 q 458 -190 485 -147 q 379 -260 432 -233 q 251 -286 326 -286 m 324 85 q 509 245 458 151 q 560 475 560 339 q 519 622 560 568 q 406 675 479 675 q 259 615 315 675 q 180 471 203 554 q 157 313 157 388 q 194 179 157 231 q 324 85 231 128 z "},"ʤ":{"ha":1131,"x_min":69,"x_max":1110,"o":"m 1101 665 l 774 276 l 782 276 q 978 219 914 276 q 1043 54 1043 163 q 1003 -122 1043 -46 q 890 -242 963 -199 q 725 -285 817 -285 q 590 -254 646 -285 q 492 -164 535 -224 l 543 -124 q 626 -196 583 -174 q 725 -218 668 -218 q 898 -142 835 -218 q 961 54 961 -65 q 915 178 961 140 q 768 215 868 215 l 683 215 l 685 217 l 693 276 l 1008 660 l 638 660 l 544 0 l 478 0 l 489 144 q 267 -15 399 -15 q 122 56 174 -15 q 69 253 69 128 q 104 477 69 364 q 211 666 139 590 q 390 742 283 742 q 558 644 501 742 l 611 1032 l 689 1022 l 647 726 l 1110 726 l 1101 665 m 547 568 q 488 648 524 619 q 397 676 453 676 q 258 610 314 676 q 176 444 203 543 q 150 250 150 346 q 184 101 150 153 q 281 50 218 50 q 397 101 346 50 q 503 251 449 153 l 547 568 z "},"ɗ":{"ha":725,"x_min":69,"x_max":893,"o":"m 767 1032 q 838 1019 808 1032 q 893 983 867 1006 l 856 936 q 815 959 835 951 q 768 967 796 967 q 701 940 729 967 q 665 857 674 913 l 647 726 l 544 0 l 478 0 l 489 144 q 267 -15 399 -15 q 122 56 174 -15 q 69 253 69 128 q 104 477 69 364 q 211 666 139 590 q 390 742 283 742 q 558 644 501 742 l 569 726 l 589 858 q 648 988 601 944 q 767 1032 694 1032 m 547 568 q 488 648 524 619 q 397 676 453 676 q 258 610 314 676 q 176 444 203 543 q 150 250 150 346 q 184 101 150 153 q 281 50 218 50 q 397 101 346 50 q 503 251 449 153 l 547 568 z "},"ḏ":{"ha":726,"x_min":69,"x_max":689,"o":"m 689 1022 l 544 0 l 478 0 l 489 144 q 267 -15 399 -15 q 122 56 174 -15 q 69 253 69 128 q 104 477 69 364 q 211 666 139 590 q 390 742 283 742 q 558 644 501 742 l 611 1032 l 689 1022 m 397 676 q 258 610 314 676 q 176 444 203 543 q 150 250 150 346 q 184 101 150 153 q 281 50 218 50 q 397 101 346 50 q 503 251 449 153 l 547 568 q 488 648 524 619 q 397 676 453 676 m 143 -156 l 446 -156 l 436 -219 l 133 -219 l 143 -156 z "},"ɖ":{"ha":726,"x_min":69,"x_max":724,"o":"m 724 -239 q 592 -285 668 -285 q 488 -248 525 -285 q 450 -143 450 -211 q 453 -104 450 -132 l 467 0 l 486 139 q 267 -15 396 -15 q 122 56 174 -15 q 69 253 69 128 q 104 477 69 364 q 211 666 139 590 q 390 742 283 742 q 558 644 501 742 l 611 1032 l 689 1022 l 544 0 l 529 -114 q 528 -142 528 -124 q 599 -219 528 -219 q 647 -212 626 -219 q 693 -189 668 -204 l 724 -239 m 281 50 q 397 101 346 50 q 503 251 449 153 l 547 568 q 488 648 524 619 q 397 676 453 676 q 258 610 314 676 q 176 444 203 543 q 150 250 150 346 q 184 101 150 153 q 281 50 218 50 z "},"ƌ":{"ha":726,"x_min":69,"x_max":689,"o":"m 544 0 l 478 0 l 489 144 q 267 -15 399 -15 q 122 56 174 -15 q 69 253 69 128 q 104 477 69 364 q 211 666 139 590 q 390 742 283 742 q 558 644 501 742 l 603 958 l 314 958 l 322 1022 l 689 1022 l 544 0 m 547 568 q 488 648 524 619 q 397 676 453 676 q 258 610 314 676 q 176 444 203 543 q 150 250 150 346 q 184 101 150 153 q 281 50 218 50 q 397 101 346 50 q 503 251 449 153 l 547 568 z "},"ǳ":{"ha":1253,"x_min":69,"x_max":1263,"o":"m 689 1022 l 544 0 l 478 0 l 489 144 q 267 -15 399 -15 q 122 56 174 -15 q 69 253 69 128 q 104 477 69 364 q 211 666 139 590 q 390 742 283 742 q 558 644 501 742 l 611 1032 l 689 1022 m 397 676 q 258 610 314 676 q 176 444 203 543 q 150 250 150 346 q 184 101 150 153 q 281 50 218 50 q 397 101 346 50 q 503 251 449 153 l 547 568 q 488 648 524 619 q 397 676 453 676 m 1263 726 l 1254 665 l 811 68 l 1168 68 l 1150 0 l 708 0 l 717 61 l 1160 658 l 831 658 l 842 726 l 1263 726 z "},"ʣ":{"ha":1088,"x_min":69,"x_max":1097,"o":"m 1088 665 l 642 68 l 1003 68 l 985 0 l 478 0 l 489 144 q 267 -15 399 -15 q 122 56 174 -15 q 69 253 69 128 q 104 477 69 364 q 211 666 139 590 q 390 742 283 742 q 558 644 501 742 l 611 1032 l 689 1022 l 647 726 l 1097 726 l 1088 665 m 547 568 q 488 648 524 619 q 397 676 453 676 q 258 610 314 676 q 176 444 203 543 q 150 250 150 346 q 184 101 150 153 q 281 50 218 50 q 397 101 346 50 q 503 251 449 153 l 547 568 m 554 64 l 994 658 l 638 658 l 554 64 z "},"ǆ":{"ha":1253,"x_min":69,"x_max":1276,"o":"m 689 1022 l 544 0 l 478 0 l 489 144 q 267 -15 399 -15 q 122 56 174 -15 q 69 253 69 128 q 104 477 69 364 q 211 666 139 590 q 390 742 283 742 q 558 644 501 742 l 611 1032 l 689 1022 m 397 676 q 258 610 314 676 q 176 444 203 543 q 150 250 150 346 q 184 101 150 153 q 281 50 218 50 q 397 101 346 50 q 503 251 449 153 l 547 568 q 488 648 524 619 q 397 676 453 676 m 1263 726 l 1254 665 l 811 68 l 1168 68 l 1150 0 l 708 0 l 717 61 l 1160 658 l 831 658 l 842 726 l 1263 726 m 1244 1065 l 1276 1026 l 1094 879 l 1046 879 l 904 1026 l 942 1065 l 1075 950 l 1244 1065 z "},"ʥ":{"ha":1106,"x_min":69,"x_max":1118,"o":"m 1118 171 q 864 0 1118 0 q 839 -156 849 -64 l 778 -151 q 803 0 788 -76 l 478 0 l 489 144 q 267 -15 399 -15 q 122 56 174 -15 q 69 253 69 128 q 104 477 69 364 q 211 666 139 590 q 390 742 283 742 q 558 644 501 742 l 611 1032 l 689 1022 l 647 726 l 1097 726 l 1088 665 l 643 68 l 819 68 q 1004 282 872 282 q 1087 252 1056 282 q 1118 171 1118 222 m 547 568 q 488 648 524 619 q 397 676 453 676 q 258 610 314 676 q 176 444 203 543 q 150 250 150 346 q 184 101 150 153 q 281 50 218 50 q 397 101 346 50 q 503 251 449 153 l 547 568 m 638 658 l 554 64 l 996 658 l 638 658 m 888 68 q 1010 92 968 69 q 1051 171 1051 115 q 999 225 1051 225 q 930 188 958 225 q 881 68 901 150 l 888 68 z "},"e":{"ha":649,"x_min":71,"x_max":614,"o":"m 614 571 q 492 372 614 438 q 151 286 371 306 l 151 261 q 193 103 151 154 q 308 53 235 53 q 401 70 358 53 q 494 124 444 88 l 529 71 q 420 6 475 28 q 303 -15 365 -15 q 131 57 192 -15 q 71 260 71 129 q 109 488 71 376 q 226 670 147 599 q 419 742 304 742 q 563 694 511 742 q 614 571 614 646 m 415 676 q 240 581 304 676 q 157 349 175 485 q 440 417 347 365 q 533 568 533 468 q 504 647 533 617 q 415 676 475 676 z "},"é":{"ha":649,"x_min":71,"x_max":614,"o":"m 614 571 q 492 372 614 438 q 151 286 371 306 l 151 261 q 193 103 151 154 q 308 53 235 53 q 401 70 358 53 q 494 124 444 88 l 529 71 q 420 6 475 28 q 303 -15 365 -15 q 131 57 192 -15 q 71 260 71 129 q 109 488 71 376 q 226 670 147 599 q 419 742 304 742 q 563 694 511 742 q 614 571 614 646 m 415 676 q 240 581 304 676 q 157 349 175 485 q 440 417 347 365 q 533 568 533 468 q 504 647 533 617 q 415 676 475 676 m 551 1085 l 583 1014 l 322 896 l 299 940 l 551 1085 z "},"ĕ":{"ha":649,"x_min":71,"x_max":614,"o":"m 614 571 q 492 372 614 438 q 151 286 371 306 l 151 261 q 193 103 151 154 q 308 53 235 53 q 401 70 358 53 q 494 124 444 88 l 529 71 q 420 6 475 28 q 303 -15 365 -15 q 131 57 192 -15 q 71 260 71 129 q 109 488 71 376 q 226 670 147 599 q 419 742 304 742 q 563 694 511 742 q 614 571 614 646 m 415 676 q 240 581 304 676 q 157 349 175 485 q 440 417 347 365 q 533 568 533 468 q 504 647 533 617 q 415 676 475 676 m 429 907 q 322 950 361 907 q 283 1063 282 993 l 338 1069 q 365 997 343 1021 q 431 972 388 972 q 509 999 475 972 q 561 1074 543 1025 l 613 1057 q 545 947 594 988 q 429 907 496 907 z "},"ě":{"ha":649,"x_min":71,"x_max":631,"o":"m 614 571 q 492 372 614 438 q 151 286 371 306 l 151 261 q 193 103 151 154 q 308 53 235 53 q 401 70 358 53 q 494 124 444 88 l 529 71 q 420 6 475 28 q 303 -15 365 -15 q 131 57 192 -15 q 71 260 71 129 q 109 488 71 376 q 226 670 147 599 q 419 742 304 742 q 563 694 511 742 q 614 571 614 646 m 415 676 q 240 581 304 676 q 157 349 175 485 q 440 417 347 365 q 533 568 533 468 q 504 647 533 617 q 415 676 475 676 m 599 1065 l 631 1026 l 449 879 l 400 879 l 258 1026 l 296 1065 l 429 950 l 599 1065 z "},"ȩ":{"ha":649,"x_min":71,"x_max":614,"o":"m 614 571 q 492 372 614 438 q 151 286 371 306 l 151 261 q 193 103 151 154 q 308 53 235 53 q 401 70 358 53 q 494 124 444 88 l 529 71 q 317 -15 426 -10 l 304 -90 q 383 -121 357 -96 q 408 -189 408 -146 q 368 -280 408 -244 q 263 -315 328 -315 q 161 -283 204 -315 l 189 -237 q 263 -258 222 -258 q 318 -241 296 -258 q 340 -192 340 -224 q 318 -147 340 -160 q 239 -133 296 -133 l 265 -12 q 122 69 172 -1 q 71 260 71 140 q 109 488 71 376 q 226 670 147 599 q 419 742 304 742 q 563 694 511 742 q 614 571 614 646 m 415 676 q 240 581 304 676 q 157 349 175 485 q 440 417 347 365 q 533 568 533 468 q 504 647 533 617 q 415 676 475 676 z "},"ê":{"ha":649,"x_min":71,"x_max":619,"o":"m 614 571 q 492 372 614 438 q 151 286 371 306 l 151 261 q 193 103 151 154 q 308 53 235 53 q 401 70 358 53 q 494 124 444 88 l 529 71 q 420 6 475 28 q 303 -15 365 -15 q 131 57 192 -15 q 71 260 71 129 q 109 488 71 376 q 226 670 147 599 q 419 742 304 742 q 563 694 511 742 q 614 571 614 646 m 415 676 q 240 581 304 676 q 157 349 175 485 q 440 417 347 365 q 533 568 533 468 q 504 647 533 617 q 415 676 475 676 m 281 894 l 246 935 l 429 1082 l 478 1082 l 619 933 l 581 894 l 447 1011 l 281 894 z "},"ế":{"ha":649,"x_min":71,"x_max":736,"o":"m 736 1128 l 560 960 l 528 990 l 689 1176 l 736 1128 m 429 925 l 261 814 l 228 854 l 411 996 l 458 996 l 600 853 l 564 814 l 429 925 m 419 742 q 563 694 511 742 q 614 571 614 646 q 492 372 614 438 q 151 286 371 306 l 151 261 q 193 103 151 154 q 308 53 235 53 q 401 70 358 53 q 494 124 444 88 l 529 71 q 420 6 475 28 q 303 -15 365 -15 q 131 57 192 -15 q 71 260 71 129 q 109 488 71 376 q 226 670 147 599 q 419 742 304 742 m 157 349 q 440 417 347 365 q 533 568 533 468 q 504 647 533 617 q 415 676 475 676 q 240 581 304 676 q 157 349 175 485 z "},"ệ":{"ha":649,"x_min":71,"x_max":619,"o":"m 614 571 q 492 372 614 438 q 151 286 371 306 l 151 261 q 193 103 151 154 q 308 53 235 53 q 401 70 358 53 q 494 124 444 88 l 529 71 q 420 6 475 28 q 303 -15 365 -15 q 131 57 192 -15 q 71 260 71 129 q 109 488 71 376 q 226 670 147 599 q 419 742 304 742 q 563 694 511 742 q 614 571 614 646 m 415 676 q 240 581 304 676 q 157 349 175 485 q 440 417 347 365 q 533 568 533 468 q 504 647 533 617 q 415 676 475 676 m 281 894 l 246 935 l 429 1082 l 478 1082 l 619 933 l 581 894 l 447 1011 l 281 894 m 279 -121 q 317 -135 303 -121 q 332 -172 332 -149 q 314 -217 332 -199 q 269 -235 296 -235 q 232 -220 246 -235 q 218 -183 218 -206 q 235 -139 218 -157 q 279 -121 253 -121 z "},"ề":{"ha":649,"x_min":71,"x_max":614,"o":"m 328 986 l 290 960 l 160 1132 l 217 1175 l 328 986 m 261 814 l 228 854 l 411 996 l 458 996 l 600 853 l 564 814 l 429 925 l 261 814 m 614 571 q 492 372 614 438 q 151 286 371 306 l 151 261 q 193 103 151 154 q 308 53 235 53 q 401 70 358 53 q 494 124 444 88 l 529 71 q 420 6 475 28 q 303 -15 365 -15 q 131 57 192 -15 q 71 260 71 129 q 109 488 71 376 q 226 670 147 599 q 419 742 304 742 q 563 694 511 742 q 614 571 614 646 m 415 676 q 240 581 304 676 q 157 349 175 485 q 440 417 347 365 q 533 568 533 468 q 504 647 533 617 q 415 676 475 676 z "},"ể":{"ha":649,"x_min":71,"x_max":740,"o":"m 614 571 q 492 372 614 438 q 151 286 371 306 l 151 261 q 193 103 151 154 q 308 53 235 53 q 401 70 358 53 q 494 124 444 88 l 529 71 q 420 6 475 28 q 303 -15 365 -15 q 131 57 192 -15 q 71 260 71 129 q 109 488 71 376 q 226 670 147 599 q 419 742 304 742 q 563 694 511 742 q 614 571 614 646 m 415 676 q 240 581 304 676 q 157 349 175 485 q 440 417 347 365 q 533 568 533 468 q 504 647 533 617 q 415 676 475 676 m 257 814 l 224 854 l 407 996 l 454 996 l 596 853 l 560 814 l 425 925 l 257 814 m 572 1069 q 671 1144 671 1078 q 658 1179 671 1167 q 621 1192 644 1192 q 584 1187 600 1192 q 547 1172 568 1182 l 529 1222 q 631 1250 581 1250 q 710 1222 681 1250 q 740 1147 740 1193 q 711 1069 740 1097 q 631 1032 682 1040 l 619 956 l 558 956 l 572 1069 z "},"ễ":{"ha":649,"x_min":71,"x_max":644,"o":"m 379 1090 q 341 1077 357 1090 q 301 1033 325 1064 l 258 1063 q 381 1153 317 1153 q 422 1144 404 1153 q 463 1118 440 1135 q 495 1097 483 1103 q 522 1090 507 1090 q 560 1104 542 1090 q 600 1150 578 1118 l 644 1124 q 522 1028 590 1028 q 478 1038 497 1028 q 438 1064 458 1047 q 406 1084 419 1078 q 379 1090 393 1090 m 432 911 l 264 800 l 231 840 l 414 982 l 461 982 l 603 839 l 567 800 l 432 911 m 419 742 q 563 694 511 742 q 614 571 614 646 q 492 372 614 438 q 151 286 371 306 l 151 261 q 193 103 151 154 q 308 53 235 53 q 401 70 358 53 q 494 124 444 88 l 529 71 q 420 6 475 28 q 303 -15 365 -15 q 131 57 192 -15 q 71 260 71 129 q 109 488 71 376 q 226 670 147 599 q 419 742 304 742 m 157 349 q 440 417 347 365 q 533 568 533 468 q 504 647 533 617 q 415 676 475 676 q 240 581 304 676 q 157 349 175 485 z "},"ȅ":{"ha":649,"x_min":71,"x_max":614,"o":"m 614 571 q 492 372 614 438 q 151 286 371 306 l 151 261 q 193 103 151 154 q 308 53 235 53 q 401 70 358 53 q 494 124 444 88 l 529 71 q 420 6 475 28 q 303 -15 365 -15 q 131 57 192 -15 q 71 260 71 129 q 109 488 71 376 q 226 670 147 599 q 419 742 304 742 q 563 694 511 742 q 614 571 614 646 m 415 676 q 240 581 304 676 q 157 349 175 485 q 440 417 347 365 q 533 568 533 468 q 504 647 533 617 q 415 676 475 676 m 313 1125 l 383 914 l 329 893 l 238 1092 l 313 1125 m 475 1125 l 538 919 l 483 899 l 400 1090 l 475 1125 z "},"ë":{"ha":649,"x_min":71,"x_max":614,"o":"m 614 571 q 492 372 614 438 q 151 286 371 306 l 151 261 q 193 103 151 154 q 308 53 235 53 q 401 70 358 53 q 494 124 444 88 l 529 71 q 420 6 475 28 q 303 -15 365 -15 q 131 57 192 -15 q 71 260 71 129 q 109 488 71 376 q 226 670 147 599 q 419 742 304 742 q 563 694 511 742 q 614 571 614 646 m 415 676 q 240 581 304 676 q 157 349 175 485 q 440 417 347 365 q 533 568 533 468 q 504 647 533 617 q 415 676 475 676 m 317 922 q 282 935 294 922 q 269 968 269 949 q 286 1011 269 994 q 326 1028 303 1028 q 361 1015 347 1028 q 375 981 375 1001 q 358 939 375 956 q 317 922 342 922 m 554 922 q 520 935 533 922 q 507 968 507 949 q 524 1011 507 994 q 565 1028 540 1028 q 599 1014 586 1028 q 613 981 613 1000 q 596 939 613 956 q 554 922 579 922 z "},"ė":{"ha":649,"x_min":71,"x_max":614,"o":"m 614 571 q 492 372 614 438 q 151 286 371 306 l 151 261 q 193 103 151 154 q 308 53 235 53 q 401 70 358 53 q 494 124 444 88 l 529 71 q 420 6 475 28 q 303 -15 365 -15 q 131 57 192 -15 q 71 260 71 129 q 109 488 71 376 q 226 670 147 599 q 419 742 304 742 q 563 694 511 742 q 614 571 614 646 m 415 676 q 240 581 304 676 q 157 349 175 485 q 440 417 347 365 q 533 568 533 468 q 504 647 533 617 q 415 676 475 676 m 436 931 q 398 944 413 931 q 383 982 383 958 q 401 1026 383 1008 q 446 1044 419 1044 q 483 1030 469 1044 q 497 993 497 1015 q 480 949 497 967 q 436 931 463 931 z "},"ẹ":{"ha":649,"x_min":71,"x_max":614,"o":"m 614 571 q 492 372 614 438 q 151 286 371 306 l 151 261 q 193 103 151 154 q 308 53 235 53 q 401 70 358 53 q 494 124 444 88 l 529 71 q 420 6 475 28 q 303 -15 365 -15 q 131 57 192 -15 q 71 260 71 129 q 109 488 71 376 q 226 670 147 599 q 419 742 304 742 q 563 694 511 742 q 614 571 614 646 m 415 676 q 240 581 304 676 q 157 349 175 485 q 440 417 347 365 q 533 568 533 468 q 504 647 533 617 q 415 676 475 676 m 279 -121 q 317 -135 303 -121 q 332 -172 332 -149 q 314 -217 332 -199 q 269 -235 296 -235 q 232 -220 246 -235 q 218 -183 218 -206 q 235 -139 218 -157 q 279 -121 253 -121 z "},"è":{"ha":649,"x_min":71,"x_max":614,"o":"m 614 571 q 492 372 614 438 q 151 286 371 306 l 151 261 q 193 103 151 154 q 308 53 235 53 q 401 70 358 53 q 494 124 444 88 l 529 71 q 420 6 475 28 q 303 -15 365 -15 q 131 57 192 -15 q 71 260 71 129 q 109 488 71 376 q 226 670 147 599 q 419 742 304 742 q 563 694 511 742 q 614 571 614 646 m 415 676 q 240 581 304 676 q 157 349 175 485 q 440 417 347 365 q 533 568 533 468 q 504 647 533 617 q 415 676 475 676 m 368 1083 l 583 940 l 556 896 l 326 1014 l 368 1083 z "},"ẻ":{"ha":649,"x_min":71,"x_max":614,"o":"m 614 571 q 492 372 614 438 q 151 286 371 306 l 151 261 q 193 103 151 154 q 308 53 235 53 q 401 70 358 53 q 494 124 444 88 l 529 71 q 420 6 475 28 q 303 -15 365 -15 q 131 57 192 -15 q 71 260 71 129 q 109 488 71 376 q 226 670 147 599 q 419 742 304 742 q 563 694 511 742 q 614 571 614 646 m 415 676 q 240 581 304 676 q 157 349 175 485 q 440 417 347 365 q 533 568 533 468 q 504 647 533 617 q 415 676 475 676 m 404 971 q 503 1046 503 979 q 490 1081 503 1068 q 453 1093 476 1093 q 416 1088 432 1093 q 379 1074 400 1083 l 361 1124 q 463 1151 413 1151 q 542 1123 513 1151 q 572 1049 572 1094 q 543 970 572 999 q 463 933 514 942 l 451 857 l 390 857 l 404 971 z "},"ȇ":{"ha":649,"x_min":71,"x_max":614,"o":"m 614 571 q 492 372 614 438 q 151 286 371 306 l 151 261 q 193 103 151 154 q 308 53 235 53 q 401 70 358 53 q 494 124 444 88 l 529 71 q 420 6 475 28 q 303 -15 365 -15 q 131 57 192 -15 q 71 260 71 129 q 109 488 71 376 q 226 670 147 599 q 419 742 304 742 q 563 694 511 742 q 614 571 614 646 m 415 676 q 240 581 304 676 q 157 349 175 485 q 440 417 347 365 q 533 568 533 468 q 504 647 533 617 q 415 676 475 676 m 258 881 q 326 990 276 950 q 440 1031 375 1031 q 549 988 508 1031 q 588 875 589 944 l 535 868 q 438 965 525 965 q 308 864 347 965 l 258 881 z "},"ē":{"ha":649,"x_min":71,"x_max":614,"o":"m 614 571 q 492 372 614 438 q 151 286 371 306 l 151 261 q 193 103 151 154 q 308 53 235 53 q 401 70 358 53 q 494 124 444 88 l 529 71 q 420 6 475 28 q 303 -15 365 -15 q 131 57 192 -15 q 71 260 71 129 q 109 488 71 376 q 226 670 147 599 q 419 742 304 742 q 563 694 511 742 q 614 571 614 646 m 415 676 q 240 581 304 676 q 157 349 175 485 q 440 417 347 365 q 533 568 533 468 q 504 647 533 617 q 415 676 475 676 m 586 939 l 283 939 l 293 1003 l 596 1003 l 586 939 z "},"ę":{"ha":649,"x_min":71,"x_max":614,"o":"m 614 571 q 492 372 614 438 q 151 286 371 306 l 151 261 q 193 103 151 154 q 308 53 235 53 q 401 70 358 53 q 494 124 444 88 l 529 71 q 410 3 471 25 q 296 -74 329 -39 q 263 -158 263 -110 q 283 -210 263 -192 q 342 -229 303 -229 q 413 -221 371 -229 l 404 -286 q 331 -294 367 -294 q 228 -260 264 -294 q 192 -171 192 -225 q 301 -15 192 -75 q 131 57 192 -15 q 71 260 71 129 q 109 488 71 376 q 226 670 147 599 q 419 742 304 742 q 563 694 511 742 q 614 571 614 646 m 415 676 q 240 581 304 676 q 157 349 175 485 q 440 417 347 365 q 533 568 533 468 q 504 647 533 617 q 415 676 475 676 z "},"ɛ":{"ha":594,"x_min":54,"x_max":571,"o":"m 276 -15 q 115 39 176 -15 q 54 182 54 93 q 104 319 54 263 q 253 386 154 376 q 163 436 194 401 q 132 531 132 471 q 158 631 132 582 q 240 710 185 679 q 375 742 294 742 q 571 671 488 742 l 528 625 q 458 665 493 651 q 375 678 422 678 q 251 634 292 678 q 210 531 210 590 q 245 444 210 475 q 350 413 281 413 l 419 413 l 400 347 l 338 347 q 182 301 228 347 q 136 182 136 254 q 174 86 136 121 q 281 51 213 51 q 381 69 338 51 q 474 122 424 86 l 511 72 q 276 -15 407 -15 z "},"ʚ":{"ha":701,"x_min":54,"x_max":628,"o":"m 274 -15 q 115 38 175 -15 q 54 178 54 90 q 106 318 54 260 q 257 386 157 376 q 143 528 143 418 q 170 628 143 579 q 251 710 197 678 q 385 742 306 742 q 565 667 501 742 q 628 458 628 592 q 586 215 628 322 q 465 46 544 107 q 274 -15 385 -15 m 279 51 q 480 167 411 51 q 549 460 549 283 q 382 676 549 676 q 259 633 300 676 q 218 526 218 589 q 251 442 218 472 q 350 413 285 413 l 399 413 l 379 347 l 335 347 q 181 299 225 347 q 136 178 136 250 q 173 84 136 117 q 279 51 210 51 z "},"ɜ":{"ha":603,"x_min":3,"x_max":531,"o":"m 336 742 q 476 695 422 742 q 531 571 531 649 q 486 448 531 496 q 360 385 442 400 q 470 336 429 376 q 511 228 511 296 q 481 111 511 167 q 388 20 451 56 q 231 -15 325 -15 q 3 78 90 -15 l 49 126 q 232 51 124 51 q 381 103 333 51 q 429 226 429 154 q 383 319 429 289 q 258 350 338 350 l 182 350 l 199 413 l 260 413 q 400 455 350 413 q 450 567 450 497 q 419 649 450 619 q 329 678 388 678 q 234 663 275 678 q 139 615 193 647 l 106 664 q 217 722 163 703 q 336 742 272 742 z "},"ɞ":{"ha":688,"x_min":71,"x_max":615,"o":"m 314 -15 q 133 58 194 -15 q 71 261 71 131 q 113 504 71 394 q 235 678 156 614 q 422 742 314 742 q 562 694 508 742 q 615 569 615 647 q 572 449 615 496 q 446 385 528 401 q 556 335 517 375 q 594 226 594 296 q 565 109 594 164 q 472 19 535 54 q 314 -15 408 -15 m 318 51 q 467 101 421 51 q 514 225 514 151 q 347 350 514 350 l 304 350 l 322 413 l 351 413 q 488 455 440 413 q 536 565 536 497 q 506 647 536 618 q 418 676 476 676 q 270 617 331 676 q 180 463 210 558 q 150 258 150 368 q 192 103 150 154 q 318 51 233 51 z "},"ɝ":{"ha":836,"x_min":3,"x_max":890,"o":"m 890 494 q 757 449 828 449 q 657 485 693 449 q 621 583 621 521 q 624 615 621 593 l 629 658 l 528 606 q 531 571 531 583 q 486 448 531 496 q 360 385 442 400 q 470 336 429 376 q 511 228 511 296 q 481 111 511 167 q 388 20 451 56 q 231 -15 325 -15 q 3 78 90 -15 l 49 126 q 232 51 124 51 q 381 103 333 51 q 429 226 429 154 q 383 319 429 289 q 258 350 338 350 l 182 350 l 199 413 l 260 413 q 400 455 350 413 q 450 567 450 497 q 419 649 450 619 q 329 678 388 678 q 234 663 275 678 q 139 615 193 647 l 106 664 q 217 722 163 703 q 336 742 272 742 q 439 720 394 742 q 507 658 483 699 l 639 726 l 713 726 l 697 617 q 694 588 694 594 q 764 514 694 514 q 814 522 792 514 q 863 544 836 529 l 890 494 z "},"ɘ":{"ha":649,"x_min":26,"x_max":575,"o":"m 328 742 q 513 660 451 742 q 575 449 575 579 q 533 214 575 319 q 413 47 490 108 q 233 -15 335 -15 q 117 7 167 -15 q 26 74 67 29 l 72 121 q 146 69 108 86 q 236 53 183 53 q 385 116 324 53 q 474 285 446 179 q 185 346 279 293 q 90 510 90 399 q 121 629 90 576 q 206 712 151 682 q 328 742 260 742 m 486 347 q 494 453 494 400 q 454 614 494 551 q 328 676 414 676 q 213 631 256 676 q 171 513 171 586 q 244 392 171 429 q 486 347 318 356 z "},"ʃ":{"ha":338,"x_min":-167,"x_max":504,"o":"m 378 1032 q 449 1019 419 1032 q 504 983 478 1006 l 467 936 q 426 959 446 951 q 379 967 407 967 q 313 940 340 967 q 276 857 285 913 l 258 726 l 156 0 l 140 -111 q 78 -241 128 -197 q -42 -285 29 -285 q -167 -236 -112 -285 l -128 -189 q -88 -212 -107 -204 q -43 -219 -69 -219 q 25 -193 -3 -219 q 61 -110 53 -167 l 78 0 l 181 726 l 200 858 q 259 988 213 944 q 378 1032 306 1032 z "},"ʆ":{"ha":367,"x_min":-172,"x_max":533,"o":"m 407 1032 q 478 1019 449 1032 q 533 983 507 1006 l 496 936 q 456 959 475 951 q 408 967 436 967 q 342 940 369 967 q 306 857 314 913 l 288 726 l 182 -26 q 304 -76 254 -47 l 279 -122 q 174 -82 231 -97 q 103 -231 156 -178 q -36 -285 50 -285 q -135 -249 -99 -285 q -172 -157 -172 -214 q -122 -44 -172 -85 q 7 -3 -71 -3 q 106 -12 64 -3 l 210 726 l 229 858 q 288 988 242 944 q 407 1032 335 1032 m -33 -225 q 53 -185 22 -225 q 97 -65 85 -146 q 7 -57 60 -57 q -77 -83 -47 -57 q -107 -154 -107 -108 q -88 -206 -107 -187 q -33 -225 -69 -225 z "},"ƪ":{"ha":369,"x_min":8,"x_max":367,"o":"m 367 -239 q 235 -285 311 -285 q 131 -248 168 -285 q 93 -143 93 -211 q 96 -104 93 -132 l 110 0 l 210 714 q 133 696 171 696 q 44 733 79 696 q 8 832 8 769 q 31 936 8 890 q 94 1007 54 982 q 181 1032 133 1032 q 275 997 240 1032 q 310 899 310 961 q 307 860 310 888 l 188 0 l 172 -114 q 171 -142 171 -124 q 242 -219 171 -219 q 290 -212 269 -219 q 336 -189 311 -204 l 367 -239 m 147 760 q 218 776 182 760 l 232 872 q 233 900 233 882 q 178 968 233 968 q 110 930 136 968 q 85 833 85 892 q 147 760 85 760 z "},"ʅ":{"ha":506,"x_min":47,"x_max":457,"o":"m 457 31 q 325 -15 401 -15 q 221 22 258 -15 q 183 126 183 58 q 186 165 183 138 l 200 269 l 226 457 l 242 571 q 243 599 243 581 q 172 676 243 676 q 124 669 144 676 q 78 646 103 661 l 47 696 q 179 742 103 742 q 283 705 246 742 q 321 600 321 668 q 318 561 321 589 l 304 457 l 278 269 l 263 156 q 261 128 261 146 q 332 50 261 50 q 381 58 360 50 q 426 81 401 65 l 457 31 z "},"ɇ":{"ha":649,"x_min":71,"x_max":614,"o":"m 614 571 q 542 407 614 469 q 339 314 471 344 l 242 65 q 308 53 274 53 q 401 70 358 53 q 494 124 444 88 l 529 71 q 420 6 475 28 q 303 -15 365 -15 q 217 -1 253 -15 l 179 -97 l 139 -85 l 178 17 q 98 110 125 49 q 71 260 71 172 q 109 488 71 376 q 226 670 147 599 q 419 742 304 742 q 458 739 433 742 l 490 822 l 531 810 l 500 729 q 584 669 554 711 q 614 571 614 626 m 415 676 q 240 581 304 676 q 157 349 175 485 q 315 371 236 354 l 433 675 q 415 676 428 676 m 533 568 q 475 665 533 642 l 367 385 q 492 456 450 411 q 533 568 533 501 m 289 304 q 151 286 231 293 l 151 261 q 207 89 151 142 l 289 304 z "},"ẽ":{"ha":649,"x_min":71,"x_max":636,"o":"m 614 571 q 492 372 614 438 q 151 286 371 306 l 151 261 q 193 103 151 154 q 308 53 235 53 q 401 70 358 53 q 494 124 444 88 l 529 71 q 420 6 475 28 q 303 -15 365 -15 q 131 57 192 -15 q 71 260 71 129 q 109 488 71 376 q 226 670 147 599 q 419 742 304 742 q 563 694 511 742 q 614 571 614 646 m 415 676 q 240 581 304 676 q 157 349 175 485 q 440 417 347 365 q 533 568 533 468 q 504 647 533 617 q 415 676 475 676 m 514 926 q 469 936 489 926 q 429 963 450 946 q 398 983 411 976 q 371 989 385 989 q 333 976 349 989 q 293 932 317 963 l 250 961 q 372 1051 308 1051 q 414 1042 396 1051 q 454 1017 432 1033 q 487 995 475 1001 q 514 989 499 989 q 551 1003 533 989 q 592 1049 569 1017 l 636 1022 q 514 926 582 926 z "},"ǝ":{"ha":649,"x_min":35,"x_max":578,"o":"m 346 742 q 517 669 457 742 q 578 467 578 597 q 540 239 578 350 q 423 56 501 128 q 229 -15 344 -15 q 86 33 138 -15 q 35 156 35 81 q 156 355 35 289 q 497 440 278 421 l 497 465 q 456 623 497 572 q 340 674 414 674 q 247 656 290 674 q 154 603 204 639 l 119 656 q 228 720 174 699 q 346 742 283 742 m 233 50 q 409 146 344 50 q 492 378 474 242 q 208 310 301 361 q 115 158 115 258 q 144 80 115 110 q 233 50 174 50 z "},"ə":{"ha":649,"x_min":35,"x_max":578,"o":"m 346 742 q 517 669 457 742 q 578 467 578 597 q 540 239 578 350 q 423 56 501 128 q 229 -15 344 -15 q 86 33 138 -15 q 35 156 35 81 q 156 355 35 289 q 497 440 278 421 l 497 465 q 456 623 497 572 q 340 674 414 674 q 247 656 290 674 q 154 603 204 639 l 119 656 q 228 720 174 699 q 346 742 283 742 m 233 50 q 409 146 344 50 q 492 378 474 242 q 208 310 301 361 q 115 158 115 258 q 144 80 115 110 q 233 50 174 50 z "},"ɚ":{"ha":878,"x_min":35,"x_max":933,"o":"m 933 494 q 800 449 871 449 q 700 485 736 449 q 664 583 664 521 q 667 615 664 593 l 672 658 l 557 599 q 578 467 578 543 q 540 239 578 350 q 423 56 501 128 q 229 -15 344 -15 q 86 33 138 -15 q 35 156 35 81 q 156 355 35 289 q 497 440 278 421 l 497 465 q 456 623 497 572 q 340 674 414 674 q 247 656 290 674 q 154 603 204 639 l 119 656 q 228 720 174 699 q 346 742 283 742 q 532 650 472 742 l 682 726 l 756 726 l 740 617 q 738 588 738 594 q 807 514 738 514 q 857 522 835 514 q 906 544 879 529 l 933 494 m 233 50 q 409 146 344 50 q 492 378 474 242 q 208 310 301 361 q 115 158 115 258 q 144 80 115 110 q 233 50 174 50 z "},"ʒ":{"ha":578,"x_min":-61,"x_max":557,"o":"m 549 665 l 221 276 l 229 276 q 426 219 361 276 q 490 54 490 163 q 450 -122 490 -46 q 337 -242 410 -199 q 172 -285 264 -285 q 38 -254 93 -285 q -61 -164 -18 -224 l -10 -124 q 73 -196 31 -174 q 172 -218 115 -218 q 345 -142 282 -218 q 408 54 408 -65 q 362 178 408 140 q 215 215 315 215 l 131 215 l 132 217 l 140 276 l 456 660 l 83 660 l 93 726 l 557 726 l 549 665 z "},"ǯ":{"ha":578,"x_min":-61,"x_max":557,"o":"m 549 665 l 221 276 l 229 276 q 426 219 361 276 q 490 54 490 163 q 450 -122 490 -46 q 337 -242 410 -199 q 172 -285 264 -285 q 38 -254 93 -285 q -61 -164 -18 -224 l -10 -124 q 73 -196 31 -174 q 172 -218 115 -218 q 345 -142 282 -218 q 408 54 408 -65 q 362 178 408 140 q 215 215 315 215 l 131 215 l 132 217 l 140 276 l 456 660 l 83 660 l 93 726 l 557 726 l 549 665 m 518 1065 l 550 1026 l 368 879 l 319 879 l 178 1026 l 215 1065 l 349 950 l 518 1065 z "}}}
